G04 Layer_Physical_Order=2*
G04 Layer_Color=16711680*
%FSLAX25Y25*%
%MOIN*%
G70*
G01*
G75*
%ADD16C,0.03000*%
%ADD17C,0.02000*%
%ADD24R,0.05906X0.05906*%
%ADD25C,0.05906*%
%ADD26C,0.05000*%
G36*
X190204Y1725D02*
X1725D01*
Y56739D01*
X51666D01*
X51827Y56266D01*
X51815Y56256D01*
X49255Y53697D01*
X48823Y53133D01*
X48551Y52477D01*
X48458Y51772D01*
Y40718D01*
X47949Y40055D01*
X47576Y39155D01*
X47449Y38189D01*
X47576Y37223D01*
X47949Y36323D01*
X48542Y35550D01*
X49315Y34957D01*
X50215Y34584D01*
X51181Y34457D01*
X52147Y34584D01*
X53047Y34957D01*
X53710Y35466D01*
X59305D01*
X61450Y33321D01*
Y25144D01*
X59699Y23393D01*
X58256D01*
X58159Y23883D01*
X58756Y24130D01*
X59529Y24723D01*
X60122Y25496D01*
X60495Y26396D01*
X60622Y27362D01*
X60495Y28328D01*
X60122Y29228D01*
X59529Y30001D01*
X58756Y30594D01*
X57856Y30967D01*
X56890Y31094D01*
X55924Y30967D01*
X55024Y30594D01*
X54361Y30086D01*
X34222D01*
X34117Y30887D01*
X33744Y31787D01*
X33151Y32560D01*
X32378Y33153D01*
X31478Y33526D01*
X30512Y33653D01*
X29546Y33526D01*
X28646Y33153D01*
X27873Y32560D01*
X27280Y31787D01*
X26907Y30887D01*
X26780Y29921D01*
X26907Y28955D01*
X27280Y28055D01*
X27873Y27282D01*
X28646Y26689D01*
X29546Y26316D01*
X30374Y26207D01*
X31145Y25436D01*
X31709Y25004D01*
X32366Y24732D01*
X32448Y24721D01*
X33071Y24639D01*
X50208D01*
X50306Y24148D01*
X49709Y23901D01*
X48936Y23308D01*
X48343Y22535D01*
X47970Y21635D01*
X47843Y20669D01*
X47970Y19703D01*
X48343Y18803D01*
X48936Y18030D01*
X49709Y17437D01*
X50609Y17064D01*
X51575Y16937D01*
X52541Y17064D01*
X53441Y17437D01*
X54104Y17946D01*
X60827D01*
X61532Y18039D01*
X62188Y18311D01*
X62752Y18744D01*
X62752Y18744D01*
X62752Y18744D01*
X66099Y22090D01*
X66532Y22654D01*
X66804Y23311D01*
X66896Y24016D01*
X66897Y24016D01*
X66896Y24016D01*
Y24016D01*
Y34449D01*
X66804Y35154D01*
X66532Y35811D01*
X66099Y36375D01*
X62359Y40115D01*
X61795Y40547D01*
X61138Y40819D01*
X60433Y40912D01*
X53904D01*
Y50644D01*
X54868Y51607D01*
X124462D01*
X139396Y36674D01*
X139506Y35845D01*
X139878Y34945D01*
X140471Y34172D01*
X141244Y33579D01*
X142144Y33206D01*
X143110Y33079D01*
X144076Y33206D01*
X144976Y33579D01*
X145601Y34059D01*
X146088Y33945D01*
X146239Y33639D01*
X146177Y33559D01*
X145805Y32659D01*
X145677Y31693D01*
X145805Y30727D01*
X146177Y29827D01*
X146771Y29054D01*
X147544Y28461D01*
X148444Y28088D01*
X149409Y27961D01*
X150375Y28088D01*
X151275Y28461D01*
X151938Y28970D01*
X164154D01*
Y21044D01*
X172460D01*
Y29350D01*
X171030D01*
Y29921D01*
X170948Y30544D01*
X170938Y30626D01*
X170666Y31283D01*
X170233Y31847D01*
X169649Y32431D01*
X170437Y32330D01*
X170437Y32330D01*
X170437Y32330D01*
X171142Y32237D01*
X180910D01*
X181093Y31999D01*
X181961Y31333D01*
X182971Y30915D01*
X184055Y30772D01*
X185139Y30915D01*
X186149Y31333D01*
X187017Y31999D01*
X187682Y32866D01*
X188101Y33876D01*
X188244Y34961D01*
X188101Y36045D01*
X187682Y37055D01*
X187017Y37922D01*
X186149Y38588D01*
X185139Y39007D01*
X184055Y39149D01*
X182971Y39007D01*
X181961Y38588D01*
X181093Y37922D01*
X180910Y37684D01*
X172270D01*
X171217Y38737D01*
X170653Y39169D01*
X169996Y39441D01*
X169291Y39534D01*
X145639D01*
X144976Y40043D01*
X144076Y40416D01*
X143248Y40525D01*
X127516Y56256D01*
X126952Y56689D01*
X126962Y56739D01*
X190204D01*
Y1725D01*
D02*
G37*
%LPC*%
G36*
X89764Y45661D02*
X88798Y45534D01*
X87898Y45161D01*
X87125Y44568D01*
X86532Y43795D01*
X86159Y42895D01*
X86032Y41929D01*
X86159Y40963D01*
X86532Y40063D01*
X87041Y39400D01*
Y26682D01*
X86729Y26275D01*
X86356Y25375D01*
X86229Y24409D01*
X86356Y23444D01*
X86729Y22544D01*
X87322Y21771D01*
X88095Y21178D01*
X88995Y20805D01*
X89961Y20677D01*
X90926Y20805D01*
X91827Y21178D01*
X92489Y21686D01*
X104187D01*
X106135Y19738D01*
Y10433D01*
X106228Y9728D01*
X106228Y9728D01*
X106228Y9728D01*
X106500Y9071D01*
X106933Y8507D01*
X111657Y3783D01*
X112221Y3350D01*
X112493Y3238D01*
X112878Y3078D01*
X113583Y2985D01*
X141929D01*
X142634Y3078D01*
X143291Y3350D01*
X143855Y3783D01*
X143855Y3783D01*
X143855Y3783D01*
X146988Y6916D01*
X147816Y7025D01*
X148716Y7398D01*
X149379Y7907D01*
X160486D01*
X161263Y7129D01*
X161827Y6697D01*
X162484Y6425D01*
X163189Y6332D01*
X172047D01*
X172752Y6425D01*
X173409Y6697D01*
X173973Y7130D01*
X173973Y7129D01*
X173973Y7130D01*
X179081Y12237D01*
X179902D01*
Y10808D01*
X188208D01*
Y19113D01*
X179902D01*
Y17684D01*
X177953D01*
X177330Y17602D01*
X177248Y17591D01*
X176591Y17319D01*
X176027Y16886D01*
X170919Y11778D01*
X164317D01*
X163540Y12556D01*
X162976Y12988D01*
X162319Y13260D01*
X161614Y13353D01*
X149379D01*
X148716Y13862D01*
X147816Y14235D01*
X146850Y14362D01*
X145885Y14235D01*
X144984Y13862D01*
X144211Y13269D01*
X143619Y12496D01*
X143246Y11596D01*
X143137Y10767D01*
X140801Y8432D01*
X114711D01*
X111582Y11561D01*
Y20866D01*
X111489Y21571D01*
X111217Y22228D01*
X110784Y22792D01*
X107241Y26335D01*
X106677Y26768D01*
X106020Y27040D01*
X105315Y27133D01*
X92489D01*
X92487Y27135D01*
Y39400D01*
X92996Y40063D01*
X93369Y40963D01*
X93496Y41929D01*
X93369Y42895D01*
X92996Y43795D01*
X92403Y44568D01*
X91630Y45161D01*
X90730Y45534D01*
X89764Y45661D01*
D02*
G37*
G36*
X6992Y38681D02*
X5908Y38538D01*
X4898Y38120D01*
X4030Y37454D01*
X3365Y36586D01*
X2946Y35576D01*
X2803Y34492D01*
X2946Y33408D01*
X3365Y32398D01*
X4030Y31530D01*
X4898Y30865D01*
X5908Y30446D01*
X6992Y30304D01*
X8076Y30446D01*
X9086Y30865D01*
X9954Y31530D01*
X10620Y32398D01*
X11038Y33408D01*
X11181Y34492D01*
X11038Y35576D01*
X10620Y36586D01*
X9954Y37454D01*
X9086Y38120D01*
X8076Y38538D01*
X6992Y38681D01*
D02*
G37*
%LPD*%
D16*
X119488Y36811D02*
X127559D01*
X114961Y32283D02*
X119488Y36811D01*
X114961Y14370D02*
Y32283D01*
X177953Y14961D02*
X184055D01*
X172047Y9055D02*
X177953Y14961D01*
X163189Y9055D02*
X172047D01*
X161614Y10630D02*
X163189Y9055D01*
X146850Y10630D02*
X161614D01*
X171142Y34961D02*
X184055D01*
X169291Y36811D02*
X171142Y34961D01*
X143110Y36811D02*
X169291D01*
X168307Y25197D02*
Y29921D01*
X166535Y31693D02*
X168307Y29921D01*
X149409Y31693D02*
X166535D01*
X125591Y54331D02*
X143110Y36811D01*
X53740Y54331D02*
X125591D01*
X51181Y51772D02*
X53740Y54331D01*
X51181Y38189D02*
Y51772D01*
X105315Y24409D02*
X108858Y20866D01*
Y10433D02*
Y20866D01*
Y10433D02*
X113583Y5709D01*
X141929D02*
X146850Y10630D01*
X113583Y5709D02*
X141929D01*
X89961Y24409D02*
X105315D01*
X60433Y38189D02*
X64173Y34449D01*
Y24016D02*
Y34449D01*
X60827Y20669D02*
X64173Y24016D01*
X51181Y38189D02*
X60433D01*
X51575Y20669D02*
X60827D01*
X88779Y9252D02*
X103347D01*
X84449Y13583D02*
X88779Y9252D01*
X89764Y24606D02*
Y41929D01*
X66929Y9843D02*
X70669Y13583D01*
Y31299D01*
Y13583D02*
X84449D01*
X70669Y31299D02*
X84449D01*
X70669D02*
Y42913D01*
X56890Y9843D02*
X66929D01*
X64370Y49213D02*
X70669Y42913D01*
X56496Y49213D02*
X64370D01*
X33071Y27362D02*
X56890D01*
X30512Y29921D02*
X33071Y27362D01*
D17*
X89764Y24606D02*
X89961Y24409D01*
D24*
X184055Y14961D02*
D03*
X168307Y25197D02*
D03*
X6992Y24492D02*
D03*
D25*
X184055Y24961D02*
D03*
Y34961D02*
D03*
X168307Y15197D02*
D03*
X6992Y34492D02*
D03*
D26*
X127559Y36811D02*
D03*
X149409Y31693D02*
D03*
X143110Y36811D02*
D03*
X114961Y14370D02*
D03*
X146850Y10630D02*
D03*
X103347Y9252D02*
D03*
X56890Y27362D02*
D03*
X89764Y41929D02*
D03*
X84449Y31299D02*
D03*
X51181Y38189D02*
D03*
X56496Y49213D02*
D03*
X84449Y13583D02*
D03*
X89961Y24409D02*
D03*
X56890Y9843D02*
D03*
X51575Y20669D02*
D03*
X30512Y29921D02*
D03*
M02*
