G04 Layer_Color=8421504*
%FSLAX25Y25*%
%MOIN*%
G70*
G01*
G75*
%ADD10R,0.03543X0.03150*%
%ADD11R,0.03150X0.03543*%
%ADD12R,0.02756X0.03543*%
%ADD13R,0.02441X0.04803*%
%ADD14R,0.03543X0.02756*%
%ADD15R,0.04803X0.02441*%
D10*
X156102Y17913D02*
D03*
Y23425D02*
D03*
X120079Y28543D02*
D03*
Y34055D02*
D03*
Y42323D02*
D03*
Y47835D02*
D03*
X106693Y42323D02*
D03*
Y47835D02*
D03*
X97835Y42323D02*
D03*
Y47835D02*
D03*
X43898Y38583D02*
D03*
Y33071D02*
D03*
X35827Y26969D02*
D03*
Y21457D02*
D03*
X25394Y26969D02*
D03*
Y21457D02*
D03*
X17717Y33071D02*
D03*
Y38583D02*
D03*
D11*
X145079Y49409D02*
D03*
X150591D02*
D03*
X97835Y14370D02*
D03*
X103347D02*
D03*
D12*
X138189Y49409D02*
D03*
X132283D02*
D03*
X138189Y36811D02*
D03*
X132283D02*
D03*
X141929Y10630D02*
D03*
X136024D02*
D03*
D13*
X141929Y28543D02*
D03*
X138189D02*
D03*
X134449D02*
D03*
Y18228D02*
D03*
X141929D02*
D03*
D14*
X120079Y14370D02*
D03*
Y20276D02*
D03*
X106693Y28543D02*
D03*
Y34449D02*
D03*
X84449Y41929D02*
D03*
Y36024D02*
D03*
X56496Y38189D02*
D03*
Y44094D02*
D03*
X84449Y24409D02*
D03*
Y18504D02*
D03*
X56890Y20669D02*
D03*
Y14764D02*
D03*
X43898Y27165D02*
D03*
Y21260D02*
D03*
X35827Y32874D02*
D03*
Y38780D02*
D03*
X25394Y32874D02*
D03*
Y38780D02*
D03*
X17717Y21260D02*
D03*
Y27165D02*
D03*
D15*
X65354Y41929D02*
D03*
Y38189D02*
D03*
Y34449D02*
D03*
X75669D02*
D03*
Y41929D02*
D03*
X65354Y24409D02*
D03*
Y20669D02*
D03*
Y16929D02*
D03*
X75669D02*
D03*
Y24409D02*
D03*
M02*
