G04 Layer_Color=32896*
%FSLAX25Y25*%
%MOIN*%
G70*
G01*
G75*
%ADD29C,0.01000*%
%ADD39C,0.00200*%
D29*
X182025Y47337D02*
X186024D01*
Y44338D01*
X184024Y45337D01*
X183025D01*
X182025Y44338D01*
Y42338D01*
X183025Y41339D01*
X185024D01*
X186024Y42338D01*
X180026Y46337D02*
X179026Y47337D01*
X177026D01*
X176027Y46337D01*
Y42338D01*
X177026Y41339D01*
X179026D01*
X180026Y42338D01*
Y46337D01*
X174028Y47337D02*
Y41339D01*
Y44338D01*
X170029D01*
Y47337D01*
Y41339D01*
X168029Y45337D02*
X164031D01*
X168029Y41339D01*
X164031D01*
X156033D02*
Y47337D01*
X152035Y41339D01*
Y47337D01*
X149036Y41339D02*
X147036D01*
X146037Y42338D01*
Y44338D01*
X147036Y45337D01*
X149036D01*
X150035Y44338D01*
Y42338D01*
X149036Y41339D01*
X143037Y46337D02*
Y45337D01*
X144037D01*
X142038D01*
X143037D01*
Y42338D01*
X142038Y41339D01*
X135040Y45337D02*
X138039D01*
X139039Y44338D01*
Y42338D01*
X138039Y41339D01*
X135040D01*
X133041Y47337D02*
Y41339D01*
Y44338D01*
X132041Y45337D01*
X130042D01*
X129042Y44338D01*
Y41339D01*
X121045D02*
Y45337D01*
X119045Y47337D01*
X117046Y45337D01*
Y41339D01*
Y44338D01*
X121045D01*
X115047Y41339D02*
Y45337D01*
X112048D01*
X111048Y44338D01*
Y41339D01*
X105050Y47337D02*
Y41339D01*
X108049D01*
X109048Y42338D01*
Y44338D01*
X108049Y45337D01*
X105050D01*
X97052Y47337D02*
Y41339D01*
X93054D01*
X91054D02*
Y47337D01*
X88055D01*
X87056Y46337D01*
Y44338D01*
X88055Y43338D01*
X91054D01*
X75059Y47337D02*
X79058D01*
Y44338D01*
X77059D01*
X79058D01*
Y41339D01*
X73060D02*
X71061D01*
X72061D01*
Y45337D01*
X73060D01*
X68062Y41339D02*
X66062D01*
X67062D01*
Y47337D01*
X68062D01*
X62064Y46337D02*
Y45337D01*
X63063D01*
X61064D01*
X62064D01*
Y42338D01*
X61064Y41339D01*
X55066D02*
X57065D01*
X58065Y42338D01*
Y44338D01*
X57065Y45337D01*
X55066D01*
X54066Y44338D01*
Y43338D01*
X58065D01*
X52067Y45337D02*
Y41339D01*
Y43338D01*
X51067Y44338D01*
X50068Y45337D01*
X49068D01*
D39*
X26253Y49649D02*
X30453D01*
X26053Y49449D02*
X30453D01*
X26053Y49249D02*
X30453D01*
X26053Y49049D02*
X30453D01*
X26053Y48849D02*
X30453D01*
X26053Y48649D02*
X30653D01*
X25853Y48449D02*
X30653D01*
X25853Y48249D02*
X30653D01*
X25853Y48049D02*
X30653D01*
X25853Y47849D02*
X30653D01*
X25853Y47649D02*
X30853D01*
X25853Y47449D02*
X30853D01*
X25653Y47249D02*
X30853D01*
X25653Y47049D02*
X30853D01*
X25653Y46849D02*
X30853D01*
X37053Y46649D02*
X37653D01*
X25653D02*
X30853D01*
X18853D02*
X19653D01*
X36653Y46449D02*
X37853D01*
X25653D02*
X31053D01*
X18653D02*
X19853D01*
X36453Y46249D02*
X38053D01*
X25453D02*
X31053D01*
X18453D02*
X20253D01*
X36053Y46049D02*
X38253D01*
X25453D02*
X31053D01*
X18253D02*
X20453D01*
X35853Y45849D02*
X38453D01*
X25453D02*
X31053D01*
X18053D02*
X20653D01*
X35453Y45649D02*
X38653D01*
X25253D02*
X31253D01*
X17853D02*
X21053D01*
X35253Y45449D02*
X38853D01*
X24853D02*
X31653D01*
X17653D02*
X21253D01*
X34853Y45249D02*
X39053D01*
X24253D02*
X32253D01*
X17453D02*
X21653D01*
X34653Y45049D02*
X39253D01*
X23853D02*
X32653D01*
X17253D02*
X21853D01*
X34253Y44849D02*
X39453D01*
X23453D02*
X33253D01*
X17053D02*
X22253D01*
X34053Y44649D02*
X39653D01*
X22853D02*
X33653D01*
X16853D02*
X22453D01*
X16653Y44449D02*
X39853D01*
X16453Y44249D02*
X40053D01*
X16453Y44049D02*
X40253D01*
X16253Y43849D02*
X40253D01*
X16453Y43649D02*
X40053D01*
X16653Y43449D02*
X40053D01*
X16653Y43249D02*
X39853D01*
X16853Y43049D02*
X39653D01*
X17053Y42849D02*
X39653D01*
X17053Y42649D02*
X39453D01*
X17253Y42449D02*
X39253D01*
X17453Y42249D02*
X39253D01*
X17453Y42049D02*
X39053D01*
X17653Y41849D02*
X38853D01*
X17853Y41649D02*
X38853D01*
X17853Y41449D02*
X38653D01*
X18053Y41249D02*
X38453D01*
X18253Y41049D02*
X38253D01*
X18253Y40849D02*
X38253D01*
X18453Y40649D02*
X38053D01*
X18453Y40449D02*
X38053D01*
X18453Y40249D02*
X38253D01*
X18253Y40049D02*
X38253D01*
X18253Y39849D02*
X38253D01*
X18053Y39649D02*
X38453D01*
X18053Y39449D02*
X38453D01*
X18053Y39249D02*
X38653D01*
X17853Y39049D02*
X38653D01*
X29053Y38849D02*
X38853D01*
X17853D02*
X27453D01*
X29853Y38649D02*
X38853D01*
X17653D02*
X26853D01*
X30253Y38449D02*
X38853D01*
X17653D02*
X26453D01*
X30453Y38249D02*
X39053D01*
X17453D02*
X26053D01*
X30853Y38049D02*
X39053D01*
X17453D02*
X25853D01*
X31053Y37849D02*
X39253D01*
X17453D02*
X25453D01*
X31253Y37649D02*
X39653D01*
X16853D02*
X25253D01*
X31453Y37449D02*
X40653D01*
X15853D02*
X25053D01*
X31653Y37249D02*
X41853D01*
X14653D02*
X25053D01*
X31653Y37049D02*
X42853D01*
X13653D02*
X24853D01*
X31853Y36849D02*
X43253D01*
X13453D02*
X24653D01*
X31853Y36649D02*
X43253D01*
X13453D02*
X24653D01*
X32053Y36449D02*
X43253D01*
X13453D02*
X24453D01*
X32053Y36249D02*
X43253D01*
X13453D02*
X24453D01*
X32253Y36049D02*
X43253D01*
X13453D02*
X24453D01*
X32253Y35849D02*
X43253D01*
X13453D02*
X24253D01*
X32253Y35649D02*
X43253D01*
X13453D02*
X24253D01*
X32253Y35449D02*
X43253D01*
X13453D02*
X24253D01*
X32253Y35249D02*
X43253D01*
X13453D02*
X24253D01*
X32253Y35049D02*
X43253D01*
X13453D02*
X24253D01*
X32253Y34849D02*
X43253D01*
X13453D02*
X24253D01*
X32253Y34649D02*
X43253D01*
X13453D02*
X24253D01*
X32253Y34449D02*
X43253D01*
X13453D02*
X24253D01*
X32253Y34249D02*
X43253D01*
X13453D02*
X24253D01*
X32253Y34049D02*
X43253D01*
X13453D02*
X24253D01*
X32253Y33849D02*
X43253D01*
X13453D02*
X24453D01*
X32053Y33649D02*
X43253D01*
X13453D02*
X24453D01*
X32053Y33449D02*
X43253D01*
X13453D02*
X24453D01*
X32053Y33249D02*
X43253D01*
X13453D02*
X24653D01*
X31853Y33049D02*
X43253D01*
X13453D02*
X24653D01*
X31853Y32849D02*
X43053D01*
X13453D02*
X24853D01*
X31653Y32649D02*
X42253D01*
X14253D02*
X24853D01*
X31453Y32449D02*
X41253D01*
X15253D02*
X25053D01*
X31253Y32249D02*
X40053D01*
X16453D02*
X25253D01*
X31253Y32049D02*
X39253D01*
X17253D02*
X25453D01*
X30853Y31849D02*
X39253D01*
X17253D02*
X25653D01*
X30653Y31649D02*
X39053D01*
X17453D02*
X25853D01*
X30453Y31449D02*
X39053D01*
X17453D02*
X26053D01*
X30053Y31249D02*
X39053D01*
X17653D02*
X26453D01*
X29853Y31049D02*
X38853D01*
X17653D02*
X26653D01*
X29853Y30849D02*
X38853D01*
X17653D02*
X26653D01*
X29853Y30649D02*
X38653D01*
X17853D02*
X26653D01*
X30053Y30449D02*
X38653D01*
X17853D02*
X26653D01*
X30053Y30249D02*
X38653D01*
X18053D02*
X26453D01*
X30053Y30049D02*
X38453D01*
X18053D02*
X26453D01*
X30253Y29849D02*
X38453D01*
X18053D02*
X26253D01*
X30253Y29649D02*
X38253D01*
X18253D02*
X26253D01*
X30453Y29449D02*
X38253D01*
X18253D02*
X26253D01*
X30453Y29249D02*
X38253D01*
X18453D02*
X26053D01*
X30453Y29049D02*
X38253D01*
X18453D02*
X26053D01*
X30653Y28849D02*
X38253D01*
X18253D02*
X25853D01*
X30653Y28649D02*
X38453D01*
X18053D02*
X25853D01*
X30853Y28449D02*
X38653D01*
X18053D02*
X25853D01*
X30853Y28249D02*
X38653D01*
X17853D02*
X25653D01*
X31053Y28049D02*
X38853D01*
X17653D02*
X25653D01*
X31053Y27849D02*
X39053D01*
X17653D02*
X25453D01*
X31053Y27649D02*
X39053D01*
X17453D02*
X25453D01*
X31253Y27449D02*
X39253D01*
X17253D02*
X25253D01*
X31253Y27249D02*
X39453D01*
X17253D02*
X25253D01*
X31453Y27049D02*
X39453D01*
X17053D02*
X25253D01*
X31453Y26849D02*
X39653D01*
X16853D02*
X25053D01*
X31453Y26649D02*
X39853D01*
X16853D02*
X25053D01*
X31653Y26449D02*
X39853D01*
X16653D02*
X24853D01*
X31653Y26249D02*
X40053D01*
X16453D02*
X24853D01*
X31853Y26049D02*
X40253D01*
X16453D02*
X24853D01*
X31853Y25849D02*
X40253D01*
X16253D02*
X24653D01*
X32053Y25649D02*
X40053D01*
X16453D02*
X24653D01*
X32053Y25449D02*
X39853D01*
X16653D02*
X24453D01*
X32053Y25249D02*
X39653D01*
X16853D02*
X24453D01*
X32253Y25049D02*
X39453D01*
X17053D02*
X24253D01*
X34453Y24849D02*
X39253D01*
X32253D02*
X33653D01*
X22853D02*
X24253D01*
X17253D02*
X22053D01*
X34853Y24649D02*
X39053D01*
X32453D02*
X33453D01*
X23253D02*
X24253D01*
X17453D02*
X21853D01*
X35053Y24449D02*
X38853D01*
X32453D02*
X33053D01*
X23653D02*
X24053D01*
X17653D02*
X21453D01*
X35453Y24249D02*
X38653D01*
X17853D02*
X21253D01*
X35653Y24049D02*
X38453D01*
X18053D02*
X20853D01*
X36053Y23849D02*
X38253D01*
X18253D02*
X20653D01*
X36253Y23649D02*
X38053D01*
X18453D02*
X20253D01*
X36453Y23449D02*
X37853D01*
X18653D02*
X20053D01*
X36853Y23249D02*
X37653D01*
X18853D02*
X19653D01*
X37053Y23049D02*
X37453D01*
X19053D02*
X19453D01*
X45253Y20049D02*
X46253D01*
X41253D02*
X42053D01*
X37653D02*
X38453D01*
X33453D02*
X34253D01*
X28053D02*
X29053D01*
X24453D02*
X25253D01*
X16253D02*
X17053D01*
X13653D02*
X14453D01*
X10453D02*
X11253D01*
X44853Y19849D02*
X46653D01*
X40653D02*
X43453D01*
X37053D02*
X39053D01*
X34853D02*
X35853D01*
X33053D02*
X34653D01*
X27453D02*
X29653D01*
X23853D02*
X25853D01*
X21653D02*
X22653D01*
X19253D02*
X20253D01*
X17653D02*
X18453D01*
X15853D02*
X17453D01*
X13253D02*
X15053D01*
X9853D02*
X11853D01*
X44453Y19649D02*
X46853D01*
X40453D02*
X43453D01*
X36853D02*
X39253D01*
X32853D02*
X35853D01*
X27053D02*
X29853D01*
X23653D02*
X26053D01*
X21653D02*
X22653D01*
X19253D02*
X20253D01*
X15853D02*
X18453D01*
X12853D02*
X15453D01*
X9653D02*
X12053D01*
X44253Y19449D02*
X47053D01*
X40453D02*
X43453D01*
X36653D02*
X39453D01*
X32653D02*
X35853D01*
X27053D02*
X30053D01*
X23453D02*
X26253D01*
X21653D02*
X22653D01*
X19253D02*
X20253D01*
X15853D02*
X18453D01*
X12653D02*
X15453D01*
X9453D02*
X12253D01*
X44253Y19249D02*
X47253D01*
X40253D02*
X43453D01*
X36653D02*
X39453D01*
X32653D02*
X35853D01*
X27253D02*
X30053D01*
X23453D02*
X26453D01*
X21653D02*
X22653D01*
X19253D02*
X20253D01*
X16053D02*
X18453D01*
X12653D02*
X15653D01*
X9253D02*
X12253D01*
X46053Y19049D02*
X47253D01*
X44053D02*
X45253D01*
X42253D02*
X43453D01*
X40253D02*
X41453D01*
X38453D02*
X39653D01*
X36453D02*
X37653D01*
X34453D02*
X35853D01*
X32453D02*
X33653D01*
X29053D02*
X30053D01*
X27253D02*
X28053D01*
X25253D02*
X26453D01*
X23253D02*
X24453D01*
X21653D02*
X22653D01*
X19253D02*
X20253D01*
X17253D02*
X18453D01*
X16253D02*
X16653D01*
X14453D02*
X15853D01*
X12853D02*
X13653D01*
X11253D02*
X12453D01*
X9253D02*
X10453D01*
X46253Y18849D02*
X47253D01*
X44053D02*
X45053D01*
X42453D02*
X43453D01*
X40253D02*
X41253D01*
X38653D02*
X39653D01*
X36453D02*
X37453D01*
X34653D02*
X35853D01*
X32453D02*
X33453D01*
X29253D02*
X30253D01*
X25453D02*
X26453D01*
X23253D02*
X24253D01*
X21653D02*
X22653D01*
X19253D02*
X20253D01*
X17453D02*
X18453D01*
X14853D02*
X15853D01*
X13053D02*
X13453D01*
X11453D02*
X12453D01*
X9253D02*
X10253D01*
X46453Y18649D02*
X47453D01*
X44053D02*
X45053D01*
X42453D02*
X43453D01*
X40253D02*
X41253D01*
X38853D02*
X39653D01*
X36453D02*
X37253D01*
X34853D02*
X35853D01*
X32453D02*
X33453D01*
X29253D02*
X30253D01*
X25653D02*
X26653D01*
X23253D02*
X24253D01*
X21653D02*
X22653D01*
X19253D02*
X20253D01*
X17653D02*
X18453D01*
X14853D02*
X15853D01*
X11653D02*
X12453D01*
X9253D02*
X10053D01*
X46453Y18449D02*
X47453D01*
X44053D02*
X45053D01*
X42453D02*
X43453D01*
X40253D02*
X41053D01*
X38853D02*
X39653D01*
X36453D02*
X37253D01*
X34853D02*
X35853D01*
X32453D02*
X33453D01*
X28253D02*
X30053D01*
X25653D02*
X26653D01*
X23253D02*
X24053D01*
X21653D02*
X22653D01*
X19253D02*
X20253D01*
X17653D02*
X18453D01*
X15053D02*
X15853D01*
X11653D02*
X12453D01*
X9253D02*
X10053D01*
X46453Y18249D02*
X47453D01*
X44053D02*
X44853D01*
X42453D02*
X43453D01*
X40253D02*
X41053D01*
X36453D02*
X39653D01*
X34853D02*
X35853D01*
X32453D02*
X33453D01*
X27453D02*
X30053D01*
X25653D02*
X26653D01*
X23253D02*
X24053D01*
X21653D02*
X22653D01*
X19253D02*
X20253D01*
X17653D02*
X18453D01*
X15053D02*
X15853D01*
X9253D02*
X12453D01*
X46453Y18049D02*
X47453D01*
X44053D02*
X44853D01*
X42453D02*
X43453D01*
X40253D02*
X41053D01*
X36453D02*
X39653D01*
X34853D02*
X35853D01*
X32453D02*
X33453D01*
X27253D02*
X29853D01*
X25653D02*
X26653D01*
X23253D02*
X24053D01*
X21653D02*
X22653D01*
X19253D02*
X20253D01*
X17653D02*
X18453D01*
X15053D02*
X16053D01*
X9253D02*
X12453D01*
X46453Y17849D02*
X47453D01*
X44053D02*
X44853D01*
X42453D02*
X43453D01*
X40253D02*
X41053D01*
X36453D02*
X39653D01*
X34853D02*
X35853D01*
X32453D02*
X33453D01*
X27053D02*
X29653D01*
X25653D02*
X26653D01*
X23253D02*
X24053D01*
X21653D02*
X22653D01*
X19253D02*
X20253D01*
X17653D02*
X18453D01*
X15053D02*
X15853D01*
X9253D02*
X12453D01*
X46453Y17649D02*
X47453D01*
X44053D02*
X45053D01*
X42453D02*
X43453D01*
X40253D02*
X41053D01*
X36453D02*
X39653D01*
X34853D02*
X35853D01*
X32453D02*
X33453D01*
X27053D02*
X29253D01*
X25653D02*
X26653D01*
X23253D02*
X24053D01*
X21653D02*
X22653D01*
X19253D02*
X20253D01*
X17653D02*
X18453D01*
X15053D02*
X15853D01*
X9253D02*
X12453D01*
X46453Y17449D02*
X47453D01*
X44053D02*
X45053D01*
X42453D02*
X43453D01*
X40253D02*
X41053D01*
X38853D02*
X39653D01*
X34853D02*
X35853D01*
X32453D02*
X33453D01*
X26853D02*
X28053D01*
X25653D02*
X26653D01*
X23253D02*
X24253D01*
X21653D02*
X22653D01*
X19253D02*
X20253D01*
X17653D02*
X18453D01*
X14853D02*
X15853D01*
X11653D02*
X12453D01*
X46453Y17249D02*
X47453D01*
X44053D02*
X45053D01*
X42453D02*
X43453D01*
X40253D02*
X41253D01*
X38653D02*
X39653D01*
X34853D02*
X35853D01*
X32453D02*
X33453D01*
X29653D02*
X29853D01*
X26853D02*
X27853D01*
X25453D02*
X26453D01*
X23253D02*
X24253D01*
X21653D02*
X22653D01*
X19253D02*
X20253D01*
X17653D02*
X18453D01*
X14853D02*
X15853D01*
X11453D02*
X12453D01*
X46253Y17049D02*
X47253D01*
X44053D02*
X45253D01*
X42253D02*
X43453D01*
X40253D02*
X41253D01*
X38653D02*
X39653D01*
X36853D02*
X37253D01*
X34853D02*
X35853D01*
X32453D02*
X33453D01*
X29453D02*
X30053D01*
X26853D02*
X27853D01*
X25453D02*
X26453D01*
X23253D02*
X24453D01*
X21453D02*
X22653D01*
X19253D02*
X20453D01*
X17653D02*
X18453D01*
X14653D02*
X15853D01*
X13053D02*
X13453D01*
X11453D02*
X12453D01*
X9653D02*
X10053D01*
X45853Y16849D02*
X47253D01*
X44253D02*
X45653D01*
X42053D02*
X43453D01*
X40253D02*
X41653D01*
X38253D02*
X39653D01*
X36653D02*
X37653D01*
X34853D02*
X35853D01*
X32453D02*
X33453D01*
X29053D02*
X30253D01*
X27053D02*
X28253D01*
X25053D02*
X26453D01*
X23253D02*
X24653D01*
X21053D02*
X22653D01*
X19253D02*
X20853D01*
X17653D02*
X18453D01*
X14253D02*
X15653D01*
X12853D02*
X13853D01*
X11053D02*
X12253D01*
X9453D02*
X10453D01*
X44253Y16649D02*
X47253D01*
X40253D02*
X43453D01*
X36453D02*
X39453D01*
X34853D02*
X35853D01*
X32453D02*
X33453D01*
X27053D02*
X30453D01*
X23453D02*
X26253D01*
X19253D02*
X22453D01*
X17653D02*
X18453D01*
X12653D02*
X15653D01*
X9253D02*
X12253D01*
X44453Y16449D02*
X47053D01*
X40453D02*
X43453D01*
X36453D02*
X39253D01*
X34853D02*
X35853D01*
X32453D02*
X33453D01*
X27253D02*
X30253D01*
X23653D02*
X26253D01*
X19253D02*
X22453D01*
X17653D02*
X18453D01*
X12853D02*
X15453D01*
X9253D02*
X12053D01*
X44653Y16249D02*
X46853D01*
X40653D02*
X43453D01*
X36853D02*
X39053D01*
X34853D02*
X35853D01*
X32453D02*
X33453D01*
X27453D02*
X29853D01*
X23853D02*
X26053D01*
X19253D02*
X22253D01*
X17653D02*
X18453D01*
X13053D02*
X15253D01*
X9453D02*
X11853D01*
X45053Y16049D02*
X46453D01*
X42453D02*
X43453D01*
X40853D02*
X42253D01*
X37053D02*
X38653D01*
X34853D02*
X35853D01*
X32453D02*
X33453D01*
X27653D02*
X29453D01*
X24053D02*
X25653D01*
X20453D02*
X21853D01*
X19253D02*
X20253D01*
X17653D02*
X18453D01*
X13453D02*
X14853D01*
X9853D02*
X11453D01*
X42453Y15849D02*
X43453D01*
X42453Y15649D02*
X43453D01*
X42453Y15449D02*
X43453D01*
X42453Y15249D02*
X43453D01*
X29653D02*
X30453D01*
X42453Y15049D02*
X43453D01*
X29653D02*
X30453D01*
X42453Y14849D02*
X43453D01*
X29653D02*
X30453D01*
X42453Y14649D02*
X43453D01*
X29653D02*
X30453D01*
X42453Y14449D02*
X43453D01*
X29653D02*
X30453D01*
X42453Y14249D02*
X43453D01*
X29653D02*
X30453D01*
X42453Y14049D02*
X43453D01*
X29653D02*
X30453D01*
X42453Y13849D02*
X43453D01*
X29653D02*
X30453D01*
X42453Y13649D02*
X43453D01*
X40853D02*
X42253D01*
X37053D02*
X39053D01*
X34653D02*
X35653D01*
X33053D02*
X34453D01*
X30853D02*
X32253D01*
X29653D02*
X30453D01*
X28253D02*
X29253D01*
X26053D02*
X26853D01*
X23653D02*
X24653D01*
X20853D02*
X23053D01*
X18653D02*
X19453D01*
X16853D02*
X18453D01*
X14253D02*
X15853D01*
X40653Y13449D02*
X43453D01*
X36853D02*
X39253D01*
X32853D02*
X35653D01*
X29653D02*
X32453D01*
X28253D02*
X29253D01*
X26053D02*
X26853D01*
X23653D02*
X24653D01*
X20653D02*
X23253D01*
X16853D02*
X19453D01*
X14053D02*
X16253D01*
X40453Y13249D02*
X43453D01*
X36653D02*
X39453D01*
X32853D02*
X35653D01*
X29653D02*
X32653D01*
X28253D02*
X29253D01*
X25853D02*
X27053D01*
X23653D02*
X24653D01*
X20453D02*
X23453D01*
X16853D02*
X19453D01*
X13853D02*
X16453D01*
X40253Y13049D02*
X43453D01*
X36453D02*
X39453D01*
X33053D02*
X35653D01*
X29653D02*
X32853D01*
X28253D02*
X29053D01*
X25853D02*
X27053D01*
X23853D02*
X24853D01*
X20453D02*
X23453D01*
X17053D02*
X19453D01*
X13653D02*
X16453D01*
X42053Y12849D02*
X43453D01*
X40253D02*
X41653D01*
X38653D02*
X39253D01*
X36453D02*
X37653D01*
X34253D02*
X35653D01*
X33253D02*
X33853D01*
X31453D02*
X32853D01*
X29653D02*
X31053D01*
X28053D02*
X29053D01*
X25853D02*
X27053D01*
X23853D02*
X24853D01*
X22453D02*
X23053D01*
X20253D02*
X21453D01*
X18053D02*
X19453D01*
X17253D02*
X17653D01*
X15453D02*
X16653D01*
X13653D02*
X14853D01*
X42253Y12649D02*
X43453D01*
X40253D02*
X41253D01*
X36453D02*
X37453D01*
X34453D02*
X35653D01*
X31853D02*
X32853D01*
X29653D02*
X30853D01*
X28053D02*
X29053D01*
X25653D02*
X27253D01*
X23853D02*
X24853D01*
X20253D02*
X21253D01*
X18453D02*
X19453D01*
X15653D02*
X16653D01*
X13453D02*
X14653D01*
X42453Y12449D02*
X43453D01*
X40253D02*
X41253D01*
X36453D02*
X37253D01*
X34653D02*
X35653D01*
X31853D02*
X32853D01*
X29653D02*
X30653D01*
X28053D02*
X28853D01*
X25653D02*
X27253D01*
X24053D02*
X24853D01*
X20253D02*
X21253D01*
X18453D02*
X19453D01*
X15853D02*
X16853D01*
X13453D02*
X14453D01*
X42453Y12249D02*
X43453D01*
X40253D02*
X41053D01*
X36453D02*
X37253D01*
X34653D02*
X35653D01*
X32053D02*
X32853D01*
X29653D02*
X30653D01*
X27853D02*
X28853D01*
X25653D02*
X27253D01*
X24053D02*
X25053D01*
X20253D02*
X21253D01*
X18653D02*
X19453D01*
X15853D02*
X16853D01*
X13453D02*
X14453D01*
X42453Y12049D02*
X43453D01*
X40253D02*
X41053D01*
X36453D02*
X39053D01*
X34653D02*
X35653D01*
X32053D02*
X32853D01*
X29653D02*
X30653D01*
X27853D02*
X28853D01*
X25453D02*
X27453D01*
X24053D02*
X25053D01*
X20253D02*
X22853D01*
X18653D02*
X19453D01*
X13453D02*
X16853D01*
X42453Y11849D02*
X43453D01*
X40253D02*
X41053D01*
X36453D02*
X39253D01*
X34653D02*
X35653D01*
X32053D02*
X32853D01*
X29653D02*
X30653D01*
X27853D02*
X28653D01*
X26653D02*
X27453D01*
X25453D02*
X26253D01*
X24253D02*
X25053D01*
X20253D02*
X23253D01*
X18653D02*
X19453D01*
X13453D02*
X16853D01*
X42453Y11649D02*
X43453D01*
X40253D02*
X41053D01*
X36453D02*
X39453D01*
X34653D02*
X35653D01*
X32053D02*
X32853D01*
X29653D02*
X30653D01*
X27853D02*
X28653D01*
X26653D02*
X27453D01*
X25453D02*
X26253D01*
X24253D02*
X25053D01*
X20253D02*
X23453D01*
X18653D02*
X19453D01*
X13453D02*
X16853D01*
X42453Y11449D02*
X43453D01*
X40253D02*
X41053D01*
X36453D02*
X39653D01*
X34653D02*
X35653D01*
X32053D02*
X32853D01*
X29653D02*
X30653D01*
X26653D02*
X28653D01*
X25453D02*
X26253D01*
X24253D02*
X25253D01*
X20253D02*
X23653D01*
X18653D02*
X19453D01*
X13453D02*
X16853D01*
X42453Y11249D02*
X43453D01*
X40253D02*
X41053D01*
X38653D02*
X39653D01*
X36453D02*
X37253D01*
X34653D02*
X35653D01*
X32053D02*
X32853D01*
X29653D02*
X30653D01*
X26853D02*
X28653D01*
X24453D02*
X26053D01*
X22653D02*
X23653D01*
X20253D02*
X21253D01*
X18653D02*
X19453D01*
X15853D02*
X16853D01*
X42453Y11049D02*
X43453D01*
X40253D02*
X41053D01*
X38853D02*
X39653D01*
X36453D02*
X37253D01*
X34653D02*
X35653D01*
X31853D02*
X32853D01*
X29653D02*
X30653D01*
X26853D02*
X28453D01*
X24453D02*
X26053D01*
X22653D02*
X23653D01*
X20253D02*
X21253D01*
X18653D02*
X19453D01*
X15853D02*
X16853D01*
X42453Y10849D02*
X43453D01*
X40253D02*
X41053D01*
X38853D02*
X39653D01*
X36453D02*
X37453D01*
X34653D02*
X35653D01*
X31853D02*
X32853D01*
X29653D02*
X30653D01*
X26853D02*
X28453D01*
X24453D02*
X26053D01*
X22653D02*
X23653D01*
X20253D02*
X21253D01*
X18653D02*
X19453D01*
X15653D02*
X16653D01*
X14053D02*
X14253D01*
X42453Y10649D02*
X43453D01*
X40253D02*
X41053D01*
X38653D02*
X39653D01*
X36453D02*
X37453D01*
X34653D02*
X35653D01*
X31653D02*
X32853D01*
X29653D02*
X30853D01*
X26853D02*
X28453D01*
X24453D02*
X26053D01*
X22653D02*
X23653D01*
X20253D02*
X21453D01*
X18653D02*
X19453D01*
X15453D02*
X16653D01*
X13853D02*
X14653D01*
X42453Y10449D02*
X43453D01*
X40253D02*
X41053D01*
X36453D02*
X39653D01*
X34653D02*
X35653D01*
X29653D02*
X32853D01*
X27053D02*
X28253D01*
X24653D02*
X25853D01*
X20253D02*
X23653D01*
X18653D02*
X19453D01*
X13653D02*
X16653D01*
X42453Y10249D02*
X43453D01*
X40253D02*
X41053D01*
X36453D02*
X39653D01*
X34653D02*
X35653D01*
X29653D02*
X32653D01*
X27053D02*
X28253D01*
X24653D02*
X25853D01*
X20253D02*
X23453D01*
X18653D02*
X19453D01*
X13653D02*
X16453D01*
X42453Y10049D02*
X43453D01*
X40253D02*
X41053D01*
X36453D02*
X39453D01*
X34653D02*
X35653D01*
X29653D02*
X32453D01*
X27053D02*
X28253D01*
X24653D02*
X25853D01*
X20253D02*
X23253D01*
X18653D02*
X19453D01*
X13853D02*
X16253D01*
X42453Y9849D02*
X43453D01*
X40253D02*
X41053D01*
X37453D02*
X39253D01*
X36453D02*
X37253D01*
X34653D02*
X35653D01*
X30653D02*
X32253D01*
X29653D02*
X30453D01*
X27253D02*
X28053D01*
X24853D02*
X25653D01*
X20253D02*
X23053D01*
X18653D02*
X19453D01*
X14053D02*
X16053D01*
M02*
