G04 Layer_Physical_Order=1*
G04 Layer_Color=255*
%FSLAX25Y25*%
%MOIN*%
G70*
G01*
G75*
%ADD10R,0.03543X0.03150*%
%ADD11R,0.03150X0.03543*%
%ADD12R,0.02756X0.03543*%
%ADD13R,0.02441X0.04803*%
%ADD14R,0.03543X0.02756*%
%ADD15R,0.04803X0.02441*%
%ADD16C,0.03000*%
%ADD17C,0.02000*%
%ADD18C,0.02500*%
%ADD19R,0.03543X0.08858*%
%ADD20R,0.29921X0.03150*%
%ADD21R,0.29921X0.03347*%
%ADD22R,0.03543X0.08858*%
%ADD23R,0.13976X0.08858*%
%ADD24R,0.05906X0.05906*%
%ADD25C,0.05906*%
%ADD26C,0.05000*%
G36*
X190204Y1725D02*
X1725D01*
Y56739D01*
X190204D01*
Y1725D01*
D02*
G37*
%LPC*%
G36*
X172460Y29350D02*
X164154D01*
Y21044D01*
X172460D01*
Y29350D01*
D02*
G37*
G36*
X188208Y19113D02*
X179902D01*
Y10808D01*
X188208D01*
Y19113D01*
D02*
G37*
G36*
X184055Y39149D02*
X182971Y39007D01*
X181961Y38588D01*
X181093Y37922D01*
X180428Y37055D01*
X180009Y36045D01*
X179867Y34961D01*
X180009Y33876D01*
X180428Y32866D01*
X181093Y31999D01*
X181961Y31333D01*
X182971Y30915D01*
X184055Y30772D01*
X185139Y30915D01*
X186149Y31333D01*
X187017Y31999D01*
X187682Y32866D01*
X188101Y33876D01*
X188244Y34961D01*
X188101Y36045D01*
X187682Y37055D01*
X187017Y37922D01*
X186149Y38588D01*
X185139Y39007D01*
X184055Y39149D01*
D02*
G37*
G36*
X153365Y52381D02*
X142304D01*
Y52133D01*
X140767D01*
Y52381D01*
X135611D01*
Y50241D01*
X135558Y50114D01*
X135486Y49566D01*
X134986D01*
X134914Y50114D01*
X134861Y50241D01*
Y52381D01*
X129706D01*
Y50241D01*
X129653Y50114D01*
X129560Y49409D01*
Y45616D01*
X128990Y45046D01*
X123050D01*
Y45060D01*
Y50609D01*
X117107D01*
Y50558D01*
X115551D01*
X114928Y50476D01*
X114846Y50465D01*
X114190Y50193D01*
X113626Y49760D01*
X112051Y48186D01*
X111618Y47622D01*
X111346Y46965D01*
X111253Y46260D01*
Y45222D01*
X111077Y45046D01*
X109665D01*
Y45060D01*
Y50609D01*
X103721D01*
Y50558D01*
X100806D01*
Y50609D01*
X94863D01*
Y50558D01*
X68110D01*
X67405Y50465D01*
X66749Y50193D01*
X66185Y49760D01*
X63429Y47004D01*
X62996Y46440D01*
X62724Y45784D01*
X62631Y45079D01*
Y44350D01*
X61753D01*
Y40609D01*
Y40432D01*
X59468D01*
Y40767D01*
X53867D01*
X53820Y40828D01*
X53047Y41421D01*
X52147Y41794D01*
X51181Y41921D01*
X50215Y41794D01*
X49315Y41421D01*
X48542Y40828D01*
X47949Y40055D01*
X47580Y39164D01*
X47090Y39261D01*
Y40157D01*
X46997Y40626D01*
X46869Y40816D01*
Y41357D01*
X45984D01*
X45866Y41381D01*
X15945D01*
X15827Y41357D01*
X14745D01*
Y40276D01*
X14721Y40157D01*
Y37008D01*
X14745Y36890D01*
Y35808D01*
Y34764D01*
X14721Y34646D01*
Y32616D01*
X12401D01*
X11104Y33913D01*
X11181Y34492D01*
X11038Y35576D01*
X10620Y36586D01*
X9954Y37454D01*
X9086Y38120D01*
X8076Y38538D01*
X6992Y38681D01*
X5908Y38538D01*
X4898Y38120D01*
X4030Y37454D01*
X3365Y36586D01*
X2946Y35576D01*
X2803Y34492D01*
X2946Y33408D01*
X3365Y32398D01*
X4030Y31530D01*
X4898Y30865D01*
X5908Y30446D01*
X6992Y30304D01*
X7572Y30380D01*
X9600Y28352D01*
X9600Y28352D01*
X9600D01*
X9600Y28352D01*
X9600D01*
X9600Y28352D01*
Y28352D01*
Y28352D01*
D01*
D01*
X9600D01*
Y28352D01*
X10410Y27810D01*
X11366Y27620D01*
X14721D01*
Y25787D01*
X14745Y25669D01*
Y24587D01*
X15252D01*
X15397Y24109D01*
X15080Y23897D01*
X15040Y23838D01*
X14745D01*
Y23150D01*
X14721Y23031D01*
Y19685D01*
X14745Y19567D01*
Y18682D01*
X15286D01*
X15477Y18555D01*
X15945Y18462D01*
X45866D01*
X46334Y18555D01*
X46525Y18682D01*
X46869D01*
Y19026D01*
X46997Y19217D01*
X47090Y19685D01*
Y23031D01*
X46997Y23500D01*
X46869Y23690D01*
Y23838D01*
X46771D01*
X46731Y23897D01*
X46414Y24109D01*
X46559Y24587D01*
X46869D01*
Y25669D01*
X46893Y25787D01*
Y27875D01*
X52165D01*
X52833Y28008D01*
X53198Y27666D01*
X53158Y27362D01*
X53285Y26396D01*
X53658Y25496D01*
X54251Y24723D01*
X55024Y24130D01*
X55924Y23757D01*
X56010Y23746D01*
X55977Y23247D01*
X54260D01*
X54214Y23308D01*
X53441Y23901D01*
X52541Y24274D01*
X51575Y24401D01*
X50609Y24274D01*
X49709Y23901D01*
X48936Y23308D01*
X48343Y22535D01*
X47970Y21635D01*
X47843Y20669D01*
X47970Y19703D01*
X48343Y18803D01*
X48936Y18030D01*
X49709Y17437D01*
X50609Y17064D01*
X51575Y16937D01*
X52541Y17064D01*
X53441Y17437D01*
X54214Y18030D01*
X54260Y18091D01*
X59861D01*
Y18426D01*
X61753D01*
Y18249D01*
Y14509D01*
X62631D01*
Y11811D01*
X62724Y11106D01*
X62724Y11106D01*
X62724Y11106D01*
X62996Y10449D01*
X63429Y9885D01*
X67366Y5948D01*
X67930Y5516D01*
X68586Y5243D01*
X68669Y5233D01*
X69291Y5151D01*
X94291D01*
X94996Y5243D01*
X95653Y5516D01*
X96217Y5948D01*
X96217Y5948D01*
X96217Y5948D01*
X99760Y9492D01*
X100193Y10056D01*
X100465Y10712D01*
X100476Y10795D01*
X100555Y11398D01*
X100610D01*
Y17342D01*
X100558D01*
Y39548D01*
X100806D01*
Y45060D01*
Y45111D01*
X103721D01*
Y45060D01*
Y39548D01*
X103970D01*
Y37027D01*
X103721D01*
Y31871D01*
X105861D01*
X105988Y31818D01*
X106693Y31725D01*
X107398Y31818D01*
X107525Y31871D01*
X109665D01*
Y37027D01*
X109416D01*
Y39548D01*
X109665D01*
Y39599D01*
X112205D01*
X112910Y39692D01*
X113566Y39964D01*
X114130Y40397D01*
X115902Y42169D01*
X116335Y42733D01*
X116607Y43390D01*
X116608Y43399D01*
X117107Y43367D01*
Y39548D01*
X117355D01*
Y36830D01*
X117107D01*
Y31280D01*
Y25769D01*
X117355D01*
Y22854D01*
X117107D01*
Y17698D01*
X119247D01*
X119374Y17645D01*
X120079Y17552D01*
X120784Y17645D01*
X120911Y17698D01*
X123050D01*
Y22854D01*
X122802D01*
Y25769D01*
X123050D01*
Y25820D01*
X132028D01*
Y24942D01*
X133354D01*
X133545Y24480D01*
X132683Y23617D01*
X132141Y22806D01*
X131951Y21850D01*
Y18228D01*
X132028Y17839D01*
Y14627D01*
X136869D01*
Y17839D01*
X136947Y18228D01*
Y20816D01*
X137058Y20927D01*
X139509D01*
Y18618D01*
X139431Y18228D01*
Y13602D01*
X139351D01*
Y7658D01*
X144507D01*
X144507Y7658D01*
Y7658D01*
X144591Y7700D01*
X144984Y7398D01*
X145885Y7025D01*
X146850Y6898D01*
X147816Y7025D01*
X148716Y7398D01*
X149489Y7991D01*
X150082Y8764D01*
X150455Y9664D01*
X150582Y10630D01*
X150455Y11596D01*
X150082Y12496D01*
X149489Y13269D01*
X148716Y13862D01*
X147816Y14235D01*
X146850Y14362D01*
X145885Y14235D01*
X144984Y13862D01*
X144876Y13778D01*
X144427Y13999D01*
Y18228D01*
X144350Y18618D01*
Y20927D01*
X153131D01*
Y20650D01*
X159074D01*
Y26200D01*
X158600D01*
Y39173D01*
X158442Y39971D01*
X158410Y40129D01*
X157869Y40940D01*
X153089Y45720D01*
Y46438D01*
X153365D01*
Y52381D01*
D02*
G37*
%LPD*%
G36*
X135558Y44965D02*
X135830Y44308D01*
X136263Y43744D01*
X138822Y41185D01*
X139386Y40752D01*
X140043Y40480D01*
X140748Y40387D01*
X140915D01*
X140976Y40207D01*
X140935Y40124D01*
X140691Y39783D01*
X135611D01*
Y33839D01*
X135691D01*
Y32145D01*
X132028D01*
Y31267D01*
X123050D01*
Y31280D01*
Y36830D01*
X122802D01*
Y39548D01*
X123050D01*
Y39599D01*
X130118D01*
X130823Y39692D01*
X131480Y39964D01*
X132044Y40397D01*
X132044Y40397D01*
X132044Y40397D01*
X134209Y42562D01*
X134642Y43126D01*
X134914Y43783D01*
X134925Y43865D01*
X135007Y44488D01*
Y45333D01*
X135506Y45365D01*
X135558Y44965D01*
D02*
G37*
G36*
X94863Y45060D02*
Y39548D01*
X95111D01*
Y17342D01*
X95060D01*
Y12494D01*
X93163Y10597D01*
X70419D01*
X68078Y12939D01*
Y14509D01*
X68956D01*
Y15998D01*
X69418Y16190D01*
X70264Y15343D01*
X70264D01*
X70264Y15343D01*
X70264D01*
X70264Y15343D01*
Y15343D01*
X70264Y15343D01*
Y15343D01*
X70992Y14857D01*
X71850Y14686D01*
X72068D01*
Y14509D01*
X79271D01*
Y19350D01*
X72912D01*
Y21989D01*
X79271D01*
Y22166D01*
X81477D01*
Y21832D01*
X87275D01*
X87322Y21771D01*
X88095Y21178D01*
X88995Y20805D01*
X89961Y20677D01*
X90926Y20805D01*
X91827Y21178D01*
X92599Y21771D01*
X93193Y22544D01*
X93565Y23444D01*
X93693Y24409D01*
X93565Y25375D01*
X93193Y26275D01*
X92599Y27048D01*
X91827Y27641D01*
X90926Y28014D01*
X89961Y28141D01*
X88995Y28014D01*
X88095Y27641D01*
X87322Y27048D01*
X87275Y26987D01*
X81477D01*
Y26653D01*
X79271D01*
Y26830D01*
X72068D01*
Y25459D01*
X71606Y25267D01*
X70877Y25996D01*
X70150Y26482D01*
X69291Y26653D01*
X68956D01*
Y26830D01*
X61753D01*
Y26653D01*
X60907D01*
X60578Y27029D01*
X60622Y27362D01*
X60495Y28328D01*
X60122Y29228D01*
X59529Y30001D01*
X58756Y30594D01*
X57856Y30967D01*
X56890Y31094D01*
X56700Y31480D01*
X57425Y32206D01*
X61753D01*
Y32028D01*
X68956D01*
Y33124D01*
X69418Y33315D01*
X69871Y32863D01*
X70598Y32377D01*
X71457Y32206D01*
X72068D01*
Y32028D01*
X79271D01*
Y36869D01*
X72716D01*
Y39509D01*
X79271D01*
Y39686D01*
X81477D01*
Y39351D01*
X87078D01*
X87125Y39290D01*
X87898Y38697D01*
X88798Y38324D01*
X89764Y38197D01*
X90730Y38324D01*
X91630Y38697D01*
X92403Y39290D01*
X92996Y40063D01*
X93369Y40963D01*
X93496Y41929D01*
X93369Y42895D01*
X92996Y43795D01*
X92403Y44568D01*
X92312Y44638D01*
X92472Y45111D01*
X94863D01*
Y45060D01*
D02*
G37*
D10*
X156102Y17913D02*
D03*
Y23425D02*
D03*
X120079Y28543D02*
D03*
Y34055D02*
D03*
Y42323D02*
D03*
Y47835D02*
D03*
X106693Y42323D02*
D03*
Y47835D02*
D03*
X97835Y42323D02*
D03*
Y47835D02*
D03*
X43898Y38583D02*
D03*
Y33071D02*
D03*
X35827Y26969D02*
D03*
Y21457D02*
D03*
X25394Y26969D02*
D03*
Y21457D02*
D03*
X17717Y33071D02*
D03*
Y38583D02*
D03*
D11*
X145079Y49409D02*
D03*
X150591D02*
D03*
X97835Y14370D02*
D03*
X103347D02*
D03*
D12*
X138189Y49409D02*
D03*
X132283D02*
D03*
X138189Y36811D02*
D03*
X132283D02*
D03*
X141929Y10630D02*
D03*
X136024D02*
D03*
D13*
X141929Y28543D02*
D03*
X138189D02*
D03*
X134449D02*
D03*
Y18228D02*
D03*
X141929D02*
D03*
D14*
X120079Y14370D02*
D03*
Y20276D02*
D03*
X106693Y28543D02*
D03*
Y34449D02*
D03*
X84449Y41929D02*
D03*
Y36024D02*
D03*
X56496Y38189D02*
D03*
Y44094D02*
D03*
X84449Y24409D02*
D03*
Y18504D02*
D03*
X56890Y20669D02*
D03*
Y14764D02*
D03*
X43898Y27165D02*
D03*
Y21260D02*
D03*
X35827Y32874D02*
D03*
Y38780D02*
D03*
X25394Y32874D02*
D03*
Y38780D02*
D03*
X17717Y21260D02*
D03*
Y27165D02*
D03*
D15*
X65354Y41929D02*
D03*
Y38189D02*
D03*
Y34449D02*
D03*
X75669D02*
D03*
Y41929D02*
D03*
X65354Y24409D02*
D03*
Y20669D02*
D03*
Y16929D02*
D03*
X75669D02*
D03*
Y24409D02*
D03*
D16*
X120079Y28543D02*
X133071D01*
X10630Y13976D02*
X56890D01*
X127559Y36811D02*
X131496D01*
X174291Y15197D02*
X184055Y24961D01*
X168307Y15197D02*
X174291D01*
X156102Y4921D02*
X158031D01*
X137598D02*
X156102D01*
X156102Y4921D02*
X156102Y4921D01*
X156102Y4921D02*
Y17913D01*
X121063Y10630D02*
X135236D01*
X158031Y4921D02*
X168307Y15197D01*
X136024Y6496D02*
X137598Y4921D01*
X136024Y6496D02*
Y10630D01*
X138189Y49409D02*
X138189Y49409D01*
X145079D01*
X142913Y28543D02*
X146260D01*
X149409Y31693D01*
Y39173D01*
X145472Y43110D02*
X149409Y39173D01*
X140748Y43110D02*
X145472D01*
X138189Y45669D02*
X140748Y43110D01*
X138189Y45669D02*
Y49409D01*
X114961Y14370D02*
X120079D01*
X112205D02*
X114961D01*
X139173Y36811D02*
X143110D01*
X132283Y44488D02*
Y49409D01*
X130118Y42323D02*
X132283Y44488D01*
X120079Y42323D02*
X130118D01*
X143110Y10630D02*
X146850D01*
X120079Y11614D02*
X121063Y10630D01*
X120079Y11614D02*
Y14370D01*
X120079Y14370D02*
X120079Y14370D01*
X112205D02*
X112205Y14370D01*
X103347Y14370D02*
X112205D01*
X120079Y20276D02*
Y28543D01*
Y34055D02*
Y42323D01*
X106693D02*
X112205D01*
X113976Y44094D01*
Y46260D01*
X115551Y47835D01*
X120079D01*
X6992Y17614D02*
X10630Y13976D01*
X6992Y17614D02*
Y24492D01*
X84449Y31299D02*
X84449Y31299D01*
Y36024D01*
X103347Y14370D02*
Y20669D01*
X106693Y24016D01*
Y27559D01*
Y34449D02*
Y42323D01*
X97835Y47835D02*
X106693D01*
X103347Y9252D02*
X103347Y9252D01*
Y14370D01*
X69291Y7874D02*
X94291D01*
X97835Y11417D01*
Y42323D01*
X65354Y11811D02*
X69291Y7874D01*
X65354Y11811D02*
Y16142D01*
X68110Y47835D02*
X97835D01*
X65354Y45079D02*
X68110Y47835D01*
X65354Y42913D02*
Y45079D01*
X56496Y44882D02*
Y49213D01*
X84449Y13583D02*
Y17520D01*
X56890Y9843D02*
Y13976D01*
D17*
X51181Y38189D02*
X65354D01*
X56496Y34449D02*
X65354D01*
X52165Y30118D02*
X56496Y34449D01*
X43898Y30118D02*
X52165D01*
X65354Y41929D02*
X69095D01*
X59842Y24409D02*
X65354D01*
X56890Y27362D02*
X59842Y24409D01*
X71457Y34449D02*
X75669D01*
X70472Y35433D02*
X71457Y34449D01*
X70472Y35433D02*
Y40551D01*
X69095Y41929D02*
X70472Y40551D01*
X89764Y41929D02*
X89764Y41929D01*
X84449Y41929D02*
X89764D01*
X84449Y41929D02*
X84449Y41929D01*
X75669Y41929D02*
X84449D01*
X71850Y16929D02*
X75669D01*
X70669Y18110D02*
X71850Y16929D01*
X70669Y18110D02*
Y23031D01*
X69291Y24409D02*
X70669Y23031D01*
X65354Y24409D02*
X69291D01*
X84449Y13583D02*
X84449Y13583D01*
X89961Y24409D02*
X89961Y24409D01*
X84449Y24409D02*
X89961D01*
X84449Y24409D02*
X84449Y24409D01*
X75669Y24409D02*
X84449D01*
X56890Y9843D02*
X56890Y9843D01*
Y20669D02*
X65354D01*
X51575D02*
X56890D01*
X43701Y21457D02*
X43898Y21260D01*
X35827Y32874D02*
X35827Y32874D01*
X43701Y38780D02*
X43898Y38583D01*
X25394Y26969D02*
X25394Y26969D01*
X25197Y38583D02*
X25394Y38780D01*
X25197Y21260D02*
X25394Y21457D01*
X17717Y27165D02*
X17717Y27165D01*
X17717Y33071D02*
X17717Y33071D01*
D18*
X156102Y23425D02*
Y39173D01*
X150591Y44685D02*
X156102Y39173D01*
X136024Y23425D02*
X156102D01*
X150591Y44685D02*
Y49409D01*
X141929Y10630D02*
Y18228D01*
X134449Y21850D02*
X136024Y23425D01*
X134449Y18228D02*
Y21850D01*
X138189Y28543D02*
Y36811D01*
X11366Y30118D02*
X17717D01*
X6992Y34492D02*
X11366Y30118D01*
D19*
X43898Y30217D02*
D03*
D20*
X30906Y38583D02*
D03*
D21*
Y21358D02*
D03*
D22*
X17717Y30217D02*
D03*
D23*
X30610Y29823D02*
D03*
D24*
X184055Y14961D02*
D03*
X168307Y25197D02*
D03*
X6992Y24492D02*
D03*
D25*
X184055Y24961D02*
D03*
Y34961D02*
D03*
X168307Y15197D02*
D03*
X6992Y34492D02*
D03*
D26*
X127559Y36811D02*
D03*
X149409Y31693D02*
D03*
X143110Y36811D02*
D03*
X114961Y14370D02*
D03*
X146850Y10630D02*
D03*
X103347Y9252D02*
D03*
X56890Y27362D02*
D03*
X89764Y41929D02*
D03*
X84449Y31299D02*
D03*
X51181Y38189D02*
D03*
X56496Y49213D02*
D03*
X84449Y13583D02*
D03*
X89961Y24409D02*
D03*
X56890Y9843D02*
D03*
X51575Y20669D02*
D03*
X30512Y29921D02*
D03*
M02*
