G04 Layer_Color=8388736*
%FSLAX25Y25*%
%MOIN*%
G70*
G01*
G75*
%ADD30R,0.04343X0.03950*%
%ADD31R,0.03950X0.04343*%
%ADD32R,0.03556X0.04343*%
%ADD33R,0.03241X0.05603*%
%ADD34R,0.04343X0.03556*%
%ADD35R,0.05603X0.03241*%
%ADD36R,0.06706X0.06706*%
%ADD37C,0.06706*%
%ADD38C,0.05800*%
D30*
X156102Y17913D02*
D03*
Y23425D02*
D03*
X120079Y28543D02*
D03*
Y34055D02*
D03*
Y42323D02*
D03*
Y47835D02*
D03*
X106693Y42323D02*
D03*
Y47835D02*
D03*
X97835Y42323D02*
D03*
Y47835D02*
D03*
X43898Y38583D02*
D03*
Y33071D02*
D03*
X35827Y26969D02*
D03*
Y21457D02*
D03*
X25394Y26969D02*
D03*
Y21457D02*
D03*
X17717Y33071D02*
D03*
Y38583D02*
D03*
D31*
X145079Y49409D02*
D03*
X150591D02*
D03*
X97835Y14370D02*
D03*
X103347D02*
D03*
D32*
X138189Y49409D02*
D03*
X132283D02*
D03*
X138189Y36811D02*
D03*
X132283D02*
D03*
X141929Y10630D02*
D03*
X136024D02*
D03*
D33*
X141929Y28543D02*
D03*
X138189D02*
D03*
X134449D02*
D03*
Y18228D02*
D03*
X141929D02*
D03*
D34*
X120079Y14370D02*
D03*
Y20276D02*
D03*
X106693Y28543D02*
D03*
Y34449D02*
D03*
X84449Y41929D02*
D03*
Y36024D02*
D03*
X56496Y38189D02*
D03*
Y44094D02*
D03*
X84449Y24409D02*
D03*
Y18504D02*
D03*
X56890Y20669D02*
D03*
Y14764D02*
D03*
X43898Y27165D02*
D03*
Y21260D02*
D03*
X35827Y32874D02*
D03*
Y38780D02*
D03*
X25394Y32874D02*
D03*
Y38780D02*
D03*
X17717Y21260D02*
D03*
Y27165D02*
D03*
D35*
X65354Y41929D02*
D03*
Y38189D02*
D03*
Y34449D02*
D03*
X75669D02*
D03*
Y41929D02*
D03*
X65354Y24409D02*
D03*
Y20669D02*
D03*
Y16929D02*
D03*
X75669D02*
D03*
Y24409D02*
D03*
D36*
X184055Y14961D02*
D03*
X168307Y25197D02*
D03*
X6992Y24492D02*
D03*
D37*
X184055Y24961D02*
D03*
Y34961D02*
D03*
X168307Y15197D02*
D03*
X6992Y34492D02*
D03*
D38*
X127559Y36811D02*
D03*
X149409Y31693D02*
D03*
X143110Y36811D02*
D03*
X114961Y14370D02*
D03*
X146850Y10630D02*
D03*
X103347Y9252D02*
D03*
X56890Y27362D02*
D03*
X89764Y41929D02*
D03*
X84449Y31299D02*
D03*
X51181Y38189D02*
D03*
X56496Y49213D02*
D03*
X84449Y13583D02*
D03*
X89961Y24409D02*
D03*
X56890Y9843D02*
D03*
X51575Y20669D02*
D03*
X30512Y29921D02*
D03*
M02*
