M48
;Layer_Color=9474304
;FILE_FORMAT=2:5
INCH,TZ
;TYPE=PLATED
T1F00S00C0.02800
T2F00S00C0.03543
%
T01
X30512Y29921
X51181Y38189
X56496Y49213
X56890Y27362
X51575Y20669
X56890Y9843
X84449Y13583
X89961Y24409
X84449Y31299
X89764Y41929
X127559Y36811
X143110
X149409Y31693
X146850Y10630
X114961Y14370
X103347Y9252
T02
X184055Y14961
Y24961
Y34961
X168307Y25197
Y15197
X6992Y24492
Y34492
M30
