ISO-10303-21;
HEADER;
FILE_DESCRIPTION(('Open CASCADE Model'),'2;1');
FILE_NAME('Open CASCADE Shape Model','2026-10-02T16:38:11',('Author'),(
    'Open CASCADE'),'Open CASCADE STEP processor 7.9','Open CASCADE 7.9'
  ,'Unknown');
FILE_SCHEMA(('AUTOMOTIVE_DESIGN { 1 0 10303 214 1 1 1 1 }'));
ENDSEC;
DATA;
#1 = APPLICATION_PROTOCOL_DEFINITION('international standard',
  'automotive_design',2000,#2);
#2 = APPLICATION_CONTEXT(
  'core data for automotive mechanical design processes');
#3 = SHAPE_DEFINITION_REPRESENTATION(#4,#10);
#4 = PRODUCT_DEFINITION_SHAPE('','',#5);
#5 = PRODUCT_DEFINITION('design','',#6,#9);
#6 = PRODUCT_DEFINITION_FORMATION('','',#7);
#7 = PRODUCT('Keystone_5000_TestPoint','Keystone_5000_TestPoint','',(#8)
  );
#8 = PRODUCT_CONTEXT('',#2,'mechanical');
#9 = PRODUCT_DEFINITION_CONTEXT('part definition',#2,'design');
#10 = SHAPE_REPRESENTATION('',(#11,#15,#19),#23);
#11 = AXIS2_PLACEMENT_3D('',#12,#13,#14);
#12 = CARTESIAN_POINT('',(0.,0.,0.));
#13 = DIRECTION('',(0.,0.,1.));
#14 = DIRECTION('',(1.,0.,-0.));
#15 = AXIS2_PLACEMENT_3D('',#16,#17,#18);
#16 = CARTESIAN_POINT('',(0.,0.,0.));
#17 = DIRECTION('',(0.,0.,1.));
#18 = DIRECTION('',(1.,0.,-0.));
#19 = AXIS2_PLACEMENT_3D('',#20,#21,#22);
#20 = CARTESIAN_POINT('',(0.,0.,0.));
#21 = DIRECTION('',(0.,0.,1.));
#22 = DIRECTION('',(1.,0.,-0.));
#23 = ( GEOMETRIC_REPRESENTATION_CONTEXT(3) 
GLOBAL_UNCERTAINTY_ASSIGNED_CONTEXT((#27)) GLOBAL_UNIT_ASSIGNED_CONTEXT(
(#24,#25,#26)) REPRESENTATION_CONTEXT('Context #1',
  '3D Context with UNIT and UNCERTAINTY') );
#24 = ( LENGTH_UNIT() NAMED_UNIT(*) SI_UNIT(.MILLI.,.METRE.) );
#25 = ( NAMED_UNIT(*) PLANE_ANGLE_UNIT() SI_UNIT($,.RADIAN.) );
#26 = ( NAMED_UNIT(*) SI_UNIT($,.STERADIAN.) SOLID_ANGLE_UNIT() );
#27 = UNCERTAINTY_MEASURE_WITH_UNIT(LENGTH_MEASURE(1.E-07),#24,
  'distance_accuracy_value','confusion accuracy');
#28 = PRODUCT_RELATED_PRODUCT_CATEGORY('part',$,(#7));
#29 = SHAPE_DEFINITION_REPRESENTATION(#30,#36);
#30 = PRODUCT_DEFINITION_SHAPE('','',#31);
#31 = PRODUCT_DEFINITION('design','',#32,#35);
#32 = PRODUCT_DEFINITION_FORMATION('','',#33);
#33 = PRODUCT('Keystone_5000_TestPoint_0','Keystone_5000_TestPoint_0',''
  ,(#34));
#34 = PRODUCT_CONTEXT('',#2,'mechanical');
#35 = PRODUCT_DEFINITION_CONTEXT('part definition',#2,'design');
#36 = ADVANCED_BREP_SHAPE_REPRESENTATION('',(#11,#37),#143);
#37 = MANIFOLD_SOLID_BREP('',#38);
#38 = CLOSED_SHELL('',(#39,#135,#139));
#39 = ADVANCED_FACE('',(#40),#54,.T.);
#40 = FACE_BOUND('',#41,.T.);
#41 = EDGE_LOOP('',(#42,#72,#103,#104));
#42 = ORIENTED_EDGE('',*,*,#43,.T.);
#43 = EDGE_CURVE('',#44,#46,#48,.T.);
#44 = VERTEX_POINT('',#45);
#45 = CARTESIAN_POINT('',(1.2,0.,0.));
#46 = VERTEX_POINT('',#47);
#47 = CARTESIAN_POINT('',(1.2,0.,1.6));
#48 = SEAM_CURVE('',#49,(#53,#65),.PCURVE_S1.);
#49 = LINE('',#50,#51);
#50 = CARTESIAN_POINT('',(1.2,0.,0.));
#51 = VECTOR('',#52,1.);
#52 = DIRECTION('',(-0.,-0.,1.));
#53 = PCURVE('',#54,#59);
#54 = CYLINDRICAL_SURFACE('',#55,1.2);
#55 = AXIS2_PLACEMENT_3D('',#56,#57,#58);
#56 = CARTESIAN_POINT('',(0.,0.,0.));
#57 = DIRECTION('',(-0.,0.,-1.));
#58 = DIRECTION('',(1.,-0.,-0.));
#59 = DEFINITIONAL_REPRESENTATION('',(#60),#64);
#60 = LINE('',#61,#62);
#61 = CARTESIAN_POINT('',(0.,0.));
#62 = VECTOR('',#63,1.);
#63 = DIRECTION('',(0.,-1.));
#64 = ( GEOMETRIC_REPRESENTATION_CONTEXT(2) 
PARAMETRIC_REPRESENTATION_CONTEXT() REPRESENTATION_CONTEXT('2D SPACE',''
  ) );
#65 = PCURVE('',#54,#66);
#66 = DEFINITIONAL_REPRESENTATION('',(#67),#71);
#67 = LINE('',#68,#69);
#68 = CARTESIAN_POINT('',(6.28318530718,0.));
#69 = VECTOR('',#70,1.);
#70 = DIRECTION('',(0.,-1.));
#71 = ( GEOMETRIC_REPRESENTATION_CONTEXT(2) 
PARAMETRIC_REPRESENTATION_CONTEXT() REPRESENTATION_CONTEXT('2D SPACE',''
  ) );
#72 = ORIENTED_EDGE('',*,*,#73,.T.);
#73 = EDGE_CURVE('',#46,#46,#74,.T.);
#74 = SURFACE_CURVE('',#75,(#80,#87),.PCURVE_S1.);
#75 = CIRCLE('',#76,1.2);
#76 = AXIS2_PLACEMENT_3D('',#77,#78,#79);
#77 = CARTESIAN_POINT('',(0.,0.,1.6));
#78 = DIRECTION('',(0.,0.,-1.));
#79 = DIRECTION('',(1.,-0.,-0.));
#80 = PCURVE('',#54,#81);
#81 = DEFINITIONAL_REPRESENTATION('',(#82),#86);
#82 = LINE('',#83,#84);
#83 = CARTESIAN_POINT('',(0.,-1.6));
#84 = VECTOR('',#85,1.);
#85 = DIRECTION('',(1.,0.));
#86 = ( GEOMETRIC_REPRESENTATION_CONTEXT(2) 
PARAMETRIC_REPRESENTATION_CONTEXT() REPRESENTATION_CONTEXT('2D SPACE',''
  ) );
#87 = PCURVE('',#88,#93);
#88 = PLANE('',#89);
#89 = AXIS2_PLACEMENT_3D('',#90,#91,#92);
#90 = CARTESIAN_POINT('',(-1.424416804729E-16,-2.223496827053E-17,1.6));
#91 = DIRECTION('',(-0.,-0.,1.));
#92 = DIRECTION('',(-1.,0.,0.));
#93 = DEFINITIONAL_REPRESENTATION('',(#94),#102);
#94 = ( BOUNDED_CURVE() B_SPLINE_CURVE(2,(#95,#96,#97,#98,#99,#100,#101)
,.UNSPECIFIED.,.T.,.F.) B_SPLINE_CURVE_WITH_KNOTS((1,2,2,2,2,1),(
    -2.094395102393,0.,2.094395102393,4.188790204786,6.28318530718,
8.377580409573),.UNSPECIFIED.) CURVE() GEOMETRIC_REPRESENTATION_ITEM() 
RATIONAL_B_SPLINE_CURVE((1.,0.5,1.,0.5,1.,0.5,1.)) REPRESENTATION_ITEM(
  '') );
#95 = CARTESIAN_POINT('',(-1.2,-2.223496827053E-17));
#96 = CARTESIAN_POINT('',(-1.2,2.078460969083));
#97 = CARTESIAN_POINT('',(0.6,1.039230484541));
#98 = CARTESIAN_POINT('',(2.4,2.716802635248E-16));
#99 = CARTESIAN_POINT('',(0.6,-1.039230484541));
#100 = CARTESIAN_POINT('',(-1.2,-2.078460969083));
#101 = CARTESIAN_POINT('',(-1.2,-2.223496827053E-17));
#102 = ( GEOMETRIC_REPRESENTATION_CONTEXT(2) 
PARAMETRIC_REPRESENTATION_CONTEXT() REPRESENTATION_CONTEXT('2D SPACE',''
  ) );
#103 = ORIENTED_EDGE('',*,*,#43,.F.);
#104 = ORIENTED_EDGE('',*,*,#105,.F.);
#105 = EDGE_CURVE('',#44,#44,#106,.T.);
#106 = SURFACE_CURVE('',#107,(#112,#119),.PCURVE_S1.);
#107 = CIRCLE('',#108,1.2);
#108 = AXIS2_PLACEMENT_3D('',#109,#110,#111);
#109 = CARTESIAN_POINT('',(0.,0.,0.));
#110 = DIRECTION('',(0.,0.,-1.));
#111 = DIRECTION('',(1.,-0.,-0.));
#112 = PCURVE('',#54,#113);
#113 = DEFINITIONAL_REPRESENTATION('',(#114),#118);
#114 = LINE('',#115,#116);
#115 = CARTESIAN_POINT('',(0.,0.));
#116 = VECTOR('',#117,1.);
#117 = DIRECTION('',(1.,0.));
#118 = ( GEOMETRIC_REPRESENTATION_CONTEXT(2) 
PARAMETRIC_REPRESENTATION_CONTEXT() REPRESENTATION_CONTEXT('2D SPACE',''
  ) );
#119 = PCURVE('',#120,#125);
#120 = PLANE('',#121);
#121 = AXIS2_PLACEMENT_3D('',#122,#123,#124);
#122 = CARTESIAN_POINT('',(-1.424416804729E-16,-2.223496827053E-17,0.));
#123 = DIRECTION('',(-0.,-0.,1.));
#124 = DIRECTION('',(-1.,0.,0.));
#125 = DEFINITIONAL_REPRESENTATION('',(#126),#134);
#126 = ( BOUNDED_CURVE() B_SPLINE_CURVE(2,(#127,#128,#129,#130,#131,#132
,#133),.UNSPECIFIED.,.T.,.F.) B_SPLINE_CURVE_WITH_KNOTS((1,2,2,2,2,1),(
    -2.094395102393,0.,2.094395102393,4.188790204786,6.28318530718,
8.377580409573),.UNSPECIFIED.) CURVE() GEOMETRIC_REPRESENTATION_ITEM() 
RATIONAL_B_SPLINE_CURVE((1.,0.5,1.,0.5,1.,0.5,1.)) REPRESENTATION_ITEM(
  '') );
#127 = CARTESIAN_POINT('',(-1.2,-2.223496827053E-17));
#128 = CARTESIAN_POINT('',(-1.2,2.078460969083));
#129 = CARTESIAN_POINT('',(0.6,1.039230484541));
#130 = CARTESIAN_POINT('',(2.4,2.716802635248E-16));
#131 = CARTESIAN_POINT('',(0.6,-1.039230484541));
#132 = CARTESIAN_POINT('',(-1.2,-2.078460969083));
#133 = CARTESIAN_POINT('',(-1.2,-2.223496827053E-17));
#134 = ( GEOMETRIC_REPRESENTATION_CONTEXT(2) 
PARAMETRIC_REPRESENTATION_CONTEXT() REPRESENTATION_CONTEXT('2D SPACE',''
  ) );
#135 = ADVANCED_FACE('',(#136),#120,.F.);
#136 = FACE_BOUND('',#137,.T.);
#137 = EDGE_LOOP('',(#138));
#138 = ORIENTED_EDGE('',*,*,#105,.T.);
#139 = ADVANCED_FACE('',(#140),#88,.T.);
#140 = FACE_BOUND('',#141,.F.);
#141 = EDGE_LOOP('',(#142));
#142 = ORIENTED_EDGE('',*,*,#73,.T.);
#143 = ( GEOMETRIC_REPRESENTATION_CONTEXT(3) 
GLOBAL_UNCERTAINTY_ASSIGNED_CONTEXT((#147)) GLOBAL_UNIT_ASSIGNED_CONTEXT
((#144,#145,#146)) REPRESENTATION_CONTEXT('Context #1',
  '3D Context with UNIT and UNCERTAINTY') );
#144 = ( LENGTH_UNIT() NAMED_UNIT(*) SI_UNIT(.MILLI.,.METRE.) );
#145 = ( NAMED_UNIT(*) PLANE_ANGLE_UNIT() SI_UNIT($,.RADIAN.) );
#146 = ( NAMED_UNIT(*) SI_UNIT($,.STERADIAN.) SOLID_ANGLE_UNIT() );
#147 = UNCERTAINTY_MEASURE_WITH_UNIT(LENGTH_MEASURE(1.E-07),#144,
  'distance_accuracy_value','confusion accuracy');
#148 = CONTEXT_DEPENDENT_SHAPE_REPRESENTATION(#149,#151);
#149 = ( REPRESENTATION_RELATIONSHIP('','',#36,#10) 
REPRESENTATION_RELATIONSHIP_WITH_TRANSFORMATION(#150) 
SHAPE_REPRESENTATION_RELATIONSHIP() );
#150 = ITEM_DEFINED_TRANSFORMATION('','',#11,#15);
#151 = PRODUCT_DEFINITION_SHAPE('Placement','Placement of an item',#152
  );
#152 = NEXT_ASSEMBLY_USAGE_OCCURRENCE('7','Keystone_5000_TestPoint_0',''
  ,#5,#31,$);
#153 = PRODUCT_RELATED_PRODUCT_CATEGORY('part',$,(#33));
#154 = SHAPE_DEFINITION_REPRESENTATION(#155,#161);
#155 = PRODUCT_DEFINITION_SHAPE('','',#156);
#156 = PRODUCT_DEFINITION('design','',#157,#160);
#157 = PRODUCT_DEFINITION_FORMATION('','',#158);
#158 = PRODUCT('Keystone_5000_TestPoint_1','Keystone_5000_TestPoint_1',
  '',(#159));
#159 = PRODUCT_CONTEXT('',#2,'mechanical');
#160 = PRODUCT_DEFINITION_CONTEXT('part definition',#2,'design');
#161 = ADVANCED_BREP_SHAPE_REPRESENTATION('',(#11,#162),#906);
#162 = MANIFOLD_SOLID_BREP('',#163);
#163 = CLOSED_SHELL('',(#164,#341,#466,#660,#725,#753,#818,#825,#829,
    #879));
#164 = ADVANCED_FACE('',(#165),#180,.T.);
#165 = FACE_BOUND('',#166,.T.);
#166 = EDGE_LOOP('',(#167,#203,#231,#264));
#167 = ORIENTED_EDGE('',*,*,#168,.F.);
#168 = EDGE_CURVE('',#169,#171,#173,.T.);
#169 = VERTEX_POINT('',#170);
#170 = CARTESIAN_POINT('',(1.15,0.,3.4));
#171 = VERTEX_POINT('',#172);
#172 = CARTESIAN_POINT('',(-0.25,0.,2.277502783968));
#173 = SURFACE_CURVE('',#174,(#179,#191),.PCURVE_S1.);
#174 = CIRCLE('',#175,1.15);
#175 = AXIS2_PLACEMENT_3D('',#176,#177,#178);
#176 = CARTESIAN_POINT('',(0.,0.,3.4));
#177 = DIRECTION('',(-0.,-1.,-0.));
#178 = DIRECTION('',(1.,-0.,-0.));
#179 = PCURVE('',#180,#185);
#180 = CYLINDRICAL_SURFACE('',#181,1.15);
#181 = AXIS2_PLACEMENT_3D('',#182,#183,#184);
#182 = CARTESIAN_POINT('',(0.,0.,3.4));
#183 = DIRECTION('',(-0.,-1.,-0.));
#184 = DIRECTION('',(1.,-0.,-0.));
#185 = DEFINITIONAL_REPRESENTATION('',(#186),#190);
#186 = LINE('',#187,#188);
#187 = CARTESIAN_POINT('',(0.,0.));
#188 = VECTOR('',#189,1.);
#189 = DIRECTION('',(1.,0.));
#190 = ( GEOMETRIC_REPRESENTATION_CONTEXT(2) 
PARAMETRIC_REPRESENTATION_CONTEXT() REPRESENTATION_CONTEXT('2D SPACE',''
  ) );
#191 = PCURVE('',#192,#197);
#192 = CYLINDRICAL_SURFACE('',#193,1.15);
#193 = AXIS2_PLACEMENT_3D('',#194,#195,#196);
#194 = CARTESIAN_POINT('',(0.,0.,3.4));
#195 = DIRECTION('',(-0.,1.,-0.));
#196 = DIRECTION('',(1.,-0.,-0.));
#197 = DEFINITIONAL_REPRESENTATION('',(#198),#202);
#198 = LINE('',#199,#200);
#199 = CARTESIAN_POINT('',(-0.,0.));
#200 = VECTOR('',#201,1.);
#201 = DIRECTION('',(-1.,0.));
#202 = ( GEOMETRIC_REPRESENTATION_CONTEXT(2) 
PARAMETRIC_REPRESENTATION_CONTEXT() REPRESENTATION_CONTEXT('2D SPACE',''
  ) );
#203 = ORIENTED_EDGE('',*,*,#204,.T.);
#204 = EDGE_CURVE('',#169,#205,#207,.T.);
#205 = VERTEX_POINT('',#206);
#206 = CARTESIAN_POINT('',(1.15,0.25,3.4));
#207 = SURFACE_CURVE('',#208,(#212,#219),.PCURVE_S1.);
#208 = LINE('',#209,#210);
#209 = CARTESIAN_POINT('',(1.15,0.,3.4));
#210 = VECTOR('',#211,1.);
#211 = DIRECTION('',(-0.,1.,-0.));
#212 = PCURVE('',#180,#213);
#213 = DEFINITIONAL_REPRESENTATION('',(#214),#218);
#214 = LINE('',#215,#216);
#215 = CARTESIAN_POINT('',(0.,0.));
#216 = VECTOR('',#217,1.);
#217 = DIRECTION('',(0.,-1.));
#218 = ( GEOMETRIC_REPRESENTATION_CONTEXT(2) 
PARAMETRIC_REPRESENTATION_CONTEXT() REPRESENTATION_CONTEXT('2D SPACE',''
  ) );
#219 = PCURVE('',#220,#225);
#220 = CYLINDRICAL_SURFACE('',#221,1.15);
#221 = AXIS2_PLACEMENT_3D('',#222,#223,#224);
#222 = CARTESIAN_POINT('',(0.,0.,3.4));
#223 = DIRECTION('',(-0.,-1.,-0.));
#224 = DIRECTION('',(1.,-0.,-0.));
#225 = DEFINITIONAL_REPRESENTATION('',(#226),#230);
#226 = LINE('',#227,#228);
#227 = CARTESIAN_POINT('',(6.28318530718,0.));
#228 = VECTOR('',#229,1.);
#229 = DIRECTION('',(0.,-1.));
#230 = ( GEOMETRIC_REPRESENTATION_CONTEXT(2) 
PARAMETRIC_REPRESENTATION_CONTEXT() REPRESENTATION_CONTEXT('2D SPACE',''
  ) );
#231 = ORIENTED_EDGE('',*,*,#232,.T.);
#232 = EDGE_CURVE('',#205,#233,#235,.T.);
#233 = VERTEX_POINT('',#234);
#234 = CARTESIAN_POINT('',(-2.112515728529E-16,0.25,2.25));
#235 = SURFACE_CURVE('',#236,(#241,#248),.PCURVE_S1.);
#236 = CIRCLE('',#237,1.15);
#237 = AXIS2_PLACEMENT_3D('',#238,#239,#240);
#238 = CARTESIAN_POINT('',(0.,0.25,3.4));
#239 = DIRECTION('',(-0.,-1.,-0.));
#240 = DIRECTION('',(1.,-0.,-0.));
#241 = PCURVE('',#180,#242);
#242 = DEFINITIONAL_REPRESENTATION('',(#243),#247);
#243 = LINE('',#244,#245);
#244 = CARTESIAN_POINT('',(0.,-0.25));
#245 = VECTOR('',#246,1.);
#246 = DIRECTION('',(1.,0.));
#247 = ( GEOMETRIC_REPRESENTATION_CONTEXT(2) 
PARAMETRIC_REPRESENTATION_CONTEXT() REPRESENTATION_CONTEXT('2D SPACE',''
  ) );
#248 = PCURVE('',#249,#254);
#249 = PLANE('',#250);
#250 = AXIS2_PLACEMENT_3D('',#251,#252,#253);
#251 = CARTESIAN_POINT('',(-1.114760977614E-16,0.25,3.4));
#252 = DIRECTION('',(-0.,1.,-0.));
#253 = DIRECTION('',(0.,0.,1.));
#254 = DEFINITIONAL_REPRESENTATION('',(#255),#263);
#255 = ( BOUNDED_CURVE() B_SPLINE_CURVE(2,(#256,#257,#258,#259,#260,#261
,#262),.UNSPECIFIED.,.T.,.F.) B_SPLINE_CURVE_WITH_KNOTS((1,2,2,2,2,1),(
    -2.094395102393,0.,2.094395102393,4.188790204786,6.28318530718,
8.377580409573),.UNSPECIFIED.) CURVE() GEOMETRIC_REPRESENTATION_ITEM() 
RATIONAL_B_SPLINE_CURVE((1.,0.5,1.,0.5,1.,0.5,1.)) REPRESENTATION_ITEM(
  '') );
#256 = CARTESIAN_POINT('',(-4.440892098501E-16,1.15));
#257 = CARTESIAN_POINT('',(1.991858428704,1.15));
#258 = CARTESIAN_POINT('',(0.995929214352,-0.575));
#259 = CARTESIAN_POINT('',(-1.624204460462E-16,-2.3));
#260 = CARTESIAN_POINT('',(-0.995929214352,-0.575));
#261 = CARTESIAN_POINT('',(-1.991858428704,1.15));
#262 = CARTESIAN_POINT('',(-4.440892098501E-16,1.15));
#263 = ( GEOMETRIC_REPRESENTATION_CONTEXT(2) 
PARAMETRIC_REPRESENTATION_CONTEXT() REPRESENTATION_CONTEXT('2D SPACE',''
  ) );
#264 = ORIENTED_EDGE('',*,*,#265,.F.);
#265 = EDGE_CURVE('',#171,#233,#266,.T.);
#266 = SURFACE_CURVE('',#267,(#288,#312),.PCURVE_S1.);
#267 = B_SPLINE_CURVE_WITH_KNOTS('',7,(#268,#269,#270,#271,#272,#273,
    #274,#275,#276,#277,#278,#279,#280,#281,#282,#283,#284,#285,#286,
    #287),.UNSPECIFIED.,.F.,.F.,(8,6,6,8),(0.,0.339532268806,
    0.660468483928,1.),.UNSPECIFIED.);
#268 = CARTESIAN_POINT('',(-0.249999999999,-6.000000002393E-07,
    2.277502783968));
#269 = CARTESIAN_POINT('',(-0.250000091496,3.812315632561E-02,
    2.277502804346));
#270 = CARTESIAN_POINT('',(-0.243217699549,7.62119758592E-02,
    2.27599220306));
#271 = CARTESIAN_POINT('',(-0.229674200162,0.112827040944,2.272976054194
    ));
#272 = CARTESIAN_POINT('',(-0.209771586235,0.146589489508,2.268813706671
    ));
#273 = CARTESIAN_POINT('',(-0.184188446339,0.176235481824,2.264196725611
    ));
#274 = CARTESIAN_POINT('',(-0.153964044276,0.200645801287,2.259854612236
    ));
#275 = CARTESIAN_POINT('',(-8.874897859188E-02,0.23649808704,
    2.252986932935));
#276 = CARTESIAN_POINT('',(-5.434855523653E-02,0.248445688249,
    2.250400013717));
#277 = CARTESIAN_POINT('',(-1.8300435096E-02,0.254516491922,
    2.248981914008));
#278 = CARTESIAN_POINT('',(1.830043509533E-02,0.254516491922,
    2.248981914008));
#279 = CARTESIAN_POINT('',(5.434855523665E-02,0.248445688249,
    2.250400013717));
#280 = CARTESIAN_POINT('',(8.874897859253E-02,0.236498087039,
    2.252986932935));
#281 = CARTESIAN_POINT('',(0.153963969949,0.200645842148,2.259854604409)
  );
#282 = CARTESIAN_POINT('',(0.184188310223,0.176235591214,2.264196706142)
  );
#283 = CARTESIAN_POINT('',(0.209771412565,0.14658969037,2.268813675311)
  );
#284 = CARTESIAN_POINT('',(0.229674020556,0.112827346264,2.272976016602)
  );
#285 = CARTESIAN_POINT('',(0.243217547683,7.621238806815E-02,
    2.275992169243));
#286 = CARTESIAN_POINT('',(0.25,3.812366907544E-02,2.277502783968));
#287 = CARTESIAN_POINT('',(0.25,5.551115123126E-17,2.277502783968));
#288 = PCURVE('',#180,#289);
#289 = DEFINITIONAL_REPRESENTATION('',(#290),#311);
#290 = B_SPLINE_CURVE_WITH_KNOTS('',7,(#291,#292,#293,#294,#295,#296,
    #297,#298,#299,#300,#301,#302,#303,#304,#305,#306,#307,#308,#309,
    #310),.UNSPECIFIED.,.F.,.F.,(8,6,6,8),(0.,0.339532268806,
    0.660468483928,1.),.UNSPECIFIED.);
#291 = CARTESIAN_POINT('',(4.493247921388,6.000000000173E-07));
#292 = CARTESIAN_POINT('',(4.493247839876,-3.812315632561E-02));
#293 = CARTESIAN_POINT('',(4.499290076312,-7.62119758592E-02));
#294 = CARTESIAN_POINT('',(4.511355531041,-0.112827040944));
#295 = CARTESIAN_POINT('',(4.529035371002,-0.146589489508));
#296 = CARTESIAN_POINT('',(4.551620567597,-0.176235481824));
#297 = CARTESIAN_POINT('',(4.578153600453,-0.200645801287));
#298 = CARTESIAN_POINT('',(4.635175930912,-0.23649808704));
#299 = CARTESIAN_POINT('',(4.665160891886,-0.248445688249));
#300 = CARTESIAN_POINT('',(4.696496981222,-0.254516491922));
#301 = CARTESIAN_POINT('',(4.728280979546,-0.254516491922));
#302 = CARTESIAN_POINT('',(4.759617068883,-0.248445688249));
#303 = CARTESIAN_POINT('',(4.789602029858,-0.236498087039));
#304 = CARTESIAN_POINT('',(4.846624295328,-0.200645842148));
#305 = CARTESIAN_POINT('',(4.873157273688,-0.176235591214));
#306 = CARTESIAN_POINT('',(4.895742436451,-0.14658969037));
#307 = CARTESIAN_POINT('',(4.913422270173,-0.112827346264));
#308 = CARTESIAN_POINT('',(4.925487749167,-7.621238806815E-02));
#309 = CARTESIAN_POINT('',(4.931530039382,-3.812366907544E-02));
#310 = CARTESIAN_POINT('',(4.931530039382,-5.551115123126E-17));
#311 = ( GEOMETRIC_REPRESENTATION_CONTEXT(2) 
PARAMETRIC_REPRESENTATION_CONTEXT() REPRESENTATION_CONTEXT('2D SPACE',''
  ) );
#312 = PCURVE('',#313,#318);
#313 = CYLINDRICAL_SURFACE('',#314,0.25);
#314 = AXIS2_PLACEMENT_3D('',#315,#316,#317);
#315 = CARTESIAN_POINT('',(0.,0.,-2.5));
#316 = DIRECTION('',(-0.,0.,-1.));
#317 = DIRECTION('',(1.,-0.,-0.));
#318 = DEFINITIONAL_REPRESENTATION('',(#319),#340);
#319 = B_SPLINE_CURVE_WITH_KNOTS('',7,(#320,#321,#322,#323,#324,#325,
    #326,#327,#328,#329,#330,#331,#332,#333,#334,#335,#336,#337,#338,
    #339),.UNSPECIFIED.,.F.,.F.,(8,6,6,8),(0.,0.339532268806,
    0.660468483928,1.),.UNSPECIFIED.);
#320 = CARTESIAN_POINT('',(3.14159025359,-4.777502783968));
#321 = CARTESIAN_POINT('',(3.294085278893,-4.777502804346));
#322 = CARTESIAN_POINT('',(3.446439792391,-4.77599220306));
#323 = CARTESIAN_POINT('',(3.598695829709,-4.772976054194));
#324 = CARTESIAN_POINT('',(3.751063657801,-4.768813706671));
#325 = CARTESIAN_POINT('',(3.903720308955,-4.764196725611));
#326 = CARTESIAN_POINT('',(4.056702681722,-4.759854612236));
#327 = CARTESIAN_POINT('',(4.35438415406,-4.752986932935));
#328 = CARTESIAN_POINT('',(4.497988401332,-4.750400013717));
#329 = CARTESIAN_POINT('',(4.640988031801,-4.748981914008));
#330 = CARTESIAN_POINT('',(4.783789928966,-4.748981914008));
#331 = CARTESIAN_POINT('',(4.926789559437,-4.750400013717));
#332 = CARTESIAN_POINT('',(5.070393806713,-4.752986932935));
#333 = CARTESIAN_POINT('',(5.368074939778,-4.759854604409));
#334 = CARTESIAN_POINT('',(5.521056963913,-4.764196706142));
#335 = CARTESIAN_POINT('',(5.673713268167,-4.768813675311));
#336 = CARTESIAN_POINT('',(5.826080754396,-4.772976016602));
#337 = CARTESIAN_POINT('',(5.978336454437,-4.775992169243));
#338 = CARTESIAN_POINT('',(6.130690630878,-4.777502783968));
#339 = CARTESIAN_POINT('',(6.28318530718,-4.777502783968));
#340 = ( GEOMETRIC_REPRESENTATION_CONTEXT(2) 
PARAMETRIC_REPRESENTATION_CONTEXT() REPRESENTATION_CONTEXT('2D SPACE',''
  ) );
#341 = ADVANCED_FACE('',(#342),#192,.T.);
#342 = FACE_BOUND('',#343,.F.);
#343 = EDGE_LOOP('',(#344,#345,#373,#406));
#344 = ORIENTED_EDGE('',*,*,#168,.F.);
#345 = ORIENTED_EDGE('',*,*,#346,.T.);
#346 = EDGE_CURVE('',#169,#347,#349,.T.);
#347 = VERTEX_POINT('',#348);
#348 = CARTESIAN_POINT('',(1.15,-0.25,3.4));
#349 = SURFACE_CURVE('',#350,(#354,#361),.PCURVE_S1.);
#350 = LINE('',#351,#352);
#351 = CARTESIAN_POINT('',(1.15,0.,3.4));
#352 = VECTOR('',#353,1.);
#353 = DIRECTION('',(-0.,-1.,-0.));
#354 = PCURVE('',#192,#355);
#355 = DEFINITIONAL_REPRESENTATION('',(#356),#360);
#356 = LINE('',#357,#358);
#357 = CARTESIAN_POINT('',(-0.,0.));
#358 = VECTOR('',#359,1.);
#359 = DIRECTION('',(-0.,-1.));
#360 = ( GEOMETRIC_REPRESENTATION_CONTEXT(2) 
PARAMETRIC_REPRESENTATION_CONTEXT() REPRESENTATION_CONTEXT('2D SPACE',''
  ) );
#361 = PCURVE('',#362,#367);
#362 = CYLINDRICAL_SURFACE('',#363,1.15);
#363 = AXIS2_PLACEMENT_3D('',#364,#365,#366);
#364 = CARTESIAN_POINT('',(0.,0.,3.4));
#365 = DIRECTION('',(-0.,1.,-0.));
#366 = DIRECTION('',(1.,-0.,-0.));
#367 = DEFINITIONAL_REPRESENTATION('',(#368),#372);
#368 = LINE('',#369,#370);
#369 = CARTESIAN_POINT('',(-6.28318530718,0.));
#370 = VECTOR('',#371,1.);
#371 = DIRECTION('',(-0.,-1.));
#372 = ( GEOMETRIC_REPRESENTATION_CONTEXT(2) 
PARAMETRIC_REPRESENTATION_CONTEXT() REPRESENTATION_CONTEXT('2D SPACE',''
  ) );
#373 = ORIENTED_EDGE('',*,*,#374,.T.);
#374 = EDGE_CURVE('',#347,#375,#377,.T.);
#375 = VERTEX_POINT('',#376);
#376 = CARTESIAN_POINT('',(-2.112515728529E-16,-0.25,2.25));
#377 = SURFACE_CURVE('',#378,(#383,#390),.PCURVE_S1.);
#378 = CIRCLE('',#379,1.15);
#379 = AXIS2_PLACEMENT_3D('',#380,#381,#382);
#380 = CARTESIAN_POINT('',(0.,-0.25,3.4));
#381 = DIRECTION('',(-0.,-1.,-0.));
#382 = DIRECTION('',(1.,-0.,-0.));
#383 = PCURVE('',#192,#384);
#384 = DEFINITIONAL_REPRESENTATION('',(#385),#389);
#385 = LINE('',#386,#387);
#386 = CARTESIAN_POINT('',(-0.,-0.25));
#387 = VECTOR('',#388,1.);
#388 = DIRECTION('',(-1.,0.));
#389 = ( GEOMETRIC_REPRESENTATION_CONTEXT(2) 
PARAMETRIC_REPRESENTATION_CONTEXT() REPRESENTATION_CONTEXT('2D SPACE',''
  ) );
#390 = PCURVE('',#391,#396);
#391 = PLANE('',#392);
#392 = AXIS2_PLACEMENT_3D('',#393,#394,#395);
#393 = CARTESIAN_POINT('',(-1.114760977614E-16,-0.25,3.4));
#394 = DIRECTION('',(-0.,1.,-0.));
#395 = DIRECTION('',(0.,0.,1.));
#396 = DEFINITIONAL_REPRESENTATION('',(#397),#405);
#397 = ( BOUNDED_CURVE() B_SPLINE_CURVE(2,(#398,#399,#400,#401,#402,#403
,#404),.UNSPECIFIED.,.T.,.F.) B_SPLINE_CURVE_WITH_KNOTS((1,2,2,2,2,1),(
    -2.094395102393,0.,2.094395102393,4.188790204786,6.28318530718,
8.377580409573),.UNSPECIFIED.) CURVE() GEOMETRIC_REPRESENTATION_ITEM() 
RATIONAL_B_SPLINE_CURVE((1.,0.5,1.,0.5,1.,0.5,1.)) REPRESENTATION_ITEM(
  '') );
#398 = CARTESIAN_POINT('',(-4.440892098501E-16,1.15));
#399 = CARTESIAN_POINT('',(1.991858428704,1.15));
#400 = CARTESIAN_POINT('',(0.995929214352,-0.575));
#401 = CARTESIAN_POINT('',(-1.624204460462E-16,-2.3));
#402 = CARTESIAN_POINT('',(-0.995929214352,-0.575));
#403 = CARTESIAN_POINT('',(-1.991858428704,1.15));
#404 = CARTESIAN_POINT('',(-4.440892098501E-16,1.15));
#405 = ( GEOMETRIC_REPRESENTATION_CONTEXT(2) 
PARAMETRIC_REPRESENTATION_CONTEXT() REPRESENTATION_CONTEXT('2D SPACE',''
  ) );
#406 = ORIENTED_EDGE('',*,*,#407,.T.);
#407 = EDGE_CURVE('',#375,#171,#408,.T.);
#408 = SURFACE_CURVE('',#409,(#426,#446),.PCURVE_S1.);
#409 = B_SPLINE_CURVE_WITH_KNOTS('',8,(#410,#411,#412,#413,#414,#415,
    #416,#417,#418,#419,#420,#421,#422,#423,#424,#425),.UNSPECIFIED.,.F.
  ,.F.,(9,7,9),(0.,0.499999588007,1.),.UNSPECIFIED.);
#410 = CARTESIAN_POINT('',(0.25,6.123232939437E-17,2.277502783968));
#411 = CARTESIAN_POINT('',(0.25,-4.909422614955E-02,2.277502783968));
#412 = CARTESIAN_POINT('',(0.23898225591,-9.821364564671E-02,
    2.27504842878));
#413 = CARTESIAN_POINT('',(0.216923185452,-0.144297518611,2.270138699855
    ));
#414 = CARTESIAN_POINT('',(0.184943147568,-0.184490403928,2.263640957359
    ));
#415 = CARTESIAN_POINT('',(0.144834560521,-0.216482236538,2.257285703881
    ));
#416 = CARTESIAN_POINT('',(9.901839603032E-02,-0.238608381033,
    2.252476608283));
#417 = CARTESIAN_POINT('',(4.991784908643E-02,-0.25,2.25));
#418 = CARTESIAN_POINT('',(-4.99179313498E-02,-0.25,2.25));
#419 = CARTESIAN_POINT('',(-9.901854698275E-02,-0.238608343479,
    2.25247661645));
#420 = CARTESIAN_POINT('',(-0.144834761228,-0.216482135866,
    2.257285725748));
#421 = CARTESIAN_POINT('',(-0.184943375578,-0.184490218643,
    2.263640993722));
#422 = CARTESIAN_POINT('',(-0.216923410433,-0.144297234137,2.27013874545
    ));
#423 = CARTESIAN_POINT('',(-0.238982442909,-9.821325639308E-02,
    2.27504847042));
#424 = CARTESIAN_POINT('',(-0.250000110462,-4.909373937506E-02,
    2.27750280857));
#425 = CARTESIAN_POINT('',(-0.249999999999,5.62499999881E-07,
    2.277502783968));
#426 = PCURVE('',#192,#427);
#427 = DEFINITIONAL_REPRESENTATION('',(#428),#445);
#428 = B_SPLINE_CURVE_WITH_KNOTS('',8,(#429,#430,#431,#432,#433,#434,
    #435,#436,#437,#438,#439,#440,#441,#442,#443,#444),.UNSPECIFIED.,.F.
  ,.F.,(9,7,9),(0.,0.499999588007,1.),.UNSPECIFIED.);
#429 = CARTESIAN_POINT('',(-4.931530039382,5.551115123126E-17));
#430 = CARTESIAN_POINT('',(-4.931530039382,-4.909422614955E-02));
#431 = CARTESIAN_POINT('',(-4.921714461059,-9.821364564668E-02));
#432 = CARTESIAN_POINT('',(-4.902064076885,-0.144297518611));
#433 = CARTESIAN_POINT('',(-4.873688485977,-0.184490403928));
#434 = CARTESIAN_POINT('',(-4.838457117265,-0.216482236538));
#435 = CARTESIAN_POINT('',(-4.798491888291,-0.238608381033));
#436 = CARTESIAN_POINT('',(-4.755795805677,-0.25));
#437 = CARTESIAN_POINT('',(-4.668982083559,-0.25));
#438 = CARTESIAN_POINT('',(-4.626285941216,-0.238608343479));
#439 = CARTESIAN_POINT('',(-4.586320668354,-0.216482135866));
#440 = CARTESIAN_POINT('',(-4.551089274428,-0.184490218642));
#441 = CARTESIAN_POINT('',(-4.5227136843,-0.144297234137));
#442 = CARTESIAN_POINT('',(-4.503063333121,-9.821325639306E-02));
#443 = CARTESIAN_POINT('',(-4.49324782298,-4.909373937506E-02));
#444 = CARTESIAN_POINT('',(-4.493247921388,5.624999998566E-07));
#445 = ( GEOMETRIC_REPRESENTATION_CONTEXT(2) 
PARAMETRIC_REPRESENTATION_CONTEXT() REPRESENTATION_CONTEXT('2D SPACE',''
  ) );
#446 = PCURVE('',#313,#447);
#447 = DEFINITIONAL_REPRESENTATION('',(#448),#465);
#448 = B_SPLINE_CURVE_WITH_KNOTS('',8,(#449,#450,#451,#452,#453,#454,
    #455,#456,#457,#458,#459,#460,#461,#462,#463,#464),.UNSPECIFIED.,.F.
  ,.F.,(9,7,9),(0.,0.499999588007,1.),.UNSPECIFIED.);
#449 = CARTESIAN_POINT('',(0.,-4.777502783968));
#450 = CARTESIAN_POINT('',(0.196376904598,-4.777502783968));
#451 = CARTESIAN_POINT('',(0.392852670842,-4.77504842878));
#452 = CARTESIAN_POINT('',(0.588739081658,-4.770138699855));
#453 = CARTESIAN_POINT('',(0.784147612159,-4.763640957359));
#454 = CARTESIAN_POINT('',(0.979335874081,-4.757285703881));
#455 = CARTESIAN_POINT('',(1.174721047802,-4.752476608283));
#456 = CARTESIAN_POINT('',(1.371124930449,-4.75));
#457 = CARTESIAN_POINT('',(1.770468052194,-4.75));
#458 = CARTESIAN_POINT('',(1.966872209636,-4.75247661645));
#459 = CARTESIAN_POINT('',(2.162257642111,-4.757285725748));
#460 = CARTESIAN_POINT('',(2.357446160743,-4.763640993722));
#461 = CARTESIAN_POINT('',(2.552854953931,-4.77013874545));
#462 = CARTESIAN_POINT('',(2.748741638959,-4.77504847042));
#463 = CARTESIAN_POINT('',(2.945217696089,-4.77750280857));
#464 = CARTESIAN_POINT('',(3.14159490359,-4.777502783968));
#465 = ( GEOMETRIC_REPRESENTATION_CONTEXT(2) 
PARAMETRIC_REPRESENTATION_CONTEXT() REPRESENTATION_CONTEXT('2D SPACE',''
  ) );
#466 = ADVANCED_FACE('',(#467),#313,.T.);
#467 = FACE_BOUND('',#468,.T.);
#468 = EDGE_LOOP('',(#469,#502,#525,#585,#586,#587,#659));
#469 = ORIENTED_EDGE('',*,*,#470,.F.);
#470 = EDGE_CURVE('',#471,#471,#473,.T.);
#471 = VERTEX_POINT('',#472);
#472 = CARTESIAN_POINT('',(0.25,0.,-2.5));
#473 = SURFACE_CURVE('',#474,(#479,#486),.PCURVE_S1.);
#474 = CIRCLE('',#475,0.25);
#475 = AXIS2_PLACEMENT_3D('',#476,#477,#478);
#476 = CARTESIAN_POINT('',(0.,0.,-2.5));
#477 = DIRECTION('',(0.,0.,-1.));
#478 = DIRECTION('',(1.,-0.,-0.));
#479 = PCURVE('',#313,#480);
#480 = DEFINITIONAL_REPRESENTATION('',(#481),#485);
#481 = LINE('',#482,#483);
#482 = CARTESIAN_POINT('',(0.,0.));
#483 = VECTOR('',#484,1.);
#484 = DIRECTION('',(1.,0.));
#485 = ( GEOMETRIC_REPRESENTATION_CONTEXT(2) 
PARAMETRIC_REPRESENTATION_CONTEXT() REPRESENTATION_CONTEXT('2D SPACE',''
  ) );
#486 = PCURVE('',#487,#492);
#487 = PLANE('',#488);
#488 = AXIS2_PLACEMENT_3D('',#489,#490,#491);
#489 = CARTESIAN_POINT('',(-1.60246890532E-17,-2.18439881135E-17,-2.5));
#490 = DIRECTION('',(-0.,-0.,1.));
#491 = DIRECTION('',(-1.,0.,0.));
#492 = DEFINITIONAL_REPRESENTATION('',(#493),#501);
#493 = ( BOUNDED_CURVE() B_SPLINE_CURVE(2,(#494,#495,#496,#497,#498,#499
,#500),.UNSPECIFIED.,.T.,.F.) B_SPLINE_CURVE_WITH_KNOTS((1,2,2,2,2,1),(
    -2.094395102393,0.,2.094395102393,4.188790204786,6.28318530718,
8.377580409573),.UNSPECIFIED.) CURVE() GEOMETRIC_REPRESENTATION_ITEM() 
RATIONAL_B_SPLINE_CURVE((1.,0.5,1.,0.5,1.,0.5,1.)) REPRESENTATION_ITEM(
  '') );
#494 = CARTESIAN_POINT('',(-0.25,-2.18439881135E-17));
#495 = CARTESIAN_POINT('',(-0.25,0.433012701892));
#496 = CARTESIAN_POINT('',(0.125,0.216506350946));
#497 = CARTESIAN_POINT('',(0.5,3.938835184387E-17));
#498 = CARTESIAN_POINT('',(0.125,-0.216506350946));
#499 = CARTESIAN_POINT('',(-0.25,-0.433012701892));
#500 = CARTESIAN_POINT('',(-0.25,-2.18439881135E-17));
#501 = ( GEOMETRIC_REPRESENTATION_CONTEXT(2) 
PARAMETRIC_REPRESENTATION_CONTEXT() REPRESENTATION_CONTEXT('2D SPACE',''
  ) );
#502 = ORIENTED_EDGE('',*,*,#503,.T.);
#503 = EDGE_CURVE('',#471,#504,#506,.T.);
#504 = VERTEX_POINT('',#505);
#505 = CARTESIAN_POINT('',(0.25,0.,2.277502783968));
#506 = SEAM_CURVE('',#507,(#511,#518),.PCURVE_S1.);
#507 = LINE('',#508,#509);
#508 = CARTESIAN_POINT('',(0.25,0.,-2.5));
#509 = VECTOR('',#510,1.);
#510 = DIRECTION('',(-0.,-0.,1.));
#511 = PCURVE('',#313,#512);
#512 = DEFINITIONAL_REPRESENTATION('',(#513),#517);
#513 = LINE('',#514,#515);
#514 = CARTESIAN_POINT('',(6.28318530718,0.));
#515 = VECTOR('',#516,1.);
#516 = DIRECTION('',(0.,-1.));
#517 = ( GEOMETRIC_REPRESENTATION_CONTEXT(2) 
PARAMETRIC_REPRESENTATION_CONTEXT() REPRESENTATION_CONTEXT('2D SPACE',''
  ) );
#518 = PCURVE('',#313,#519);
#519 = DEFINITIONAL_REPRESENTATION('',(#520),#524);
#520 = LINE('',#521,#522);
#521 = CARTESIAN_POINT('',(0.,0.));
#522 = VECTOR('',#523,1.);
#523 = DIRECTION('',(0.,-1.));
#524 = ( GEOMETRIC_REPRESENTATION_CONTEXT(2) 
PARAMETRIC_REPRESENTATION_CONTEXT() REPRESENTATION_CONTEXT('2D SPACE',''
  ) );
#525 = ORIENTED_EDGE('',*,*,#526,.T.);
#526 = EDGE_CURVE('',#504,#375,#527,.T.);
#527 = SURFACE_CURVE('',#528,(#545,#565),.PCURVE_S1.);
#528 = B_SPLINE_CURVE_WITH_KNOTS('',8,(#529,#530,#531,#532,#533,#534,
    #535,#536,#537,#538,#539,#540,#541,#542,#543,#544),.UNSPECIFIED.,.F.
  ,.F.,(9,7,9),(0.,0.499999588007,1.),.UNSPECIFIED.);
#529 = CARTESIAN_POINT('',(0.25,6.123232939437E-17,2.277502783968));
#530 = CARTESIAN_POINT('',(0.25,-4.909422614955E-02,2.277502783968));
#531 = CARTESIAN_POINT('',(0.23898225591,-9.821364564671E-02,
    2.27504842878));
#532 = CARTESIAN_POINT('',(0.216923185452,-0.144297518611,2.270138699855
    ));
#533 = CARTESIAN_POINT('',(0.184943147568,-0.184490403928,2.263640957359
    ));
#534 = CARTESIAN_POINT('',(0.144834560521,-0.216482236538,2.257285703881
    ));
#535 = CARTESIAN_POINT('',(9.901839603032E-02,-0.238608381033,
    2.252476608283));
#536 = CARTESIAN_POINT('',(4.991784908643E-02,-0.25,2.25));
#537 = CARTESIAN_POINT('',(-4.99179313498E-02,-0.25,2.25));
#538 = CARTESIAN_POINT('',(-9.901854698275E-02,-0.238608343479,
    2.25247661645));
#539 = CARTESIAN_POINT('',(-0.144834761228,-0.216482135866,
    2.257285725748));
#540 = CARTESIAN_POINT('',(-0.184943375578,-0.184490218643,
    2.263640993722));
#541 = CARTESIAN_POINT('',(-0.216923410433,-0.144297234137,2.27013874545
    ));
#542 = CARTESIAN_POINT('',(-0.238982442909,-9.821325639308E-02,
    2.27504847042));
#543 = CARTESIAN_POINT('',(-0.250000110462,-4.909373937506E-02,
    2.27750280857));
#544 = CARTESIAN_POINT('',(-0.249999999999,5.62499999881E-07,
    2.277502783968));
#545 = PCURVE('',#313,#546);
#546 = DEFINITIONAL_REPRESENTATION('',(#547),#564);
#547 = B_SPLINE_CURVE_WITH_KNOTS('',8,(#548,#549,#550,#551,#552,#553,
    #554,#555,#556,#557,#558,#559,#560,#561,#562,#563),.UNSPECIFIED.,.F.
  ,.F.,(9,7,9),(0.,0.499999588007,1.),.UNSPECIFIED.);
#548 = CARTESIAN_POINT('',(0.,-4.777502783968));
#549 = CARTESIAN_POINT('',(0.196376904598,-4.777502783968));
#550 = CARTESIAN_POINT('',(0.392852670842,-4.77504842878));
#551 = CARTESIAN_POINT('',(0.588739081658,-4.770138699855));
#552 = CARTESIAN_POINT('',(0.784147612159,-4.763640957359));
#553 = CARTESIAN_POINT('',(0.979335874081,-4.757285703881));
#554 = CARTESIAN_POINT('',(1.174721047802,-4.752476608283));
#555 = CARTESIAN_POINT('',(1.371124930449,-4.75));
#556 = CARTESIAN_POINT('',(1.770468052194,-4.75));
#557 = CARTESIAN_POINT('',(1.966872209636,-4.75247661645));
#558 = CARTESIAN_POINT('',(2.162257642111,-4.757285725748));
#559 = CARTESIAN_POINT('',(2.357446160743,-4.763640993722));
#560 = CARTESIAN_POINT('',(2.552854953931,-4.77013874545));
#561 = CARTESIAN_POINT('',(2.748741638959,-4.77504847042));
#562 = CARTESIAN_POINT('',(2.945217696089,-4.77750280857));
#563 = CARTESIAN_POINT('',(3.14159490359,-4.777502783968));
#564 = ( GEOMETRIC_REPRESENTATION_CONTEXT(2) 
PARAMETRIC_REPRESENTATION_CONTEXT() REPRESENTATION_CONTEXT('2D SPACE',''
  ) );
#565 = PCURVE('',#362,#566);
#566 = DEFINITIONAL_REPRESENTATION('',(#567),#584);
#567 = B_SPLINE_CURVE_WITH_KNOTS('',8,(#568,#569,#570,#571,#572,#573,
    #574,#575,#576,#577,#578,#579,#580,#581,#582,#583),.UNSPECIFIED.,.F.
  ,.F.,(9,7,9),(0.,0.499999588007,1.),.UNSPECIFIED.);
#568 = CARTESIAN_POINT('',(-4.931530039382,5.551115123126E-17));
#569 = CARTESIAN_POINT('',(-4.931530039382,-4.909422614955E-02));
#570 = CARTESIAN_POINT('',(-4.921714461059,-9.821364564668E-02));
#571 = CARTESIAN_POINT('',(-4.902064076885,-0.144297518611));
#572 = CARTESIAN_POINT('',(-4.873688485977,-0.184490403928));
#573 = CARTESIAN_POINT('',(-4.838457117265,-0.216482236538));
#574 = CARTESIAN_POINT('',(-4.798491888291,-0.238608381033));
#575 = CARTESIAN_POINT('',(-4.755795805677,-0.25));
#576 = CARTESIAN_POINT('',(-4.668982083559,-0.25));
#577 = CARTESIAN_POINT('',(-4.626285941216,-0.238608343479));
#578 = CARTESIAN_POINT('',(-4.586320668354,-0.216482135866));
#579 = CARTESIAN_POINT('',(-4.551089274428,-0.184490218642));
#580 = CARTESIAN_POINT('',(-4.5227136843,-0.144297234137));
#581 = CARTESIAN_POINT('',(-4.503063333121,-9.821325639306E-02));
#582 = CARTESIAN_POINT('',(-4.49324782298,-4.909373937506E-02));
#583 = CARTESIAN_POINT('',(-4.493247921388,5.624999998566E-07));
#584 = ( GEOMETRIC_REPRESENTATION_CONTEXT(2) 
PARAMETRIC_REPRESENTATION_CONTEXT() REPRESENTATION_CONTEXT('2D SPACE',''
  ) );
#585 = ORIENTED_EDGE('',*,*,#407,.T.);
#586 = ORIENTED_EDGE('',*,*,#265,.T.);
#587 = ORIENTED_EDGE('',*,*,#588,.T.);
#588 = EDGE_CURVE('',#233,#504,#589,.T.);
#589 = SURFACE_CURVE('',#590,(#611,#635),.PCURVE_S1.);
#590 = B_SPLINE_CURVE_WITH_KNOTS('',7,(#591,#592,#593,#594,#595,#596,
    #597,#598,#599,#600,#601,#602,#603,#604,#605,#606,#607,#608,#609,
    #610),.UNSPECIFIED.,.F.,.F.,(8,6,6,8),(0.,0.339532268806,
    0.660468483928,1.),.UNSPECIFIED.);
#591 = CARTESIAN_POINT('',(-0.249999999999,-6.000000002393E-07,
    2.277502783968));
#592 = CARTESIAN_POINT('',(-0.250000091496,3.812315632561E-02,
    2.277502804346));
#593 = CARTESIAN_POINT('',(-0.243217699549,7.62119758592E-02,
    2.27599220306));
#594 = CARTESIAN_POINT('',(-0.229674200162,0.112827040944,2.272976054194
    ));
#595 = CARTESIAN_POINT('',(-0.209771586235,0.146589489508,2.268813706671
    ));
#596 = CARTESIAN_POINT('',(-0.184188446339,0.176235481824,2.264196725611
    ));
#597 = CARTESIAN_POINT('',(-0.153964044276,0.200645801287,2.259854612236
    ));
#598 = CARTESIAN_POINT('',(-8.874897859188E-02,0.23649808704,
    2.252986932935));
#599 = CARTESIAN_POINT('',(-5.434855523653E-02,0.248445688249,
    2.250400013717));
#600 = CARTESIAN_POINT('',(-1.8300435096E-02,0.254516491922,
    2.248981914008));
#601 = CARTESIAN_POINT('',(1.830043509533E-02,0.254516491922,
    2.248981914008));
#602 = CARTESIAN_POINT('',(5.434855523665E-02,0.248445688249,
    2.250400013717));
#603 = CARTESIAN_POINT('',(8.874897859253E-02,0.236498087039,
    2.252986932935));
#604 = CARTESIAN_POINT('',(0.153963969949,0.200645842148,2.259854604409)
  );
#605 = CARTESIAN_POINT('',(0.184188310223,0.176235591214,2.264196706142)
  );
#606 = CARTESIAN_POINT('',(0.209771412565,0.14658969037,2.268813675311)
  );
#607 = CARTESIAN_POINT('',(0.229674020556,0.112827346264,2.272976016602)
  );
#608 = CARTESIAN_POINT('',(0.243217547683,7.621238806815E-02,
    2.275992169243));
#609 = CARTESIAN_POINT('',(0.25,3.812366907544E-02,2.277502783968));
#610 = CARTESIAN_POINT('',(0.25,5.551115123126E-17,2.277502783968));
#611 = PCURVE('',#313,#612);
#612 = DEFINITIONAL_REPRESENTATION('',(#613),#634);
#613 = B_SPLINE_CURVE_WITH_KNOTS('',7,(#614,#615,#616,#617,#618,#619,
    #620,#621,#622,#623,#624,#625,#626,#627,#628,#629,#630,#631,#632,
    #633),.UNSPECIFIED.,.F.,.F.,(8,6,6,8),(0.,0.339532268806,
    0.660468483928,1.),.UNSPECIFIED.);
#614 = CARTESIAN_POINT('',(3.14159025359,-4.777502783968));
#615 = CARTESIAN_POINT('',(3.294085278893,-4.777502804346));
#616 = CARTESIAN_POINT('',(3.446439792391,-4.77599220306));
#617 = CARTESIAN_POINT('',(3.598695829709,-4.772976054194));
#618 = CARTESIAN_POINT('',(3.751063657801,-4.768813706671));
#619 = CARTESIAN_POINT('',(3.903720308955,-4.764196725611));
#620 = CARTESIAN_POINT('',(4.056702681722,-4.759854612236));
#621 = CARTESIAN_POINT('',(4.35438415406,-4.752986932935));
#622 = CARTESIAN_POINT('',(4.497988401332,-4.750400013717));
#623 = CARTESIAN_POINT('',(4.640988031801,-4.748981914008));
#624 = CARTESIAN_POINT('',(4.783789928966,-4.748981914008));
#625 = CARTESIAN_POINT('',(4.926789559437,-4.750400013717));
#626 = CARTESIAN_POINT('',(5.070393806713,-4.752986932935));
#627 = CARTESIAN_POINT('',(5.368074939778,-4.759854604409));
#628 = CARTESIAN_POINT('',(5.521056963913,-4.764196706142));
#629 = CARTESIAN_POINT('',(5.673713268167,-4.768813675311));
#630 = CARTESIAN_POINT('',(5.826080754396,-4.772976016602));
#631 = CARTESIAN_POINT('',(5.978336454437,-4.775992169243));
#632 = CARTESIAN_POINT('',(6.130690630878,-4.777502783968));
#633 = CARTESIAN_POINT('',(6.28318530718,-4.777502783968));
#634 = ( GEOMETRIC_REPRESENTATION_CONTEXT(2) 
PARAMETRIC_REPRESENTATION_CONTEXT() REPRESENTATION_CONTEXT('2D SPACE',''
  ) );
#635 = PCURVE('',#220,#636);
#636 = DEFINITIONAL_REPRESENTATION('',(#637),#658);
#637 = B_SPLINE_CURVE_WITH_KNOTS('',7,(#638,#639,#640,#641,#642,#643,
    #644,#645,#646,#647,#648,#649,#650,#651,#652,#653,#654,#655,#656,
    #657),.UNSPECIFIED.,.F.,.F.,(8,6,6,8),(0.,0.339532268806,
    0.660468483928,1.),.UNSPECIFIED.);
#638 = CARTESIAN_POINT('',(4.493247921388,6.000000000173E-07));
#639 = CARTESIAN_POINT('',(4.493247839876,-3.812315632561E-02));
#640 = CARTESIAN_POINT('',(4.499290076312,-7.62119758592E-02));
#641 = CARTESIAN_POINT('',(4.511355531041,-0.112827040944));
#642 = CARTESIAN_POINT('',(4.529035371002,-0.146589489508));
#643 = CARTESIAN_POINT('',(4.551620567597,-0.176235481824));
#644 = CARTESIAN_POINT('',(4.578153600453,-0.200645801287));
#645 = CARTESIAN_POINT('',(4.635175930912,-0.23649808704));
#646 = CARTESIAN_POINT('',(4.665160891886,-0.248445688249));
#647 = CARTESIAN_POINT('',(4.696496981222,-0.254516491922));
#648 = CARTESIAN_POINT('',(4.728280979546,-0.254516491922));
#649 = CARTESIAN_POINT('',(4.759617068883,-0.248445688249));
#650 = CARTESIAN_POINT('',(4.789602029858,-0.236498087039));
#651 = CARTESIAN_POINT('',(4.846624295328,-0.200645842148));
#652 = CARTESIAN_POINT('',(4.873157273688,-0.176235591214));
#653 = CARTESIAN_POINT('',(4.895742436451,-0.14658969037));
#654 = CARTESIAN_POINT('',(4.913422270173,-0.112827346264));
#655 = CARTESIAN_POINT('',(4.925487749167,-7.621238806815E-02));
#656 = CARTESIAN_POINT('',(4.931530039382,-3.812366907544E-02));
#657 = CARTESIAN_POINT('',(4.931530039382,-5.551115123126E-17));
#658 = ( GEOMETRIC_REPRESENTATION_CONTEXT(2) 
PARAMETRIC_REPRESENTATION_CONTEXT() REPRESENTATION_CONTEXT('2D SPACE',''
  ) );
#659 = ORIENTED_EDGE('',*,*,#503,.F.);
#660 = ADVANCED_FACE('',(#661,#690),#249,.T.);
#661 = FACE_BOUND('',#662,.F.);
#662 = EDGE_LOOP('',(#663,#664));
#663 = ORIENTED_EDGE('',*,*,#232,.T.);
#664 = ORIENTED_EDGE('',*,*,#665,.T.);
#665 = EDGE_CURVE('',#233,#205,#666,.T.);
#666 = SURFACE_CURVE('',#667,(#672,#683),.PCURVE_S1.);
#667 = CIRCLE('',#668,1.15);
#668 = AXIS2_PLACEMENT_3D('',#669,#670,#671);
#669 = CARTESIAN_POINT('',(0.,0.25,3.4));
#670 = DIRECTION('',(-0.,-1.,-0.));
#671 = DIRECTION('',(1.,-0.,-0.));
#672 = PCURVE('',#249,#673);
#673 = DEFINITIONAL_REPRESENTATION('',(#674),#682);
#674 = ( BOUNDED_CURVE() B_SPLINE_CURVE(2,(#675,#676,#677,#678,#679,#680
,#681),.UNSPECIFIED.,.T.,.F.) B_SPLINE_CURVE_WITH_KNOTS((1,2,2,2,2,1),(
    -2.094395102393,0.,2.094395102393,4.188790204786,6.28318530718,
8.377580409573),.UNSPECIFIED.) CURVE() GEOMETRIC_REPRESENTATION_ITEM() 
RATIONAL_B_SPLINE_CURVE((1.,0.5,1.,0.5,1.,0.5,1.)) REPRESENTATION_ITEM(
  '') );
#675 = CARTESIAN_POINT('',(-4.440892098501E-16,1.15));
#676 = CARTESIAN_POINT('',(1.991858428704,1.15));
#677 = CARTESIAN_POINT('',(0.995929214352,-0.575));
#678 = CARTESIAN_POINT('',(-1.624204460462E-16,-2.3));
#679 = CARTESIAN_POINT('',(-0.995929214352,-0.575));
#680 = CARTESIAN_POINT('',(-1.991858428704,1.15));
#681 = CARTESIAN_POINT('',(-4.440892098501E-16,1.15));
#682 = ( GEOMETRIC_REPRESENTATION_CONTEXT(2) 
PARAMETRIC_REPRESENTATION_CONTEXT() REPRESENTATION_CONTEXT('2D SPACE',''
  ) );
#683 = PCURVE('',#220,#684);
#684 = DEFINITIONAL_REPRESENTATION('',(#685),#689);
#685 = LINE('',#686,#687);
#686 = CARTESIAN_POINT('',(0.,-0.25));
#687 = VECTOR('',#688,1.);
#688 = DIRECTION('',(1.,0.));
#689 = ( GEOMETRIC_REPRESENTATION_CONTEXT(2) 
PARAMETRIC_REPRESENTATION_CONTEXT() REPRESENTATION_CONTEXT('2D SPACE',''
  ) );
#690 = FACE_BOUND('',#691,.F.);
#691 = EDGE_LOOP('',(#692));
#692 = ORIENTED_EDGE('',*,*,#693,.F.);
#693 = EDGE_CURVE('',#694,#694,#696,.T.);
#694 = VERTEX_POINT('',#695);
#695 = CARTESIAN_POINT('',(0.85,0.25,3.4));
#696 = SURFACE_CURVE('',#697,(#702,#713),.PCURVE_S1.);
#697 = CIRCLE('',#698,0.85);
#698 = AXIS2_PLACEMENT_3D('',#699,#700,#701);
#699 = CARTESIAN_POINT('',(5.45457399055E-15,0.25,3.4));
#700 = DIRECTION('',(-0.,-1.,-0.));
#701 = DIRECTION('',(1.,-0.,-0.));
#702 = PCURVE('',#249,#703);
#703 = DEFINITIONAL_REPRESENTATION('',(#704),#712);
#704 = ( BOUNDED_CURVE() B_SPLINE_CURVE(2,(#705,#706,#707,#708,#709,#710
,#711),.UNSPECIFIED.,.T.,.F.) B_SPLINE_CURVE_WITH_KNOTS((1,2,2,2,2,1),(
    -2.094395102393,0.,2.094395102393,4.188790204786,6.28318530718,
8.377580409573),.UNSPECIFIED.) CURVE() GEOMETRIC_REPRESENTATION_ITEM() 
RATIONAL_B_SPLINE_CURVE((1.,0.5,1.,0.5,1.,0.5,1.)) REPRESENTATION_ITEM(
  '') );
#705 = CARTESIAN_POINT('',(-4.440892098501E-16,0.85));
#706 = CARTESIAN_POINT('',(1.472243186434,0.85));
#707 = CARTESIAN_POINT('',(0.736121593217,-0.425));
#708 = CARTESIAN_POINT('',(-2.35899253995E-16,-1.7));
#709 = CARTESIAN_POINT('',(-0.736121593217,-0.425));
#710 = CARTESIAN_POINT('',(-1.472243186434,0.85));
#711 = CARTESIAN_POINT('',(-4.440892098501E-16,0.85));
#712 = ( GEOMETRIC_REPRESENTATION_CONTEXT(2) 
PARAMETRIC_REPRESENTATION_CONTEXT() REPRESENTATION_CONTEXT('2D SPACE',''
  ) );
#713 = PCURVE('',#714,#719);
#714 = CYLINDRICAL_SURFACE('',#715,0.85);
#715 = AXIS2_PLACEMENT_3D('',#716,#717,#718);
#716 = CARTESIAN_POINT('',(5.45457399055E-15,0.,3.4));
#717 = DIRECTION('',(-0.,-1.,-0.));
#718 = DIRECTION('',(1.,-0.,-0.));
#719 = DEFINITIONAL_REPRESENTATION('',(#720),#724);
#720 = LINE('',#721,#722);
#721 = CARTESIAN_POINT('',(0.,-0.25));
#722 = VECTOR('',#723,1.);
#723 = DIRECTION('',(1.,0.));
#724 = ( GEOMETRIC_REPRESENTATION_CONTEXT(2) 
PARAMETRIC_REPRESENTATION_CONTEXT() REPRESENTATION_CONTEXT('2D SPACE',''
  ) );
#725 = ADVANCED_FACE('',(#726),#220,.T.);
#726 = FACE_BOUND('',#727,.T.);
#727 = EDGE_LOOP('',(#728,#729,#751,#752));
#728 = ORIENTED_EDGE('',*,*,#204,.F.);
#729 = ORIENTED_EDGE('',*,*,#730,.F.);
#730 = EDGE_CURVE('',#504,#169,#731,.T.);
#731 = SURFACE_CURVE('',#732,(#737,#744),.PCURVE_S1.);
#732 = CIRCLE('',#733,1.15);
#733 = AXIS2_PLACEMENT_3D('',#734,#735,#736);
#734 = CARTESIAN_POINT('',(0.,0.,3.4));
#735 = DIRECTION('',(-0.,-1.,-0.));
#736 = DIRECTION('',(1.,-0.,-0.));
#737 = PCURVE('',#220,#738);
#738 = DEFINITIONAL_REPRESENTATION('',(#739),#743);
#739 = LINE('',#740,#741);
#740 = CARTESIAN_POINT('',(0.,0.));
#741 = VECTOR('',#742,1.);
#742 = DIRECTION('',(1.,0.));
#743 = ( GEOMETRIC_REPRESENTATION_CONTEXT(2) 
PARAMETRIC_REPRESENTATION_CONTEXT() REPRESENTATION_CONTEXT('2D SPACE',''
  ) );
#744 = PCURVE('',#362,#745);
#745 = DEFINITIONAL_REPRESENTATION('',(#746),#750);
#746 = LINE('',#747,#748);
#747 = CARTESIAN_POINT('',(-0.,0.));
#748 = VECTOR('',#749,1.);
#749 = DIRECTION('',(-1.,0.));
#750 = ( GEOMETRIC_REPRESENTATION_CONTEXT(2) 
PARAMETRIC_REPRESENTATION_CONTEXT() REPRESENTATION_CONTEXT('2D SPACE',''
  ) );
#751 = ORIENTED_EDGE('',*,*,#588,.F.);
#752 = ORIENTED_EDGE('',*,*,#665,.T.);
#753 = ADVANCED_FACE('',(#754,#783),#391,.F.);
#754 = FACE_BOUND('',#755,.T.);
#755 = EDGE_LOOP('',(#756,#757));
#756 = ORIENTED_EDGE('',*,*,#374,.T.);
#757 = ORIENTED_EDGE('',*,*,#758,.T.);
#758 = EDGE_CURVE('',#375,#347,#759,.T.);
#759 = SURFACE_CURVE('',#760,(#765,#776),.PCURVE_S1.);
#760 = CIRCLE('',#761,1.15);
#761 = AXIS2_PLACEMENT_3D('',#762,#763,#764);
#762 = CARTESIAN_POINT('',(0.,-0.25,3.4));
#763 = DIRECTION('',(-0.,-1.,-0.));
#764 = DIRECTION('',(1.,-0.,-0.));
#765 = PCURVE('',#391,#766);
#766 = DEFINITIONAL_REPRESENTATION('',(#767),#775);
#767 = ( BOUNDED_CURVE() B_SPLINE_CURVE(2,(#768,#769,#770,#771,#772,#773
,#774),.UNSPECIFIED.,.T.,.F.) B_SPLINE_CURVE_WITH_KNOTS((1,2,2,2,2,1),(
    -2.094395102393,0.,2.094395102393,4.188790204786,6.28318530718,
8.377580409573),.UNSPECIFIED.) CURVE() GEOMETRIC_REPRESENTATION_ITEM() 
RATIONAL_B_SPLINE_CURVE((1.,0.5,1.,0.5,1.,0.5,1.)) REPRESENTATION_ITEM(
  '') );
#768 = CARTESIAN_POINT('',(-4.440892098501E-16,1.15));
#769 = CARTESIAN_POINT('',(1.991858428704,1.15));
#770 = CARTESIAN_POINT('',(0.995929214352,-0.575));
#771 = CARTESIAN_POINT('',(-1.624204460462E-16,-2.3));
#772 = CARTESIAN_POINT('',(-0.995929214352,-0.575));
#773 = CARTESIAN_POINT('',(-1.991858428704,1.15));
#774 = CARTESIAN_POINT('',(-4.440892098501E-16,1.15));
#775 = ( GEOMETRIC_REPRESENTATION_CONTEXT(2) 
PARAMETRIC_REPRESENTATION_CONTEXT() REPRESENTATION_CONTEXT('2D SPACE',''
  ) );
#776 = PCURVE('',#362,#777);
#777 = DEFINITIONAL_REPRESENTATION('',(#778),#782);
#778 = LINE('',#779,#780);
#779 = CARTESIAN_POINT('',(-0.,-0.25));
#780 = VECTOR('',#781,1.);
#781 = DIRECTION('',(-1.,0.));
#782 = ( GEOMETRIC_REPRESENTATION_CONTEXT(2) 
PARAMETRIC_REPRESENTATION_CONTEXT() REPRESENTATION_CONTEXT('2D SPACE',''
  ) );
#783 = FACE_BOUND('',#784,.T.);
#784 = EDGE_LOOP('',(#785));
#785 = ORIENTED_EDGE('',*,*,#786,.F.);
#786 = EDGE_CURVE('',#787,#787,#789,.T.);
#787 = VERTEX_POINT('',#788);
#788 = CARTESIAN_POINT('',(0.85,-0.25,3.4));
#789 = SURFACE_CURVE('',#790,(#795,#806),.PCURVE_S1.);
#790 = CIRCLE('',#791,0.85);
#791 = AXIS2_PLACEMENT_3D('',#792,#793,#794);
#792 = CARTESIAN_POINT('',(5.45457399055E-15,-0.25,3.4));
#793 = DIRECTION('',(-0.,-1.,-0.));
#794 = DIRECTION('',(1.,-0.,-0.));
#795 = PCURVE('',#391,#796);
#796 = DEFINITIONAL_REPRESENTATION('',(#797),#805);
#797 = ( BOUNDED_CURVE() B_SPLINE_CURVE(2,(#798,#799,#800,#801,#802,#803
,#804),.UNSPECIFIED.,.T.,.F.) B_SPLINE_CURVE_WITH_KNOTS((1,2,2,2,2,1),(
    -2.094395102393,0.,2.094395102393,4.188790204786,6.28318530718,
8.377580409573),.UNSPECIFIED.) CURVE() GEOMETRIC_REPRESENTATION_ITEM() 
RATIONAL_B_SPLINE_CURVE((1.,0.5,1.,0.5,1.,0.5,1.)) REPRESENTATION_ITEM(
  '') );
#798 = CARTESIAN_POINT('',(-4.440892098501E-16,0.85));
#799 = CARTESIAN_POINT('',(1.472243186434,0.85));
#800 = CARTESIAN_POINT('',(0.736121593217,-0.425));
#801 = CARTESIAN_POINT('',(-2.35899253995E-16,-1.7));
#802 = CARTESIAN_POINT('',(-0.736121593217,-0.425));
#803 = CARTESIAN_POINT('',(-1.472243186434,0.85));
#804 = CARTESIAN_POINT('',(-4.440892098501E-16,0.85));
#805 = ( GEOMETRIC_REPRESENTATION_CONTEXT(2) 
PARAMETRIC_REPRESENTATION_CONTEXT() REPRESENTATION_CONTEXT('2D SPACE',''
  ) );
#806 = PCURVE('',#807,#812);
#807 = CYLINDRICAL_SURFACE('',#808,0.85);
#808 = AXIS2_PLACEMENT_3D('',#809,#810,#811);
#809 = CARTESIAN_POINT('',(5.45457399055E-15,0.,3.4));
#810 = DIRECTION('',(-0.,1.,-0.));
#811 = DIRECTION('',(1.,-0.,-0.));
#812 = DEFINITIONAL_REPRESENTATION('',(#813),#817);
#813 = LINE('',#814,#815);
#814 = CARTESIAN_POINT('',(-0.,-0.25));
#815 = VECTOR('',#816,1.);
#816 = DIRECTION('',(-1.,0.));
#817 = ( GEOMETRIC_REPRESENTATION_CONTEXT(2) 
PARAMETRIC_REPRESENTATION_CONTEXT() REPRESENTATION_CONTEXT('2D SPACE',''
  ) );
#818 = ADVANCED_FACE('',(#819),#362,.T.);
#819 = FACE_BOUND('',#820,.F.);
#820 = EDGE_LOOP('',(#821,#822,#823,#824));
#821 = ORIENTED_EDGE('',*,*,#346,.F.);
#822 = ORIENTED_EDGE('',*,*,#730,.F.);
#823 = ORIENTED_EDGE('',*,*,#526,.T.);
#824 = ORIENTED_EDGE('',*,*,#758,.T.);
#825 = ADVANCED_FACE('',(#826),#487,.F.);
#826 = FACE_BOUND('',#827,.T.);
#827 = EDGE_LOOP('',(#828));
#828 = ORIENTED_EDGE('',*,*,#470,.T.);
#829 = ADVANCED_FACE('',(#830),#714,.F.);
#830 = FACE_BOUND('',#831,.F.);
#831 = EDGE_LOOP('',(#832,#855,#856,#857));
#832 = ORIENTED_EDGE('',*,*,#833,.T.);
#833 = EDGE_CURVE('',#834,#694,#836,.T.);
#834 = VERTEX_POINT('',#835);
#835 = CARTESIAN_POINT('',(0.85,0.,3.4));
#836 = SEAM_CURVE('',#837,(#841,#848),.PCURVE_S1.);
#837 = LINE('',#838,#839);
#838 = CARTESIAN_POINT('',(0.85,0.,3.4));
#839 = VECTOR('',#840,1.);
#840 = DIRECTION('',(-0.,1.,-0.));
#841 = PCURVE('',#714,#842);
#842 = DEFINITIONAL_REPRESENTATION('',(#843),#847);
#843 = LINE('',#844,#845);
#844 = CARTESIAN_POINT('',(0.,0.));
#845 = VECTOR('',#846,1.);
#846 = DIRECTION('',(0.,-1.));
#847 = ( GEOMETRIC_REPRESENTATION_CONTEXT(2) 
PARAMETRIC_REPRESENTATION_CONTEXT() REPRESENTATION_CONTEXT('2D SPACE',''
  ) );
#848 = PCURVE('',#714,#849);
#849 = DEFINITIONAL_REPRESENTATION('',(#850),#854);
#850 = LINE('',#851,#852);
#851 = CARTESIAN_POINT('',(6.28318530718,0.));
#852 = VECTOR('',#853,1.);
#853 = DIRECTION('',(0.,-1.));
#854 = ( GEOMETRIC_REPRESENTATION_CONTEXT(2) 
PARAMETRIC_REPRESENTATION_CONTEXT() REPRESENTATION_CONTEXT('2D SPACE',''
  ) );
#855 = ORIENTED_EDGE('',*,*,#693,.T.);
#856 = ORIENTED_EDGE('',*,*,#833,.F.);
#857 = ORIENTED_EDGE('',*,*,#858,.F.);
#858 = EDGE_CURVE('',#834,#834,#859,.T.);
#859 = SURFACE_CURVE('',#860,(#865,#872),.PCURVE_S1.);
#860 = CIRCLE('',#861,0.85);
#861 = AXIS2_PLACEMENT_3D('',#862,#863,#864);
#862 = CARTESIAN_POINT('',(5.45457399055E-15,0.,3.4));
#863 = DIRECTION('',(-0.,-1.,-0.));
#864 = DIRECTION('',(1.,-0.,-0.));
#865 = PCURVE('',#714,#866);
#866 = DEFINITIONAL_REPRESENTATION('',(#867),#871);
#867 = LINE('',#868,#869);
#868 = CARTESIAN_POINT('',(0.,0.));
#869 = VECTOR('',#870,1.);
#870 = DIRECTION('',(1.,0.));
#871 = ( GEOMETRIC_REPRESENTATION_CONTEXT(2) 
PARAMETRIC_REPRESENTATION_CONTEXT() REPRESENTATION_CONTEXT('2D SPACE',''
  ) );
#872 = PCURVE('',#807,#873);
#873 = DEFINITIONAL_REPRESENTATION('',(#874),#878);
#874 = LINE('',#875,#876);
#875 = CARTESIAN_POINT('',(-0.,0.));
#876 = VECTOR('',#877,1.);
#877 = DIRECTION('',(-1.,0.));
#878 = ( GEOMETRIC_REPRESENTATION_CONTEXT(2) 
PARAMETRIC_REPRESENTATION_CONTEXT() REPRESENTATION_CONTEXT('2D SPACE',''
  ) );
#879 = ADVANCED_FACE('',(#880),#807,.F.);
#880 = FACE_BOUND('',#881,.T.);
#881 = EDGE_LOOP('',(#882,#903,#904,#905));
#882 = ORIENTED_EDGE('',*,*,#883,.T.);
#883 = EDGE_CURVE('',#834,#787,#884,.T.);
#884 = SEAM_CURVE('',#885,(#889,#896),.PCURVE_S1.);
#885 = LINE('',#886,#887);
#886 = CARTESIAN_POINT('',(0.85,0.,3.4));
#887 = VECTOR('',#888,1.);
#888 = DIRECTION('',(-0.,-1.,-0.));
#889 = PCURVE('',#807,#890);
#890 = DEFINITIONAL_REPRESENTATION('',(#891),#895);
#891 = LINE('',#892,#893);
#892 = CARTESIAN_POINT('',(-0.,0.));
#893 = VECTOR('',#894,1.);
#894 = DIRECTION('',(-0.,-1.));
#895 = ( GEOMETRIC_REPRESENTATION_CONTEXT(2) 
PARAMETRIC_REPRESENTATION_CONTEXT() REPRESENTATION_CONTEXT('2D SPACE',''
  ) );
#896 = PCURVE('',#807,#897);
#897 = DEFINITIONAL_REPRESENTATION('',(#898),#902);
#898 = LINE('',#899,#900);
#899 = CARTESIAN_POINT('',(-6.28318530718,0.));
#900 = VECTOR('',#901,1.);
#901 = DIRECTION('',(-0.,-1.));
#902 = ( GEOMETRIC_REPRESENTATION_CONTEXT(2) 
PARAMETRIC_REPRESENTATION_CONTEXT() REPRESENTATION_CONTEXT('2D SPACE',''
  ) );
#903 = ORIENTED_EDGE('',*,*,#786,.T.);
#904 = ORIENTED_EDGE('',*,*,#883,.F.);
#905 = ORIENTED_EDGE('',*,*,#858,.F.);
#906 = ( GEOMETRIC_REPRESENTATION_CONTEXT(3) 
GLOBAL_UNCERTAINTY_ASSIGNED_CONTEXT((#910)) GLOBAL_UNIT_ASSIGNED_CONTEXT
((#907,#908,#909)) REPRESENTATION_CONTEXT('Context #1',
  '3D Context with UNIT and UNCERTAINTY') );
#907 = ( LENGTH_UNIT() NAMED_UNIT(*) SI_UNIT(.MILLI.,.METRE.) );
#908 = ( NAMED_UNIT(*) PLANE_ANGLE_UNIT() SI_UNIT($,.RADIAN.) );
#909 = ( NAMED_UNIT(*) SI_UNIT($,.STERADIAN.) SOLID_ANGLE_UNIT() );
#910 = UNCERTAINTY_MEASURE_WITH_UNIT(LENGTH_MEASURE(1.E-07),#907,
  'distance_accuracy_value','confusion accuracy');
#911 = CONTEXT_DEPENDENT_SHAPE_REPRESENTATION(#912,#914);
#912 = ( REPRESENTATION_RELATIONSHIP('','',#161,#10) 
REPRESENTATION_RELATIONSHIP_WITH_TRANSFORMATION(#913) 
SHAPE_REPRESENTATION_RELATIONSHIP() );
#913 = ITEM_DEFINED_TRANSFORMATION('','',#11,#19);
#914 = PRODUCT_DEFINITION_SHAPE('Placement','Placement of an item',#915
  );
#915 = NEXT_ASSEMBLY_USAGE_OCCURRENCE('8','Keystone_5000_TestPoint_1',''
  ,#5,#156,$);
#916 = PRODUCT_RELATED_PRODUCT_CATEGORY('part',$,(#158));
#917 = MECHANICAL_DESIGN_GEOMETRIC_PRESENTATION_REPRESENTATION('',(#918)
  ,#143);
#918 = STYLED_ITEM('color',(#919),#37);
#919 = PRESENTATION_STYLE_ASSIGNMENT((#920));
#920 = SURFACE_STYLE_USAGE(.BOTH.,#921);
#921 = SURFACE_SIDE_STYLE('',(#922));
#922 = SURFACE_STYLE_FILL_AREA(#923);
#923 = FILL_AREA_STYLE('',(#924));
#924 = FILL_AREA_STYLE_COLOUR('',#925);
#925 = COLOUR_RGB('',0.750000000934,9.999999991362E-02,
  9.999999991362E-02);
#926 = MECHANICAL_DESIGN_GEOMETRIC_PRESENTATION_REPRESENTATION('',(#927)
  ,#906);
#927 = STYLED_ITEM('color',(#928),#162);
#928 = PRESENTATION_STYLE_ASSIGNMENT((#929));
#929 = SURFACE_STYLE_USAGE(.BOTH.,#930);
#930 = SURFACE_SIDE_STYLE('',(#931));
#931 = SURFACE_STYLE_FILL_AREA(#932);
#932 = FILL_AREA_STYLE('',(#933));
#933 = FILL_AREA_STYLE_COLOUR('',#934);
#934 = COLOUR_RGB('',0.78000000177,0.78000000177,0.760000013601);
ENDSEC;
END-ISO-10303-21;
