G04 Layer_Color=16711935*
%FSLAX25Y25*%
%MOIN*%
G70*
G01*
G75*
%ADD32R,0.06706X0.06706*%
%ADD33C,0.06706*%
%ADD34C,0.08674*%
%ADD35C,0.05800*%
G36*
X67913Y57677D02*
Y57480D01*
Y49803D01*
X65551Y47441D01*
X33071D01*
X28740Y43110D01*
X28740D01*
Y32677D01*
X35433Y25984D01*
X35630D01*
Y9055D01*
X35433Y8858D01*
X29921Y3347D01*
X21654D01*
X21457Y3543D01*
X16339Y8661D01*
Y8858D01*
Y19488D01*
X4134Y31693D01*
Y49016D01*
Y49213D01*
X16929Y62008D01*
X63583D01*
X67913Y57677D01*
D02*
G37*
G36*
X69488Y109449D02*
Y109252D01*
Y99213D01*
X67126Y96850D01*
X33465D01*
X32087Y95472D01*
X28740D01*
X15354Y108858D01*
Y130315D01*
X15748Y130709D01*
X21260Y136221D01*
X42717D01*
X69488Y109449D01*
D02*
G37*
D32*
X23425Y71653D02*
D03*
X18504Y37795D02*
D03*
X37795Y113779D02*
D03*
X116142Y51968D02*
D03*
X116339Y93307D02*
D03*
D33*
X116142Y31969D02*
D03*
Y41969D02*
D03*
X116339Y103307D02*
D03*
D34*
X25945Y12598D02*
D03*
X115945D02*
D03*
X116339Y126575D02*
D03*
X26339D02*
D03*
D35*
X23720Y102854D02*
D03*
X67913Y72441D02*
D03*
X89961Y25787D02*
D03*
X119488Y63386D02*
D03*
X111417Y83071D02*
D03*
X66339Y27953D02*
D03*
X50787Y79134D02*
D03*
X83465Y59449D02*
D03*
X100787Y107480D02*
D03*
X84252Y113779D02*
D03*
X84842Y46654D02*
D03*
X9252Y51968D02*
D03*
X47047Y29921D02*
D03*
X42520Y86417D02*
D03*
M02*
