G04 Layer_Physical_Order=1*
G04 Layer_Color=255*
%FSLAX25Y25*%
%MOIN*%
G70*
G01*
G75*
%ADD10R,0.08661X0.03000*%
%ADD11R,0.02441X0.04803*%
%ADD12R,0.03150X0.03543*%
%ADD13R,0.03543X0.03150*%
%ADD14R,0.04331X0.06693*%
%ADD15C,0.03000*%
%ADD16C,0.02500*%
%ADD17C,0.05000*%
%ADD18R,0.05906X0.05906*%
%ADD19C,0.05906*%
%ADD20C,0.07874*%
%ADD21C,0.05000*%
G36*
X64383Y81299D02*
X64504Y80386D01*
X64856Y79534D01*
X65417Y78803D01*
X67582Y76638D01*
X68314Y76077D01*
X69165Y75724D01*
X70079Y75604D01*
X70244D01*
Y75362D01*
X82906D01*
Y75604D01*
X86937D01*
Y74732D01*
X90655D01*
X90675Y74576D01*
X90731Y74152D01*
X90895Y73756D01*
X90945Y73636D01*
X90667Y73220D01*
X86937D01*
Y69256D01*
X86879Y68819D01*
Y64325D01*
X86389Y64228D01*
X86303Y64434D01*
X86009Y64818D01*
X85782Y65113D01*
X84601Y66294D01*
X83922Y66815D01*
X83527Y66979D01*
X83132Y67143D01*
X82708Y67199D01*
X82284Y67254D01*
X81724D01*
Y67748D01*
X74575D01*
Y60290D01*
X74130Y59710D01*
X73966Y59315D01*
X73802Y58919D01*
X73746Y58495D01*
X73690Y58071D01*
Y57673D01*
X70638D01*
Y50673D01*
X83299D01*
Y54765D01*
X83465Y54910D01*
X84639Y55065D01*
X85734Y55518D01*
X86674Y56239D01*
X87395Y57179D01*
X87849Y58274D01*
X88311Y58431D01*
X91997Y54745D01*
Y54165D01*
X91701D01*
Y46622D01*
X91701D01*
Y46569D01*
Y46622D01*
Y46622D01*
Y46291D01*
X91701D01*
Y38748D01*
X91745D01*
Y37827D01*
X86189D01*
Y37585D01*
X85827D01*
X85827Y37585D01*
X84913Y37465D01*
X84062Y37112D01*
X83748Y36871D01*
X83299Y37093D01*
Y42673D01*
X71050D01*
Y42717D01*
X70930Y43630D01*
X70577Y44482D01*
X70016Y45213D01*
X70016Y45213D01*
X68559Y46670D01*
X68210Y46938D01*
X68177Y47437D01*
X68835Y48094D01*
X69396Y48825D01*
X69749Y49677D01*
X69869Y50591D01*
Y56890D01*
X69749Y57803D01*
X69396Y58655D01*
X68835Y59386D01*
X65488Y62732D01*
X64757Y63293D01*
X63906Y63646D01*
X62992Y63766D01*
X52000D01*
Y64142D01*
X52000D01*
Y74765D01*
X53057Y75203D01*
X53264Y75362D01*
X59874D01*
Y82906D01*
X59829D01*
Y85280D01*
X64383D01*
Y81299D01*
D02*
G37*
G36*
X19170Y136367D02*
X14827Y132024D01*
X14266Y131293D01*
X13913Y130441D01*
X13793Y129528D01*
Y109252D01*
X13913Y108338D01*
X14266Y107487D01*
X14827Y106756D01*
X19250Y102332D01*
X19336Y101680D01*
X19790Y100585D01*
X20511Y99645D01*
X21451Y98924D01*
X22546Y98470D01*
X23198Y98384D01*
X26588Y94994D01*
Y88386D01*
X26708Y87472D01*
X27061Y86621D01*
X27622Y85890D01*
X33674Y79837D01*
Y74835D01*
X33039D01*
Y64142D01*
X33039D01*
Y64120D01*
X32686Y63766D01*
X17520D01*
X16606Y63646D01*
X15755Y63293D01*
X15023Y62732D01*
X8730Y56438D01*
X8077Y56353D01*
X6983Y55899D01*
X6042Y55178D01*
X5321Y54238D01*
X4868Y53143D01*
X4782Y52491D01*
X3409Y51118D01*
X3014Y50604D01*
X2541Y50764D01*
Y136829D01*
X18979D01*
X19170Y136367D01*
D02*
G37*
G36*
X51937Y89789D02*
Y85280D01*
X52769D01*
Y83634D01*
X52353Y83356D01*
X51962Y83518D01*
X50787Y83673D01*
X49613Y83518D01*
X48518Y83065D01*
X47578Y82343D01*
X46857Y81403D01*
X46403Y80309D01*
X46249Y79134D01*
X46403Y77959D01*
X46857Y76864D01*
X47578Y75924D01*
X48381Y75308D01*
X48220Y74835D01*
X43669D01*
Y64142D01*
X43669D01*
Y64120D01*
X43316Y63766D01*
X41370D01*
Y64142D01*
X41370D01*
Y74835D01*
X40735D01*
Y81299D01*
X40615Y82213D01*
X40262Y83064D01*
X39701Y83795D01*
X34226Y89270D01*
X34417Y89732D01*
X40976D01*
Y89732D01*
X40976D01*
X40976Y89732D01*
X41307Y89732D01*
Y89732D01*
X48850D01*
Y89777D01*
X50197D01*
X51111Y89897D01*
X51521Y90067D01*
X51937Y89789D01*
D02*
G37*
G36*
X129743Y2541D02*
X32399D01*
X32208Y3003D01*
X36355Y7149D01*
X36915Y7881D01*
X37268Y8732D01*
X37389Y9646D01*
Y25197D01*
X37389Y25197D01*
X37268Y26111D01*
X36915Y26962D01*
X36355Y27693D01*
X30499Y33549D01*
Y42435D01*
X32774Y44711D01*
X33236Y44520D01*
Y40126D01*
X40780D01*
Y40126D01*
X40780D01*
X40780Y40126D01*
X41110Y40126D01*
Y40126D01*
X48654D01*
Y40171D01*
X50197D01*
X51111Y40291D01*
X51324Y40380D01*
X51740Y40102D01*
Y39967D01*
X51708Y39890D01*
X51588Y38976D01*
Y33693D01*
X51543D01*
Y33451D01*
X49839D01*
X49317Y33852D01*
X48222Y34305D01*
X47047Y34460D01*
X45873Y34305D01*
X44778Y33852D01*
X43838Y33131D01*
X43117Y32191D01*
X42663Y31096D01*
X42508Y29921D01*
X42663Y28747D01*
X43117Y27652D01*
X43838Y26712D01*
X44778Y25991D01*
X45873Y25537D01*
X47047Y25382D01*
X48222Y25537D01*
X49317Y25991D01*
X49839Y26391D01*
X51543D01*
Y26150D01*
X58693D01*
Y33693D01*
X58648D01*
Y35673D01*
X64087D01*
X64110Y35504D01*
X64462Y34652D01*
X65023Y33921D01*
X69551Y29394D01*
X70282Y28833D01*
X71134Y28480D01*
X72047Y28360D01*
X83661D01*
X84575Y28480D01*
X85426Y28833D01*
X86158Y29394D01*
X87048Y30283D01*
X87775D01*
X87872Y29793D01*
X87691Y29718D01*
X86751Y28997D01*
X86030Y28057D01*
X85576Y26962D01*
X85422Y25787D01*
X85576Y24613D01*
X86030Y23518D01*
X86751Y22578D01*
X87691Y21857D01*
X88786Y21403D01*
X89961Y21249D01*
X109961D01*
X111135Y21403D01*
X111777Y21669D01*
X112230Y21857D01*
X113170Y22578D01*
X117948Y27356D01*
X118640Y27642D01*
X119674Y28436D01*
X120468Y29471D01*
X120967Y30676D01*
X121137Y31969D01*
X120967Y33261D01*
X120468Y34466D01*
X119674Y35501D01*
X118640Y36295D01*
X117435Y36794D01*
X116142Y36964D01*
X114849Y36794D01*
X113644Y36295D01*
X112609Y35501D01*
X111816Y34466D01*
X111529Y33775D01*
X108081Y30326D01*
X98850D01*
Y37827D01*
X98806D01*
Y38748D01*
X98850D01*
Y46291D01*
D01*
Y46291D01*
X98850Y46291D01*
X98850Y46622D01*
X98850D01*
Y54165D01*
X98554D01*
Y56102D01*
X98442Y56951D01*
X98210Y57510D01*
X98114Y57741D01*
X97888Y58036D01*
X97593Y58420D01*
X93436Y62578D01*
Y68819D01*
X93378Y69256D01*
Y70440D01*
X93794Y70718D01*
X94032Y70619D01*
X94417Y70460D01*
Y70190D01*
X94228Y69733D01*
X94108Y68819D01*
Y64370D01*
X94228Y63456D01*
X94581Y62605D01*
X95142Y61874D01*
X97110Y59905D01*
X97841Y59344D01*
X98693Y58992D01*
X99606Y58871D01*
X101740D01*
Y58827D01*
X109212D01*
X111189Y56850D01*
Y47016D01*
X121095D01*
Y56921D01*
X119475D01*
Y57087D01*
X119355Y58000D01*
X119167Y58452D01*
X119472Y58849D01*
X119488Y58847D01*
X120663Y59002D01*
X121758Y59455D01*
X122698Y60176D01*
X123419Y61116D01*
X123872Y62211D01*
X124027Y63386D01*
X123872Y64561D01*
X123419Y65655D01*
X122766Y66506D01*
Y67716D01*
X122710Y68141D01*
X122654Y68565D01*
X122491Y68960D01*
X122327Y69356D01*
X122032Y69740D01*
X121806Y70034D01*
X119050Y72790D01*
X118371Y73311D01*
X117976Y73475D01*
X117581Y73639D01*
X117157Y73695D01*
X116732Y73751D01*
X113024D01*
Y74047D01*
X105480D01*
Y74047D01*
X104998Y74047D01*
X103105Y75940D01*
X103105Y75940D01*
X103105Y75940D01*
X103311Y76356D01*
X103677Y76638D01*
X106040Y79000D01*
X106600Y79731D01*
X106953Y80582D01*
X107073Y81496D01*
X107073Y81496D01*
Y85433D01*
X106969Y86228D01*
X110517Y89777D01*
X111386D01*
Y88354D01*
X121291D01*
Y98260D01*
X111386D01*
Y96837D01*
X109055D01*
X108142Y96717D01*
X107290Y96364D01*
X106559Y95803D01*
X101976Y91221D01*
X101181Y91325D01*
X99244D01*
Y91567D01*
X99199D01*
Y92094D01*
X99244D01*
Y99638D01*
X86583D01*
Y92094D01*
X86627D01*
Y91567D01*
X86583D01*
Y84024D01*
X86879D01*
Y82664D01*
X82906D01*
Y82906D01*
X71444D01*
Y85280D01*
X83496D01*
Y92279D01*
X71444D01*
Y92323D01*
X71323Y93237D01*
X70971Y94088D01*
X70410Y94819D01*
X68989Y96239D01*
X68992Y96283D01*
X68992Y96283D01*
X68992Y96283D01*
D01*
X70213Y97504D01*
X70213Y97504D01*
X70774Y98235D01*
X71126Y99086D01*
X71247Y100000D01*
X71247Y100000D01*
Y100279D01*
X83496D01*
Y100604D01*
X83565Y100613D01*
X83960Y100777D01*
X84356Y100941D01*
X85035Y101462D01*
X87282Y103709D01*
X93732D01*
Y111252D01*
X93436D01*
Y112402D01*
X93380Y112826D01*
X93324Y113250D01*
X93160Y113645D01*
X92996Y114041D01*
X92702Y114425D01*
X92475Y114719D01*
X91097Y116097D01*
X90419Y116618D01*
X90023Y116782D01*
X89628Y116946D01*
X89204Y117002D01*
X88779Y117058D01*
X87372D01*
X86521Y117710D01*
X85427Y118164D01*
X84252Y118318D01*
X83077Y118164D01*
X81983Y117710D01*
X81042Y116989D01*
X80321Y116049D01*
X79868Y114954D01*
X79713Y113779D01*
X79868Y112605D01*
X80321Y111510D01*
X81042Y110570D01*
X81983Y109849D01*
X83077Y109395D01*
X83234Y108933D01*
X81581Y107280D01*
X71247D01*
Y108661D01*
X71126Y109575D01*
X70774Y110426D01*
X70213Y111158D01*
X44622Y136748D01*
X44650Y136829D01*
X129743D01*
Y2541D01*
D02*
G37*
D10*
X76968Y39173D02*
D03*
Y44173D02*
D03*
Y49173D02*
D03*
Y54173D02*
D03*
X58071Y39173D02*
D03*
Y44173D02*
D03*
Y49173D02*
D03*
Y54173D02*
D03*
X58268Y103779D02*
D03*
Y98779D02*
D03*
Y93779D02*
D03*
Y88779D02*
D03*
X77165Y103779D02*
D03*
Y98779D02*
D03*
Y93779D02*
D03*
Y88779D02*
D03*
D11*
X97638Y79134D02*
D03*
X93898D02*
D03*
X90158D02*
D03*
Y68819D02*
D03*
X97638D02*
D03*
D12*
X90158Y107480D02*
D03*
X95669D02*
D03*
X55118Y29921D02*
D03*
X60630D02*
D03*
X56299Y79134D02*
D03*
X61811D02*
D03*
X78150Y63976D02*
D03*
X72638D02*
D03*
X79331Y79134D02*
D03*
X73819D02*
D03*
X95669Y95866D02*
D03*
X90158D02*
D03*
X90158Y87795D02*
D03*
X95669D02*
D03*
X95276Y34055D02*
D03*
X89764D02*
D03*
X89764Y50394D02*
D03*
X95276D02*
D03*
X95276Y42520D02*
D03*
X89764D02*
D03*
D13*
X109252Y70472D02*
D03*
Y75984D02*
D03*
X105512Y62402D02*
D03*
Y56890D02*
D03*
X37205Y93307D02*
D03*
Y98819D02*
D03*
X45079Y98819D02*
D03*
Y93307D02*
D03*
X44882Y49213D02*
D03*
Y43701D02*
D03*
X37008Y43701D02*
D03*
Y49213D02*
D03*
D14*
X47835Y69488D02*
D03*
X37205D02*
D03*
D15*
X17323Y109252D02*
X23720Y102854D01*
X30118Y96457D01*
Y88386D02*
Y96457D01*
Y88386D02*
X37205Y81299D01*
X24252Y54173D02*
X58071D01*
X18504Y48425D02*
X24252Y54173D01*
X18504Y37795D02*
Y48425D01*
X62992Y60236D02*
X66339Y56890D01*
Y50591D02*
Y56890D01*
X64921Y49173D02*
X66339Y50591D01*
X48031Y60236D02*
X62992D01*
X37598Y113976D02*
X37795Y113779D01*
X37598Y113976D02*
Y122244D01*
X33268Y126575D02*
X37598Y122244D01*
X26339Y126575D02*
X33268D01*
X37795Y113779D02*
X45472D01*
X49409Y109843D01*
Y105118D02*
Y109843D01*
X17323Y129528D02*
X22047Y134252D01*
X42126D01*
X5906Y32480D02*
Y48622D01*
Y32480D02*
X18307Y20079D01*
Y9055D02*
Y20079D01*
X25945Y12598D02*
Y22677D01*
X18504Y30118D02*
X25945Y22677D01*
X18504Y30118D02*
Y37795D01*
X18307Y9055D02*
X22244Y5118D01*
X29331D01*
X33858Y9646D01*
Y25197D01*
X26969Y32087D02*
X33858Y25197D01*
X26969Y32087D02*
Y43898D01*
X32283Y49213D01*
X37008D01*
X115945Y52165D02*
X116142Y51968D01*
X115945Y52165D02*
Y57087D01*
X110630Y62402D02*
X115945Y57087D01*
X105512Y62402D02*
X110630D01*
X102362Y86614D02*
X109055Y93307D01*
X101181Y87795D02*
X102362Y86614D01*
X103543Y85433D01*
X109055Y93307D02*
X116339D01*
X50748Y103779D02*
X58268D01*
X49409Y105118D02*
X50748Y103779D01*
X67716Y100000D02*
Y108661D01*
X58268Y98779D02*
X66496D01*
X72047Y31890D02*
X83661D01*
X67520Y36417D02*
X72047Y31890D01*
X67520Y36417D02*
Y42717D01*
X55118Y29921D02*
X55118Y29921D01*
X99606Y62402D02*
X105512D01*
X97638Y64370D02*
X99606Y62402D01*
X97638Y64370D02*
Y68819D01*
X95276Y34055D02*
Y42520D01*
X95276Y42520D02*
Y50394D01*
X98425Y79134D02*
X101181D01*
X103543Y81496D01*
Y85433D01*
X95669Y87795D02*
X101181D01*
X55118Y29921D02*
Y38976D01*
X55118Y29921D02*
X55118Y29921D01*
X50669Y44173D02*
X58071D01*
X50197Y43701D02*
X50669Y44173D01*
X44882Y43701D02*
X50197D01*
X44882Y43701D02*
X44882Y43701D01*
X37008Y43701D02*
X44882D01*
X85827Y34055D02*
X89764D01*
X83661Y31890D02*
X85827Y34055D01*
X58071Y44173D02*
X66063D01*
X67520Y42717D01*
X95669Y87795D02*
Y95866D01*
X90158Y87795D02*
Y95866D01*
X79331Y79134D02*
X89370D01*
X70079D02*
X73819D01*
X67913Y81299D02*
X70079Y79134D01*
X67913Y81299D02*
Y92323D01*
X66457Y93779D02*
X67913Y92323D01*
X58268Y93779D02*
X66457D01*
X47835Y60433D02*
X48031Y60236D01*
X17520D02*
X48031D01*
X47835Y60433D02*
Y69488D01*
X37205D02*
Y81299D01*
X32480Y98819D02*
X37205D01*
X50669Y93779D02*
X58268D01*
X50197Y93307D02*
X50669Y93779D01*
X45079Y93307D02*
X50197D01*
X45079Y93307D02*
X45079Y93307D01*
X37205Y93307D02*
X45079D01*
Y98819D02*
X45079Y98819D01*
X37205Y98819D02*
X45079D01*
X45079Y98819D02*
X58228D01*
X56299Y79134D02*
Y88386D01*
X50787Y79134D02*
X56299D01*
X37008Y49213D02*
X37008Y49213D01*
X44882D01*
X44921Y49173D01*
X58071D01*
X64921D01*
X42126Y134252D02*
X67716Y108661D01*
X66496Y98779D02*
X67716Y100000D01*
X45079Y98819D02*
X58228D01*
X58268Y98779D01*
X30118Y96457D02*
X32480Y98819D01*
X17323Y109252D02*
Y129528D01*
X5906Y48622D02*
X17520Y60236D01*
X47047Y29921D02*
X55118D01*
D16*
X95669Y107480D02*
X112165D01*
X69488Y63976D02*
X72638D01*
X67913Y65551D02*
X69488Y63976D01*
X67913Y65551D02*
Y72441D01*
X63189D02*
X67913D01*
X61811Y73819D02*
X63189Y72441D01*
X61811Y73819D02*
Y79134D01*
X111614Y75984D02*
X122047D01*
X109252D02*
X111614D01*
X111417Y76181D02*
X111614Y75984D01*
X111417Y76181D02*
Y83071D01*
X122047Y75984D02*
X126181Y71850D01*
Y46654D02*
Y71850D01*
X121496Y41969D02*
X126181Y46654D01*
X116142Y41969D02*
X121496D01*
X111181D02*
X116142D01*
X105512Y47638D02*
X111181Y41969D01*
X105512Y47638D02*
Y56890D01*
X115945Y12598D02*
X122244Y18898D01*
Y35866D01*
X116142Y41969D02*
X122244Y35866D01*
X78543Y12598D02*
X115945D01*
X66339Y24803D02*
X78543Y12598D01*
X66339Y24803D02*
Y27953D01*
X86417Y42520D02*
X89764D01*
X84842Y44094D02*
X86417Y42520D01*
X84842Y44094D02*
Y46654D01*
X88583Y50394D01*
X89764D01*
X82362Y44173D02*
X84842Y46654D01*
X76968Y44173D02*
X82362D01*
X82323Y49173D02*
X84842Y46654D01*
X76968Y49173D02*
X82323D01*
X64370Y29921D02*
X66339Y27953D01*
X60630Y29921D02*
X64370D01*
X116339Y111653D02*
Y126575D01*
X112165Y107480D02*
X116339Y111653D01*
X112165Y107480D02*
X116339Y103307D01*
X119488Y63386D02*
Y67716D01*
X87008Y101575D02*
X93898D01*
X95669Y103346D01*
Y107480D01*
X90158D02*
Y112402D01*
X88779Y113779D02*
X90158Y112402D01*
X84252Y113779D02*
X88779D01*
X86417Y107480D02*
X90158D01*
X82717Y103779D02*
X86417Y107480D01*
X77165Y103779D02*
X82717D01*
X84213Y98779D02*
X87008Y101575D01*
X116732Y70472D02*
X119488Y67716D01*
X109252Y70472D02*
X116732D01*
X103937D02*
X109252D01*
X100787Y73622D02*
X103937Y70472D01*
X95276Y73622D02*
X100787D01*
X93898Y75000D02*
X95276Y73622D01*
X93898Y75000D02*
Y79134D01*
X77165Y98779D02*
X84213D01*
X77165Y93779D02*
Y98779D01*
X95276Y42520D02*
X95276Y42520D01*
X95276Y50394D02*
Y56102D01*
X90158Y61221D02*
X95276Y56102D01*
X90158Y61221D02*
Y68819D01*
X78150Y59252D02*
Y63976D01*
X76968Y58071D02*
X78150Y59252D01*
X76968Y54173D02*
Y58071D01*
X83465Y59449D02*
Y62795D01*
X82284Y63976D02*
X83465Y62795D01*
X78150Y63976D02*
X82284D01*
X90158Y79134D02*
Y87795D01*
D17*
X109961Y25787D02*
X116142Y31969D01*
X89961Y25787D02*
X109961D01*
D18*
X23425Y71653D02*
D03*
X18504Y37795D02*
D03*
X37795Y113779D02*
D03*
X116142Y51968D02*
D03*
X116339Y93307D02*
D03*
D19*
X116142Y31969D02*
D03*
Y41969D02*
D03*
X116339Y103307D02*
D03*
D20*
X25945Y12598D02*
D03*
X115945D02*
D03*
X116339Y126575D02*
D03*
X26339D02*
D03*
D21*
X23720Y102854D02*
D03*
X67913Y72441D02*
D03*
X89961Y25787D02*
D03*
X119488Y63386D02*
D03*
X111417Y83071D02*
D03*
X66339Y27953D02*
D03*
X50787Y79134D02*
D03*
X83465Y59449D02*
D03*
X100787Y107480D02*
D03*
X84252Y113779D02*
D03*
X84842Y46654D02*
D03*
X9252Y51968D02*
D03*
X47047Y29921D02*
D03*
X42520Y86417D02*
D03*
M02*
