G04 Layer_Color=32896*
%FSLAX25Y25*%
%MOIN*%
G70*
G01*
G75*
%ADD25C,0.01000*%
%ADD36C,0.00200*%
D25*
X102164Y123016D02*
X98165D01*
X96166Y121016D01*
X98165Y119017D01*
X102164D01*
X99165D01*
Y123016D01*
X102164Y117018D02*
X98165D01*
Y114019D01*
X99165Y113019D01*
X102164D01*
X97165Y110020D02*
X98165D01*
Y111020D01*
Y109020D01*
Y110020D01*
X101164D01*
X102164Y109020D01*
Y103022D02*
Y105022D01*
X101164Y106021D01*
X99165D01*
X98165Y105022D01*
Y103022D01*
X99165Y102023D01*
X100164D01*
Y106021D01*
X102164Y100023D02*
X98165D01*
Y97024D01*
X99165Y96025D01*
X102164D01*
Y94025D02*
X98165D01*
Y91026D01*
X99165Y90026D01*
X102164D01*
X98165Y87027D02*
Y85028D01*
X99165Y84028D01*
X102164D01*
Y87027D01*
X101164Y88027D01*
X100164Y87027D01*
Y84028D01*
X96166Y76031D02*
X102164D01*
Y73032D01*
X101164Y72032D01*
X97165D01*
X96166Y73032D01*
Y76031D01*
X102164Y70033D02*
Y68033D01*
Y69033D01*
X98165D01*
Y70033D01*
X102164Y64035D02*
X97165D01*
X99165D01*
Y65035D01*
Y63035D01*
Y64035D01*
X97165D01*
X96166Y63035D01*
X102164Y59036D02*
X97165D01*
X99165D01*
Y60036D01*
Y58037D01*
Y59036D01*
X97165D01*
X96166Y58037D01*
X102164Y52039D02*
Y54038D01*
X101164Y55038D01*
X99165D01*
X98165Y54038D01*
Y52039D01*
X99165Y51039D01*
X100164D01*
Y55038D01*
X98165Y49040D02*
X102164D01*
X100164D01*
X99165Y48040D01*
X98165Y47040D01*
Y46041D01*
X102164Y40043D02*
Y42042D01*
X101164Y43042D01*
X99165D01*
X98165Y42042D01*
Y40043D01*
X99165Y39043D01*
X100164D01*
Y43042D01*
X102164Y37044D02*
X98165D01*
Y34045D01*
X99165Y33045D01*
X102164D01*
X97165Y30046D02*
X98165D01*
Y31045D01*
Y29046D01*
Y30046D01*
X101164D01*
X102164Y29046D01*
Y26047D02*
Y24048D01*
Y25047D01*
X98165D01*
Y26047D01*
Y20049D02*
Y18050D01*
X99165Y17050D01*
X102164D01*
Y20049D01*
X101164Y21049D01*
X100164Y20049D01*
Y17050D01*
X102164Y15051D02*
Y13051D01*
Y14051D01*
X96166D01*
Y15051D01*
X111961Y123016D02*
X105963D01*
Y120017D01*
X106963Y119017D01*
X108962D01*
X109962Y120017D01*
Y123016D01*
X107963Y117018D02*
X111961D01*
X109962D01*
X108962Y116018D01*
X107963Y115018D01*
Y114019D01*
X111961Y108021D02*
Y110020D01*
X110962Y111020D01*
X108962D01*
X107963Y110020D01*
Y108021D01*
X108962Y107021D01*
X109962D01*
Y111020D01*
X107963Y104022D02*
Y102023D01*
X108962Y101023D01*
X111961D01*
Y104022D01*
X110962Y105022D01*
X109962Y104022D01*
Y101023D01*
X111961Y99023D02*
X107963D01*
Y98024D01*
X108962Y97024D01*
X111961D01*
X108962D01*
X107963Y96025D01*
X108962Y95025D01*
X111961D01*
X113961Y93025D02*
X107963D01*
Y90026D01*
X108962Y89027D01*
X110962D01*
X111961Y90026D01*
Y93025D01*
Y87027D02*
Y85028D01*
Y86028D01*
X105963D01*
Y87027D01*
X111961Y82029D02*
Y80030D01*
Y81029D01*
X107963D01*
Y82029D01*
X111961Y76031D02*
X106963D01*
X108962D01*
Y77031D01*
Y75031D01*
Y76031D01*
X106963D01*
X105963Y75031D01*
X111961Y72032D02*
Y70033D01*
Y71033D01*
X107963D01*
Y72032D01*
X111961Y64035D02*
Y66034D01*
X110962Y67034D01*
X108962D01*
X107963Y66034D01*
Y64035D01*
X108962Y63035D01*
X109962D01*
Y67034D01*
X107963Y61036D02*
X111961D01*
X109962D01*
X108962Y60036D01*
X107963Y59036D01*
Y58037D01*
Y49040D02*
X111961Y47040D01*
X107963Y45041D01*
X111961Y43042D02*
Y41042D01*
Y42042D01*
X105963D01*
X106963Y43042D01*
X111961Y38043D02*
X110962D01*
Y37044D01*
X111961D01*
Y38043D01*
X106963Y33045D02*
X105963Y32045D01*
Y30046D01*
X106963Y29046D01*
X110962D01*
X111961Y30046D01*
Y32045D01*
X110962Y33045D01*
X106963D01*
D36*
X84639Y65431D02*
Y67431D01*
Y70031D02*
Y70831D01*
Y71631D02*
Y74431D01*
Y76231D02*
Y77031D01*
Y78631D02*
Y79431D01*
Y81031D02*
Y81831D01*
Y82031D02*
Y83631D01*
Y86031D02*
Y87031D01*
Y87831D02*
Y88631D01*
Y88831D02*
Y90631D01*
Y91631D02*
Y92431D01*
Y93831D02*
Y94831D01*
X84439Y65231D02*
Y67631D01*
Y70031D02*
Y70831D01*
Y71631D02*
Y74631D01*
Y76031D02*
Y77231D01*
Y78431D02*
Y79631D01*
Y81031D02*
Y83831D01*
Y86031D02*
Y87031D01*
Y87831D02*
Y90831D01*
Y91631D02*
Y92431D01*
Y93831D02*
Y94831D01*
X84239Y65031D02*
Y67831D01*
Y70031D02*
Y70831D01*
Y71631D02*
Y74831D01*
Y76031D02*
Y77231D01*
Y78431D02*
Y79631D01*
Y81031D02*
Y84031D01*
Y86031D02*
Y87031D01*
Y87831D02*
Y91031D01*
Y91631D02*
Y92431D01*
Y93831D02*
Y94831D01*
X84039Y65031D02*
Y68031D01*
Y70031D02*
Y70831D01*
Y71631D02*
Y75031D01*
Y76031D02*
Y77231D01*
Y78431D02*
Y79631D01*
Y81031D02*
Y84231D01*
Y86031D02*
Y87031D01*
Y87831D02*
Y91031D01*
Y91631D02*
Y92431D01*
Y93831D02*
Y94831D01*
X83839Y65231D02*
Y66031D01*
Y66831D02*
Y68031D01*
Y70031D02*
Y70831D01*
Y71631D02*
Y72831D01*
Y74031D02*
Y75031D01*
Y75831D02*
Y77431D01*
Y78231D02*
Y79831D01*
Y81031D02*
Y82231D01*
Y83031D02*
Y84231D01*
Y86031D02*
Y87031D01*
Y87831D02*
Y88831D01*
Y90031D02*
Y91031D01*
Y91631D02*
Y92431D01*
Y93831D02*
Y94831D01*
X83639Y65431D02*
Y65631D01*
Y67031D02*
Y68031D01*
Y70031D02*
Y70831D01*
Y71631D02*
Y72631D01*
Y74031D02*
Y75031D01*
Y75831D02*
Y77431D01*
Y78231D02*
Y79831D01*
Y81031D02*
Y82031D01*
Y83231D02*
Y84231D01*
Y86031D02*
Y87031D01*
Y87831D02*
Y88831D01*
Y90231D02*
Y91031D01*
Y91631D02*
Y92431D01*
Y93831D02*
Y94831D01*
X83439Y67231D02*
Y68231D01*
Y70031D02*
Y70831D01*
Y71631D02*
Y72631D01*
Y74031D02*
Y75031D01*
Y75831D02*
Y77431D01*
Y78231D02*
Y79831D01*
Y81031D02*
Y82031D01*
Y83231D02*
Y84231D01*
Y86031D02*
Y87031D01*
Y87831D02*
Y88631D01*
Y90231D02*
Y91031D01*
Y91631D02*
Y92431D01*
Y93831D02*
Y94831D01*
X83239Y67231D02*
Y68231D01*
Y70031D02*
Y70831D01*
Y71631D02*
Y72631D01*
Y74031D02*
Y75031D01*
Y75831D02*
Y77431D01*
Y78231D02*
Y80031D01*
Y81031D02*
Y82031D01*
Y83431D02*
Y84231D01*
Y86031D02*
Y87031D01*
Y87831D02*
Y88631D01*
Y90031D02*
Y91031D01*
Y91631D02*
Y92431D01*
Y93831D02*
Y94831D01*
X83039Y64831D02*
Y68231D01*
Y70031D02*
Y70831D01*
Y71631D02*
Y75031D01*
Y75631D02*
Y76631D01*
Y76831D02*
Y77631D01*
Y78031D02*
Y80031D01*
Y81031D02*
Y82031D01*
Y83431D02*
Y84231D01*
Y86031D02*
Y87031D01*
Y87831D02*
Y91031D01*
Y91631D02*
Y92431D01*
Y93831D02*
Y94831D01*
X82839Y64831D02*
Y68231D01*
Y70031D02*
Y70831D01*
Y71631D02*
Y74831D01*
Y75631D02*
Y76431D01*
Y76831D02*
Y77631D01*
Y78031D02*
Y78831D01*
Y79231D02*
Y80031D01*
Y81031D02*
Y82031D01*
Y83431D02*
Y84231D01*
Y86031D02*
Y87031D01*
Y87831D02*
Y90831D01*
Y91631D02*
Y92431D01*
Y93831D02*
Y94831D01*
X82639Y64831D02*
Y68231D01*
Y70031D02*
Y70831D01*
Y71631D02*
Y74631D01*
Y75631D02*
Y76431D01*
Y76831D02*
Y77631D01*
Y78031D02*
Y78831D01*
Y79231D02*
Y80031D01*
Y81031D02*
Y82031D01*
Y83431D02*
Y84231D01*
Y86031D02*
Y87031D01*
Y87831D02*
Y90631D01*
Y91631D02*
Y92431D01*
Y93831D02*
Y94831D01*
X82439Y64831D02*
Y68231D01*
Y70031D02*
Y70831D01*
Y71631D02*
Y74231D01*
Y75431D02*
Y76431D01*
Y76831D02*
Y78831D01*
Y79231D02*
Y80231D01*
Y81031D02*
Y82031D01*
Y83431D02*
Y84231D01*
Y86031D02*
Y87031D01*
Y87831D02*
Y90431D01*
Y91631D02*
Y92431D01*
Y93831D02*
Y94831D01*
X82239Y64831D02*
Y65831D01*
Y67231D02*
Y68231D01*
Y70031D02*
Y70831D01*
Y71631D02*
Y72631D01*
Y75431D02*
Y76431D01*
Y77031D02*
Y78631D01*
Y79231D02*
Y80231D01*
Y81031D02*
Y82031D01*
Y83431D02*
Y84231D01*
Y86031D02*
Y87031D01*
Y87831D02*
Y88631D01*
Y91631D02*
Y92431D01*
Y93831D02*
Y94831D01*
X82039Y64831D02*
Y65831D01*
Y67231D02*
Y68231D01*
Y69831D02*
Y70831D01*
Y71631D02*
Y72631D01*
Y75431D02*
Y76231D01*
Y77031D02*
Y78631D01*
Y79431D02*
Y80231D01*
Y81031D02*
Y82031D01*
Y83231D02*
Y84231D01*
Y86031D02*
Y87031D01*
Y87831D02*
Y88631D01*
Y91631D02*
Y92631D01*
Y93831D02*
Y94831D01*
X81839Y64831D02*
Y66031D01*
Y67031D02*
Y68031D01*
Y69831D02*
Y70831D01*
Y71631D02*
Y72631D01*
Y75231D02*
Y76231D01*
Y77031D02*
Y78631D01*
Y79431D02*
Y80431D01*
Y81031D02*
Y82231D01*
Y83231D02*
Y84231D01*
Y85831D02*
Y87031D01*
Y87831D02*
Y88831D01*
Y91631D02*
Y92631D01*
Y93631D02*
Y94831D01*
X81639Y65031D02*
Y66231D01*
Y66831D02*
Y68031D01*
Y68631D02*
Y69031D01*
Y69431D02*
Y70831D01*
Y71631D02*
Y72831D01*
Y73831D02*
Y74431D01*
Y75231D02*
Y76231D01*
Y77231D02*
Y78431D01*
Y79431D02*
Y80431D01*
Y81031D02*
Y82431D01*
Y82831D02*
Y84231D01*
Y84631D02*
Y85231D01*
Y85631D02*
Y87031D01*
Y87831D02*
Y89031D01*
Y90031D02*
Y90631D01*
Y91631D02*
Y93031D01*
Y93431D02*
Y94831D01*
X81439Y65031D02*
Y67831D01*
Y68431D02*
Y70831D01*
Y71831D02*
Y74831D01*
Y75231D02*
Y76231D01*
Y77231D02*
Y78431D01*
Y79631D02*
Y80431D01*
Y81031D02*
Y84231D01*
Y84431D02*
Y87031D01*
Y87831D02*
Y90831D01*
Y91631D02*
Y94831D01*
X81239Y65231D02*
Y67831D01*
Y68231D02*
Y70831D01*
Y71831D02*
Y74831D01*
Y75031D02*
Y76031D01*
Y77231D02*
Y78431D01*
Y79631D02*
Y80631D01*
Y81031D02*
Y84031D01*
Y84231D02*
Y87031D01*
Y88031D02*
Y90831D01*
Y91831D02*
Y94831D01*
X81039Y65431D02*
Y67631D01*
Y68231D02*
Y70831D01*
Y72031D02*
Y74631D01*
Y75031D02*
Y76031D01*
Y77431D02*
Y78231D01*
Y79631D02*
Y80631D01*
Y81031D02*
Y83831D01*
Y84231D02*
Y87031D01*
Y88231D02*
Y90631D01*
Y92031D02*
Y94831D01*
X80839Y65631D02*
Y67231D01*
Y68231D02*
Y69831D01*
Y70031D02*
Y70831D01*
Y72231D02*
Y74431D01*
Y75031D02*
Y76031D01*
Y77431D02*
Y78231D01*
Y79631D02*
Y80631D01*
Y81031D02*
Y81831D01*
Y82231D02*
Y83631D01*
Y84431D02*
Y85831D01*
Y86031D02*
Y87031D01*
Y88431D02*
Y90431D01*
Y92231D02*
Y93631D01*
Y93831D02*
Y94831D01*
X80639Y81031D02*
Y81831D01*
Y93831D02*
Y94831D01*
X80439Y81031D02*
Y81831D01*
Y93831D02*
Y94831D01*
X80239Y81031D02*
Y81831D01*
Y93831D02*
Y94831D01*
X80039Y81031D02*
Y81831D01*
Y93831D02*
Y94831D01*
X79839Y81031D02*
Y81831D01*
Y93831D02*
Y94831D01*
X79639Y81031D02*
Y81831D01*
Y93831D02*
Y94831D01*
X79439Y81031D02*
Y81831D01*
Y93831D02*
Y94831D01*
X79239Y81031D02*
Y81831D01*
Y93831D02*
Y94831D01*
X79039Y93831D02*
Y94831D01*
X78839Y93831D02*
Y94831D01*
X78639Y93831D02*
Y94831D01*
X78439Y61231D02*
Y62831D01*
Y64831D02*
Y66231D01*
Y69031D02*
Y69831D01*
Y70631D02*
Y71631D01*
Y71831D02*
Y73231D01*
Y75431D02*
Y77031D01*
Y79031D02*
Y80831D01*
Y83831D02*
Y84831D01*
Y86231D02*
Y87231D01*
Y88431D02*
Y90031D01*
Y92231D02*
Y93631D01*
Y93831D02*
Y94831D01*
Y96431D02*
Y97831D01*
X78239Y60831D02*
Y63231D01*
Y64431D02*
Y66631D01*
Y69031D02*
Y69831D01*
Y70631D02*
Y73631D01*
Y75231D02*
Y77431D01*
Y78831D02*
Y81231D01*
Y83831D02*
Y84831D01*
Y86231D02*
Y87231D01*
Y88231D02*
Y90431D01*
Y92031D02*
Y94831D01*
Y96031D02*
Y98231D01*
X78039Y60631D02*
Y63431D01*
Y64231D02*
Y66831D01*
Y69031D02*
Y69831D01*
Y70631D02*
Y73831D01*
Y75031D02*
Y77631D01*
Y78631D02*
Y81631D01*
Y83831D02*
Y84831D01*
Y86231D02*
Y87231D01*
Y87831D02*
Y90631D01*
Y91831D02*
Y94831D01*
Y95831D02*
Y98431D01*
X77839Y60631D02*
Y63631D01*
Y64031D02*
Y67031D01*
Y69031D02*
Y69831D01*
Y70631D02*
Y73831D01*
Y74831D02*
Y77631D01*
Y78431D02*
Y81831D01*
Y83831D02*
Y84831D01*
Y86231D02*
Y87231D01*
Y87831D02*
Y90831D01*
Y91631D02*
Y94831D01*
Y95631D02*
Y98631D01*
X77639Y60831D02*
Y61831D01*
Y62431D02*
Y63631D01*
Y64231D02*
Y65231D01*
Y65631D02*
Y67031D01*
Y69031D02*
Y69831D01*
Y70631D02*
Y72231D01*
Y72431D02*
Y74031D01*
Y74631D02*
Y76031D01*
Y76431D02*
Y77831D01*
Y78431D02*
Y79631D01*
Y80431D02*
Y81631D01*
Y83831D02*
Y84831D01*
Y86231D02*
Y87231D01*
Y88031D02*
Y89031D01*
Y89631D02*
Y91031D01*
Y91631D02*
Y93031D01*
Y93431D02*
Y94831D01*
Y95631D02*
Y97031D01*
Y97231D02*
Y98631D01*
X77439Y61031D02*
Y61431D01*
Y62831D02*
Y63831D01*
Y64431D02*
Y64831D01*
Y66031D02*
Y67231D01*
Y69031D02*
Y69831D01*
Y70631D02*
Y71831D01*
Y72831D02*
Y74031D01*
Y74631D02*
Y75831D01*
Y76831D02*
Y77831D01*
Y78231D02*
Y79231D01*
Y80831D02*
Y81431D01*
Y83831D02*
Y84831D01*
Y86231D02*
Y87231D01*
Y88231D02*
Y88631D01*
Y90031D02*
Y91031D01*
Y91631D02*
Y92631D01*
Y93631D02*
Y94831D01*
Y95431D02*
Y96631D01*
Y97631D02*
Y98631D01*
X77239Y62831D02*
Y63831D01*
Y66231D02*
Y67231D01*
Y69031D02*
Y69831D01*
Y70631D02*
Y71631D01*
Y73031D02*
Y74031D01*
Y74631D02*
Y75631D01*
Y76831D02*
Y77831D01*
Y78231D02*
Y79231D01*
Y81031D02*
Y81231D01*
Y83831D02*
Y84831D01*
Y86231D02*
Y87231D01*
Y90031D02*
Y91031D01*
Y91631D02*
Y92631D01*
Y93831D02*
Y94831D01*
Y95431D02*
Y96431D01*
Y97831D02*
Y98831D01*
X77039Y63031D02*
Y63831D01*
Y66231D02*
Y67231D01*
Y69031D02*
Y69831D01*
Y70631D02*
Y71631D01*
Y73031D02*
Y74031D01*
Y74631D02*
Y75631D01*
Y77031D02*
Y78031D01*
Y78231D02*
Y79431D01*
Y83831D02*
Y84831D01*
Y86231D02*
Y87231D01*
Y90231D02*
Y91031D01*
Y91631D02*
Y92431D01*
Y93831D02*
Y94831D01*
Y95431D02*
Y96431D01*
Y97831D02*
Y98831D01*
X76839Y60631D02*
Y63831D01*
Y66431D02*
Y67231D01*
Y69031D02*
Y69831D01*
Y70631D02*
Y71631D01*
Y73031D02*
Y74031D01*
Y74631D02*
Y75431D01*
Y77031D02*
Y78031D01*
Y78431D02*
Y80631D01*
Y83831D02*
Y84831D01*
Y86231D02*
Y87231D01*
Y87831D02*
Y91031D01*
Y91631D02*
Y92431D01*
Y93831D02*
Y94831D01*
Y95431D02*
Y96431D01*
Y97831D02*
Y98831D01*
X76639Y60631D02*
Y63831D01*
Y66431D02*
Y67231D01*
Y69031D02*
Y69831D01*
Y70631D02*
Y71631D01*
Y73031D02*
Y74031D01*
Y74631D02*
Y75431D01*
Y77031D02*
Y78031D01*
Y78431D02*
Y81031D01*
Y83831D02*
Y84831D01*
Y86231D02*
Y87231D01*
Y87831D02*
Y91031D01*
Y91631D02*
Y92431D01*
Y93831D02*
Y94831D01*
Y95431D02*
Y96231D01*
Y97831D02*
Y98831D01*
X76439Y60631D02*
Y63831D01*
Y66431D02*
Y67431D01*
Y69031D02*
Y69831D01*
Y70631D02*
Y71631D01*
Y73031D02*
Y74031D01*
Y74631D02*
Y75431D01*
Y77031D02*
Y78031D01*
Y78631D02*
Y81231D01*
Y83831D02*
Y84831D01*
Y86231D02*
Y87231D01*
Y87831D02*
Y91031D01*
Y91631D02*
Y92431D01*
Y93831D02*
Y94831D01*
Y95431D02*
Y96231D01*
Y97831D02*
Y98831D01*
X76239Y60631D02*
Y63831D01*
Y66431D02*
Y67231D01*
Y69031D02*
Y69831D01*
Y70631D02*
Y71631D01*
Y73031D02*
Y74031D01*
Y74631D02*
Y75431D01*
Y77031D02*
Y78031D01*
Y78831D02*
Y81431D01*
Y83831D02*
Y84831D01*
Y86231D02*
Y87231D01*
Y87831D02*
Y91031D01*
Y91631D02*
Y92431D01*
Y93831D02*
Y94831D01*
Y95431D02*
Y96231D01*
Y97831D02*
Y98831D01*
X76039Y60631D02*
Y61431D01*
Y63031D02*
Y63831D01*
Y66431D02*
Y67231D01*
Y69031D02*
Y69831D01*
Y70631D02*
Y71631D01*
Y73031D02*
Y74031D01*
Y74631D02*
Y75431D01*
Y77031D02*
Y78031D01*
Y79631D02*
Y81431D01*
Y83831D02*
Y84831D01*
Y86231D02*
Y87231D01*
Y87831D02*
Y88631D01*
Y90231D02*
Y91031D01*
Y91631D02*
Y92431D01*
Y93831D02*
Y94831D01*
Y95431D02*
Y96431D01*
Y97831D02*
Y98831D01*
X75839Y60631D02*
Y61431D01*
Y63031D02*
Y63831D01*
Y66231D02*
Y67231D01*
Y69031D02*
Y69831D01*
Y70631D02*
Y71631D01*
Y73031D02*
Y74031D01*
Y74631D02*
Y75631D01*
Y77031D02*
Y78031D01*
Y80631D02*
Y81631D01*
Y83831D02*
Y84831D01*
Y86231D02*
Y87231D01*
Y87831D02*
Y88631D01*
Y90231D02*
Y91031D01*
Y91631D02*
Y92631D01*
Y93831D02*
Y94831D01*
Y95431D02*
Y96431D01*
Y97831D02*
Y98831D01*
X75639Y60631D02*
Y61631D01*
Y62831D02*
Y63831D01*
Y64431D02*
Y64831D01*
Y66231D02*
Y67231D01*
Y68831D02*
Y69831D01*
Y70631D02*
Y71631D01*
Y73031D02*
Y74031D01*
Y74631D02*
Y75631D01*
Y76831D02*
Y77831D01*
Y80631D02*
Y81631D01*
Y83831D02*
Y84831D01*
Y86031D02*
Y87231D01*
Y87831D02*
Y88831D01*
Y90031D02*
Y91031D01*
Y91631D02*
Y92631D01*
Y93831D02*
Y94831D01*
Y95431D02*
Y96431D01*
Y97631D02*
Y98631D01*
X75439Y60631D02*
Y61831D01*
Y62631D02*
Y63831D01*
Y64231D02*
Y65031D01*
Y65831D02*
Y67231D01*
Y67631D02*
Y68031D01*
Y68631D02*
Y69831D01*
Y70631D02*
Y71631D01*
Y73031D02*
Y74031D01*
Y74631D02*
Y75831D01*
Y76631D02*
Y77831D01*
Y78631D02*
Y79431D01*
Y80431D02*
Y81431D01*
Y83831D02*
Y85031D01*
Y85831D02*
Y87231D01*
Y87831D02*
Y89031D01*
Y89831D02*
Y91031D01*
Y91631D02*
Y92831D01*
Y93631D02*
Y94831D01*
Y95431D02*
Y96631D01*
Y97431D02*
Y98631D01*
X75239Y60631D02*
Y63631D01*
Y64031D02*
Y67031D01*
Y67431D02*
Y69831D01*
Y70631D02*
Y71631D01*
Y73031D02*
Y74031D01*
Y74831D02*
Y77831D01*
Y78631D02*
Y81431D01*
Y84031D02*
Y87231D01*
Y88031D02*
Y90831D01*
Y91631D02*
Y94831D01*
Y95631D02*
Y98631D01*
X75039Y60831D02*
Y63631D01*
Y64031D02*
Y66831D01*
Y67231D02*
Y69831D01*
Y70631D02*
Y71631D01*
Y73031D02*
Y74031D01*
Y74831D02*
Y77631D01*
Y78431D02*
Y81431D01*
Y84031D02*
Y87231D01*
Y88031D02*
Y90831D01*
Y91831D02*
Y94831D01*
Y95631D02*
Y98431D01*
X74839Y61031D02*
Y63431D01*
Y64231D02*
Y66831D01*
Y67231D02*
Y69831D01*
Y70631D02*
Y71631D01*
Y73031D02*
Y74031D01*
Y75031D02*
Y77431D01*
Y78431D02*
Y81231D01*
Y84231D02*
Y87231D01*
Y88231D02*
Y90631D01*
Y91831D02*
Y94831D01*
Y95831D02*
Y98231D01*
X74639Y61231D02*
Y63231D01*
Y64631D02*
Y66431D01*
Y67231D02*
Y68831D01*
Y69031D02*
Y69831D01*
Y70631D02*
Y71631D01*
Y73031D02*
Y74031D01*
Y75231D02*
Y77231D01*
Y78831D02*
Y81031D01*
Y84431D02*
Y86031D01*
Y86231D02*
Y87231D01*
Y88431D02*
Y90431D01*
Y92031D02*
Y94831D01*
Y96231D02*
Y98031D01*
X74439Y61831D02*
Y62631D01*
Y65031D02*
Y65831D01*
Y67631D02*
Y68431D01*
Y75831D02*
Y76631D01*
Y79431D02*
Y80431D01*
Y84831D02*
Y85631D01*
Y89031D02*
Y89831D01*
Y92631D02*
Y93431D01*
Y96631D02*
Y97631D01*
X71439Y70431D02*
Y70831D01*
Y88431D02*
Y88831D01*
X71239Y70231D02*
Y71031D01*
Y88231D02*
Y89031D01*
X71039Y70031D02*
Y71431D01*
Y87831D02*
Y89231D01*
X70839Y69831D02*
Y71631D01*
Y87631D02*
Y89431D01*
X70639Y69631D02*
Y72031D01*
Y87431D02*
Y89631D01*
X70439Y69431D02*
Y72231D01*
Y87031D02*
Y89831D01*
X70239Y69231D02*
Y72631D01*
Y86831D02*
Y90031D01*
X70039Y69031D02*
Y72831D01*
Y75031D02*
Y75431D01*
Y83831D02*
Y84431D01*
Y86431D02*
Y90231D01*
X69839Y68831D02*
Y73231D01*
Y74631D02*
Y75631D01*
Y83831D02*
Y84831D01*
Y86231D02*
Y90431D01*
X69639Y68631D02*
Y73431D01*
Y74231D02*
Y75631D01*
Y83631D02*
Y85031D01*
Y85831D02*
Y90631D01*
X69439Y68431D02*
Y75631D01*
Y83631D02*
Y90831D01*
X69239Y68231D02*
Y75831D01*
Y83431D02*
Y91031D01*
X69039Y68031D02*
Y75831D01*
Y83431D02*
Y91231D01*
X68839Y67831D02*
Y76031D01*
Y83431D02*
Y91431D01*
X68639Y67631D02*
Y76031D01*
Y83231D02*
Y91631D01*
X68439Y67831D02*
Y76231D01*
Y83231D02*
Y91631D01*
X68239Y67831D02*
Y76231D01*
Y83031D02*
Y91431D01*
X68039Y68031D02*
Y76231D01*
Y83031D02*
Y91231D01*
X67839Y68231D02*
Y76431D01*
Y82831D02*
Y91231D01*
X67639Y68231D02*
Y76431D01*
Y82831D02*
Y91031D01*
X67439Y68431D02*
Y76631D01*
Y82831D02*
Y90831D01*
X67239Y68631D02*
Y76631D01*
Y82631D02*
Y90831D01*
X67039Y68631D02*
Y76631D01*
Y82631D02*
Y90631D01*
X66839Y68831D02*
Y76831D01*
Y82431D02*
Y90431D01*
X66639Y69031D02*
Y76831D01*
Y82431D02*
Y90431D01*
X66439Y69031D02*
Y77031D01*
Y82431D02*
Y90231D01*
X66239Y69231D02*
Y77031D01*
Y82231D02*
Y90031D01*
X66039Y69431D02*
Y77231D01*
Y82231D02*
Y90031D01*
X65839Y69431D02*
Y77231D01*
Y82031D02*
Y89831D01*
X65639Y69631D02*
Y77231D01*
Y82031D02*
Y89631D01*
X65439Y69831D02*
Y77431D01*
Y81831D02*
Y89631D01*
X65239Y69831D02*
Y77431D01*
Y81831D02*
Y89631D01*
X65039Y69631D02*
Y77631D01*
Y81831D02*
Y89631D01*
X64839Y69631D02*
Y77631D01*
Y81631D02*
Y89631D01*
X64639Y69431D02*
Y77631D01*
Y81631D02*
Y89831D01*
X64439Y69431D02*
Y77831D01*
Y81431D02*
Y89831D01*
X64239Y69431D02*
Y77831D01*
Y81431D02*
Y90031D01*
X64039Y69231D02*
Y78031D01*
Y81431D02*
Y90031D01*
X63839Y69231D02*
Y78031D01*
Y81231D02*
Y90031D01*
X63639Y69031D02*
Y78031D01*
Y81231D02*
Y90231D01*
X63439Y69031D02*
Y78031D01*
Y81231D02*
Y90231D01*
X63239Y69031D02*
Y77831D01*
Y81431D02*
Y90431D01*
X63039Y68831D02*
Y77431D01*
Y81831D02*
Y90431D01*
X62839Y68831D02*
Y77231D01*
Y82031D02*
Y90431D01*
X62639Y68631D02*
Y77031D01*
Y82231D02*
Y90631D01*
X62439Y68631D02*
Y76831D01*
Y82631D02*
Y90631D01*
X62239Y67831D02*
Y76631D01*
Y82631D02*
Y91431D01*
X62039Y66631D02*
Y76431D01*
Y82831D02*
Y92631D01*
X61839Y65631D02*
Y76231D01*
Y83031D02*
Y93631D01*
X61639Y64831D02*
Y76231D01*
Y83231D02*
Y94431D01*
X61439Y64831D02*
Y76031D01*
Y83231D02*
Y94631D01*
X61239Y64831D02*
Y76031D01*
Y83431D02*
Y94631D01*
X61039Y64831D02*
Y75831D01*
Y83431D02*
Y94631D01*
X60839Y64831D02*
Y75831D01*
Y83431D02*
Y94631D01*
X60639Y64831D02*
Y75831D01*
Y83631D02*
Y94631D01*
X60439Y64831D02*
Y75631D01*
Y83631D02*
Y94631D01*
X60239Y64831D02*
Y75631D01*
Y83631D02*
Y94631D01*
X60039Y64831D02*
Y75631D01*
Y83631D02*
Y94631D01*
X59839Y64831D02*
Y75631D01*
Y83631D02*
Y94631D01*
X59639Y64831D02*
Y75631D01*
Y83631D02*
Y94631D01*
X59439Y64831D02*
Y75631D01*
Y83631D02*
Y94631D01*
X59239Y64831D02*
Y75631D01*
Y83631D02*
Y94631D01*
X59039Y64831D02*
Y75631D01*
Y83631D02*
Y94631D01*
X58839Y64831D02*
Y75631D01*
Y83631D02*
Y94631D01*
X58639Y64831D02*
Y75631D01*
Y83631D02*
Y94631D01*
X58439Y64831D02*
Y75831D01*
Y83631D02*
Y94631D01*
X58239Y64831D02*
Y75831D01*
Y83431D02*
Y94631D01*
X58039Y64831D02*
Y75831D01*
Y83431D02*
Y94631D01*
X57839Y64831D02*
Y76031D01*
Y83231D02*
Y94631D01*
X57639Y64831D02*
Y76031D01*
Y83231D02*
Y94631D01*
X57439Y65031D02*
Y76231D01*
Y83031D02*
Y94231D01*
X57239Y66031D02*
Y76431D01*
Y83031D02*
Y93231D01*
X57039Y67231D02*
Y76431D01*
Y82831D02*
Y92031D01*
X56839Y68231D02*
Y76631D01*
Y82631D02*
Y91031D01*
X56639Y68831D02*
Y76831D01*
Y82431D02*
Y90631D01*
X56439Y68831D02*
Y77231D01*
Y82231D02*
Y90431D01*
X56239Y68831D02*
Y77431D01*
Y81831D02*
Y90431D01*
X56039Y69031D02*
Y77831D01*
Y81631D02*
Y90231D01*
X55839Y69031D02*
Y78231D01*
Y81231D02*
Y90231D01*
X55639Y69231D02*
Y78831D01*
Y80431D02*
Y90231D01*
X55439Y69231D02*
Y90031D01*
X55239Y69431D02*
Y90031D01*
X55039Y69431D02*
Y89831D01*
X54839Y69431D02*
Y89831D01*
X54639Y69631D02*
Y89631D01*
X54439Y69631D02*
Y89631D01*
X54239Y69831D02*
Y89631D01*
X54039Y69831D02*
Y89431D01*
X53839Y69831D02*
Y89431D01*
X53639Y69631D02*
Y89631D01*
X53439Y69631D02*
Y89631D01*
X53239Y69431D02*
Y89831D01*
X53039Y69231D02*
Y90031D01*
X52839Y69231D02*
Y90231D01*
X52639Y69031D02*
Y90231D01*
X52439Y68831D02*
Y90431D01*
X52239Y68831D02*
Y90631D01*
X52039Y68631D02*
Y90631D01*
X51839Y68431D02*
Y90831D01*
X51639Y68431D02*
Y91031D01*
X51439Y68231D02*
Y91031D01*
X51239Y68031D02*
Y91231D01*
X51039Y68031D02*
Y91431D01*
X50839Y67831D02*
Y91431D01*
X50639Y67631D02*
Y91631D01*
X50439Y67831D02*
Y91631D01*
X50239Y67831D02*
Y91431D01*
X50039Y68031D02*
Y91231D01*
X49839Y68231D02*
Y73831D01*
Y74231D02*
Y85031D01*
Y85431D02*
Y91031D01*
X49639Y68431D02*
Y73631D01*
Y74831D02*
Y84631D01*
Y85631D02*
Y90831D01*
X49439Y68631D02*
Y73231D01*
Y75231D02*
Y84031D01*
Y86031D02*
Y90631D01*
X49239Y68831D02*
Y73031D01*
Y75631D02*
Y83631D01*
Y86231D02*
Y90431D01*
X49039Y69031D02*
Y72631D01*
Y76231D02*
Y83031D01*
Y86631D02*
Y90231D01*
X48839Y69231D02*
Y72431D01*
Y76631D02*
Y82631D01*
Y86831D02*
Y90031D01*
X48639Y69431D02*
Y72031D01*
Y76831D02*
Y82431D01*
Y87231D02*
Y89831D01*
X48439Y69631D02*
Y71831D01*
Y76831D02*
Y82431D01*
Y87431D02*
Y89631D01*
X48239Y69831D02*
Y71631D01*
Y76831D02*
Y82431D01*
Y87831D02*
Y89431D01*
X48039Y70031D02*
Y71231D01*
Y77031D02*
Y82431D01*
Y88031D02*
Y89231D01*
X47839Y70231D02*
Y71031D01*
Y77031D02*
Y82231D01*
Y88431D02*
Y89031D01*
X47639Y77031D02*
Y82231D01*
X47439Y77031D02*
Y82231D01*
X47239Y77031D02*
Y82231D01*
X47039Y77231D02*
Y82231D01*
X46839Y77231D02*
Y82231D01*
X46639Y77231D02*
Y82031D01*
X46439Y77231D02*
Y82031D01*
X46239Y77231D02*
Y82031D01*
X46039Y77231D02*
Y82031D01*
X45839Y77431D02*
Y82031D01*
X45639Y77431D02*
Y81831D01*
X45439Y77431D02*
Y81831D01*
X45239Y77431D02*
Y81831D01*
X45039Y77431D02*
Y81831D01*
X44839Y77631D02*
Y81831D01*
M02*
