G04 Layer_Color=128*
%FSLAX25Y25*%
%MOIN*%
G70*
G01*
G75*
G36*
X67913Y57677D02*
Y57480D01*
Y49803D01*
X65551Y47441D01*
X33071D01*
X28740Y43110D01*
X28740D01*
Y32677D01*
X35433Y25984D01*
X35630D01*
Y9055D01*
X35433Y8858D01*
X29921Y3347D01*
X21654D01*
X21457Y3543D01*
X16339Y8661D01*
Y8858D01*
Y19488D01*
X4134Y31693D01*
Y49016D01*
Y49213D01*
X16929Y62008D01*
X63583D01*
X67913Y57677D01*
D02*
G37*
G36*
X69488Y109449D02*
Y109252D01*
Y99213D01*
X67126Y96850D01*
X33465D01*
X32087Y95472D01*
X28740D01*
X15354Y108858D01*
Y130315D01*
X15748Y130709D01*
X21260Y136221D01*
X42717D01*
X69488Y109449D01*
D02*
G37*
%LPC*%
G36*
X41339Y132480D02*
X22835D01*
X19094Y128740D01*
Y110039D01*
X23425Y105709D01*
X24803D01*
X26575Y103937D01*
Y102559D01*
X30118Y99016D01*
X31693Y100591D01*
X65748D01*
X65945Y100787D01*
Y107874D01*
X65945D01*
X41339Y132480D01*
D02*
G37*
G36*
X62205Y58465D02*
X18307D01*
X12402Y52559D01*
Y50591D01*
X10630Y48819D01*
X8661D01*
X7677Y47835D01*
Y33268D01*
X20079Y20866D01*
Y9843D01*
X23031Y6890D01*
X28543D01*
X32087Y10433D01*
Y24409D01*
X25197Y31299D01*
Y44685D01*
X31496Y50984D01*
X64173D01*
X64567Y51378D01*
Y56102D01*
X62205Y58465D01*
D02*
G37*
%LPD*%
M02*
