G04 Layer_Physical_Order=2*
G04 Layer_Color=16711680*
%FSLAX25Y25*%
%MOIN*%
G70*
G01*
G75*
%ADD15C,0.03000*%
%ADD16C,0.02500*%
%ADD17C,0.05000*%
%ADD18R,0.05906X0.05906*%
%ADD19C,0.05906*%
%ADD20C,0.07874*%
%ADD21C,0.05000*%
G36*
X129743Y2541D02*
X32399D01*
X32208Y3003D01*
X36355Y7149D01*
X36915Y7881D01*
X37268Y8732D01*
X37389Y9646D01*
Y25197D01*
X37389Y25197D01*
X37268Y26111D01*
X36915Y26962D01*
X36355Y27693D01*
X30499Y33549D01*
Y42435D01*
X33706Y45643D01*
X64752D01*
X64943Y45181D01*
X54222Y34460D01*
X47047D01*
X45873Y34305D01*
X44778Y33852D01*
X43838Y33131D01*
X43117Y32191D01*
X42663Y31096D01*
X42508Y29921D01*
X42663Y28747D01*
X43117Y27652D01*
X43838Y26712D01*
X43838D01*
Y26712D01*
X44778Y25991D01*
X45873Y25537D01*
X47047Y25382D01*
X47047Y25382D01*
X51970D01*
X52172Y24896D01*
X52893Y23956D01*
X61357Y15491D01*
X62297Y14770D01*
X62751Y14582D01*
X63392Y14317D01*
X64567Y14162D01*
X96850D01*
X98025Y14317D01*
X98666Y14582D01*
X99120Y14770D01*
X100060Y15491D01*
X107540Y22972D01*
X107540Y22972D01*
X107540Y22972D01*
X108261Y23912D01*
X108715Y25006D01*
X108870Y26181D01*
Y45758D01*
X110541Y47430D01*
X111189D01*
Y47016D01*
X121095D01*
Y56921D01*
X111189D01*
Y56507D01*
X108661D01*
X107487Y56353D01*
X106392Y55899D01*
X105452Y55178D01*
X105452Y55178D01*
X101121Y50847D01*
X100400Y49907D01*
X100111Y49209D01*
X99611D01*
X99403Y49710D01*
X98682Y50650D01*
X98682Y50650D01*
X96773Y52559D01*
X103061Y58847D01*
X119488D01*
X120663Y59002D01*
X121758Y59455D01*
X122698Y60176D01*
X123419Y61116D01*
X123872Y62211D01*
X124027Y63386D01*
X123872Y64561D01*
X123419Y65655D01*
X122698Y66595D01*
X121758Y67317D01*
X120663Y67770D01*
X119488Y67925D01*
X103061D01*
X88791Y82195D01*
Y113779D01*
X88636Y114954D01*
X88183Y116049D01*
X87461Y116989D01*
X86521Y117710D01*
X85427Y118164D01*
X84252Y118318D01*
X83077Y118164D01*
X81983Y117710D01*
X81042Y116989D01*
X80321Y116049D01*
X79868Y114954D01*
X79713Y113779D01*
Y80315D01*
X79868Y79140D01*
X80133Y78499D01*
X80321Y78045D01*
X81042Y77105D01*
X94512Y63636D01*
Y63136D01*
X90354Y58978D01*
X86674Y62658D01*
X85734Y63380D01*
X84639Y63833D01*
X83465Y63988D01*
X82290Y63833D01*
X81195Y63380D01*
X80255Y62658D01*
X79534Y61718D01*
X79346Y61265D01*
X79080Y60624D01*
X78926Y59449D01*
X78926Y59449D01*
X78926D01*
X78926Y59449D01*
X78926D01*
X79080Y58274D01*
X79534Y57179D01*
X80255Y56239D01*
X80255Y56239D01*
X80255D01*
Y56239D01*
X80255Y56239D01*
X87145Y49350D01*
D01*
X87145Y49350D01*
X87145Y49350D01*
Y49350D01*
X90934Y45561D01*
Y33179D01*
X86751Y28997D01*
X86030Y28057D01*
X85842Y27603D01*
X85576Y26962D01*
X85422Y25787D01*
X85576Y24613D01*
X85842Y23971D01*
X85973Y23655D01*
X85695Y23240D01*
X66447D01*
X61143Y28543D01*
X75847Y43247D01*
X75847Y43247D01*
X76569Y44187D01*
X77022Y45282D01*
X77177Y46457D01*
Y59449D01*
X77022Y60624D01*
X76569Y61718D01*
X75847Y62658D01*
X75847Y62658D01*
X56162Y82343D01*
X55222Y83065D01*
X54769Y83252D01*
X54128Y83518D01*
X52953Y83673D01*
X50787D01*
X49613Y83518D01*
X48518Y83065D01*
X47578Y82343D01*
X46857Y81403D01*
X46403Y80309D01*
X46249Y79134D01*
X46403Y77959D01*
X46857Y76864D01*
X47578Y75924D01*
X48518Y75203D01*
X49613Y74750D01*
X50787Y74595D01*
X51073D01*
X61439Y64228D01*
X61248Y63766D01*
X17520D01*
X16606Y63646D01*
X15755Y63293D01*
X15023Y62732D01*
X8730Y56438D01*
X8077Y56353D01*
X6983Y55899D01*
X6042Y55178D01*
X5321Y54238D01*
X4868Y53143D01*
X4782Y52491D01*
X3409Y51118D01*
X3014Y50604D01*
X2541Y50764D01*
Y136829D01*
X18979D01*
X19170Y136367D01*
X14827Y132024D01*
X14266Y131293D01*
X13913Y130441D01*
X13793Y129528D01*
Y109252D01*
X13913Y108338D01*
X14266Y107487D01*
X14827Y106756D01*
X19250Y102332D01*
X19336Y101680D01*
X19790Y100585D01*
X20511Y99645D01*
X21451Y98924D01*
X22546Y98470D01*
X23198Y98384D01*
X27622Y93960D01*
X28353Y93400D01*
X29204Y93047D01*
X30118Y92927D01*
X31032Y93047D01*
X31883Y93400D01*
X32614Y93960D01*
X33903Y95249D01*
X66496D01*
X67410Y95370D01*
X68261Y95722D01*
X68992Y96283D01*
X70213Y97504D01*
X70213Y97504D01*
X70774Y98235D01*
X71126Y99086D01*
X71247Y100000D01*
X71247Y100000D01*
Y108661D01*
X71126Y109575D01*
X70774Y110426D01*
X70213Y111158D01*
X44622Y136748D01*
X44650Y136829D01*
X129743D01*
Y2541D01*
D02*
G37*
%LPC*%
G36*
X116142Y36964D02*
X114849Y36794D01*
X113644Y36295D01*
X112609Y35501D01*
X111816Y34466D01*
X111317Y33261D01*
X111146Y31969D01*
X111317Y30676D01*
X111816Y29471D01*
X112609Y28436D01*
X113644Y27642D01*
X114849Y27143D01*
X116142Y26973D01*
X117435Y27143D01*
X118640Y27642D01*
X119674Y28436D01*
X120468Y29471D01*
X120967Y30676D01*
X121137Y31969D01*
X120967Y33261D01*
X120468Y34466D01*
X119674Y35501D01*
X118640Y36295D01*
X117435Y36794D01*
X116142Y36964D01*
D02*
G37*
G36*
X121291Y98260D02*
X111386D01*
Y88354D01*
X121291D01*
Y98260D01*
D02*
G37*
%LPD*%
D15*
X23720Y102854D02*
X30118Y96457D01*
X17323Y109252D02*
X23720Y102854D01*
X30118Y96457D02*
X32441Y98779D01*
X17323Y109252D02*
Y129528D01*
X22047Y134252D01*
X42126D01*
X32441Y98779D02*
X66496D01*
X67716Y100000D01*
Y108661D01*
X42126Y134252D02*
X67716Y108661D01*
X9252Y51968D02*
X17520Y60236D01*
X62473D01*
X65963Y56746D01*
Y50215D02*
Y56746D01*
X64921Y49173D02*
X65963Y50215D01*
X32244Y49173D02*
X64921D01*
X26969Y43898D02*
X32244Y49173D01*
X26969Y32087D02*
Y43898D01*
Y32087D02*
X33858Y25197D01*
Y9646D02*
Y25197D01*
X29331Y5118D02*
X33858Y9646D01*
X22244Y5118D02*
X29331D01*
X18307Y9055D02*
X22244Y5118D01*
X18307Y9055D02*
Y20079D01*
X5906Y32480D02*
X18307Y20079D01*
X5906Y32480D02*
Y48622D01*
X9252Y51968D01*
D16*
X111417Y83071D02*
X121653D01*
X125394Y86811D01*
Y100787D01*
X122874Y103307D02*
X125394Y100787D01*
X116339Y103307D02*
X122874D01*
X80315Y46654D02*
X84842D01*
X77559Y49409D02*
X80315Y46654D01*
X77559Y49409D02*
Y67520D01*
X72638Y72441D02*
X77559Y67520D01*
X67913Y72441D02*
X72638D01*
X54921Y85433D02*
X67913Y72441D01*
X29921Y85433D02*
X54921D01*
X23425Y78937D02*
X29921Y85433D01*
X23425Y71653D02*
Y78937D01*
X66339Y27953D02*
X81299D01*
X84842Y31496D01*
Y46654D01*
D17*
X52953Y79134D02*
X72638Y59449D01*
Y46457D02*
Y59449D01*
X56102Y29921D02*
X72638Y46457D01*
X50787Y79134D02*
X52953D01*
X84252Y80315D02*
X101181Y63386D01*
X84252Y80315D02*
Y113779D01*
X90354Y52559D02*
X101181Y63386D01*
X83465Y59449D02*
X90354Y52559D01*
X95472Y47441D01*
X101181Y63386D02*
X119488D01*
X89961Y25787D02*
X95472Y31299D01*
Y47441D01*
X108661Y51968D02*
X116142D01*
X104331Y47638D02*
X108661Y51968D01*
X104331Y26181D02*
Y47638D01*
X96850Y18701D02*
X104331Y26181D01*
X64567Y18701D02*
X96850D01*
X56102Y27165D02*
X64567Y18701D01*
X56102Y27165D02*
Y29921D01*
X47047D02*
X56102D01*
D18*
X23425Y71653D02*
D03*
X18504Y37795D02*
D03*
X37795Y113779D02*
D03*
X116142Y51968D02*
D03*
X116339Y93307D02*
D03*
D19*
X116142Y31969D02*
D03*
Y41969D02*
D03*
X116339Y103307D02*
D03*
D20*
X25945Y12598D02*
D03*
X115945D02*
D03*
X116339Y126575D02*
D03*
X26339D02*
D03*
D21*
X23720Y102854D02*
D03*
X67913Y72441D02*
D03*
X89961Y25787D02*
D03*
X119488Y63386D02*
D03*
X111417Y83071D02*
D03*
X66339Y27953D02*
D03*
X50787Y79134D02*
D03*
X83465Y59449D02*
D03*
X100787Y107480D02*
D03*
X84252Y113779D02*
D03*
X84842Y46654D02*
D03*
X9252Y51968D02*
D03*
X47047Y29921D02*
D03*
X42520Y86417D02*
D03*
M02*
