M48
;Layer_Color=9474304
;FILE_FORMAT=2:5
INCH,TZ
;TYPE=PLATED
T1F00S00C0.02800
T2F00S00C0.03543
T3F00S00C0.03937
%
T01
X9252Y51968
X47047Y29921
X66339Y27953
X89961Y25787
X84842Y46654
X83465Y59449
X67913Y72441
X50787Y79134
X42520Y86417
X23720Y102854
X84252Y113779
X100787Y107480
X111417Y83071
X119488Y63386
T02
X18504Y37795
X23425Y71653
X37795Y113779
X116339Y103307
Y93307
X116142Y51968
Y41969
Y31969
T03
X115945Y12598
X25945
X26339Y126575
X116339
M30
